<svg xmlns="http://www.w3.org/2000/svg" xmlns:xlink="http://www.w3.org/1999/xlink" width="500" zoomAndPan="magnify" viewBox="0 0 375 374.999991" height="500" preserveAspectRatio="xMidYMid meet" version="1.0"><defs><g/><clipPath id="0e4fd0f0f3"><path d="M 38.398438 79.445312 L 336.898438 79.445312 L 336.898438 295.445312 L 38.398438 295.445312 Z M 38.398438 79.445312 " clip-rule="nonzero"/></clipPath></defs><path fill="#f2e9df" d="M 50.054688 294.421875 C 49.359375 294.421875 48.667969 294.355469 47.988281 294.21875 C 47.304688 294.085938 46.640625 293.882812 46 293.617188 C 45.355469 293.351562 44.746094 293.023438 44.167969 292.636719 C 43.585938 292.25 43.050781 291.8125 42.558594 291.320312 C 42.066406 290.828125 41.628906 290.292969 41.242188 289.714844 C 40.855469 289.136719 40.527344 288.523438 40.261719 287.882812 C 39.996094 287.238281 39.796875 286.574219 39.660156 285.894531 C 39.523438 285.210938 39.457031 284.523438 39.457031 283.824219 L 39.457031 126.488281 C 39.457031 124.984375 39.535156 123.484375 39.683594 121.988281 C 39.832031 120.492188 40.054688 119.007812 40.347656 117.535156 C 40.640625 116.0625 41.007812 114.605469 41.445312 113.167969 C 41.882812 111.726562 42.390625 110.316406 42.964844 108.925781 C 43.542969 107.539062 44.183594 106.179688 44.894531 104.855469 C 45.601562 103.53125 46.375 102.242188 47.210938 100.992188 C 48.046875 99.742188 48.941406 98.539062 49.894531 97.375 C 50.847656 96.214844 51.855469 95.101562 52.917969 94.039062 C 53.984375 92.976562 55.09375 91.964844 56.257812 91.011719 C 57.417969 90.058594 58.625 89.164062 59.875 88.328125 C 61.125 87.492188 62.410156 86.722656 63.738281 86.011719 C 65.0625 85.300781 66.417969 84.660156 67.808594 84.082031 C 69.195312 83.507812 70.609375 83 72.046875 82.5625 C 73.488281 82.125 74.941406 81.761719 76.417969 81.464844 C 77.890625 81.171875 79.375 80.949219 80.871094 80.800781 C 82.367188 80.652344 83.867188 80.578125 85.371094 80.574219 L 289.613281 80.574219 C 291.117188 80.574219 292.617188 80.652344 294.113281 80.800781 C 295.609375 80.949219 297.09375 81.171875 298.566406 81.464844 C 300.042969 81.757812 301.496094 82.125 302.9375 82.5625 C 304.375 83 305.789062 83.507812 307.175781 84.082031 C 308.566406 84.65625 309.921875 85.300781 311.25 86.011719 C 312.574219 86.71875 313.863281 87.492188 315.109375 88.328125 C 316.359375 89.164062 317.566406 90.058594 318.730469 91.011719 C 319.890625 91.964844 321.003906 92.972656 322.066406 94.035156 C 323.128906 95.097656 324.136719 96.210938 325.09375 97.375 C 326.046875 98.535156 326.941406 99.742188 327.777344 100.992188 C 328.613281 102.242188 329.386719 103.527344 330.09375 104.855469 C 330.804688 106.179688 331.445312 107.535156 332.023438 108.925781 C 332.597656 110.3125 333.105469 111.726562 333.542969 113.164062 C 333.980469 114.605469 334.347656 116.058594 334.640625 117.535156 C 334.933594 119.007812 335.15625 120.492188 335.304688 121.988281 C 335.453125 123.484375 335.53125 124.984375 335.53125 126.488281 L 335.53125 283.824219 C 335.53125 284.523438 335.464844 285.210938 335.328125 285.894531 C 335.191406 286.574219 334.992188 287.238281 334.726562 287.882812 C 334.460938 288.523438 334.132812 289.136719 333.746094 289.714844 C 333.359375 290.292969 332.921875 290.828125 332.429688 291.320312 C 331.9375 291.8125 331.402344 292.25 330.820312 292.636719 C 330.242188 293.023438 329.632812 293.351562 328.988281 293.617188 C 328.347656 293.882812 327.683594 294.085938 327 294.21875 C 326.320312 294.355469 325.628906 294.421875 324.933594 294.421875 Z M 50.054688 294.421875 " fill-opacity="1" fill-rule="nonzero"/><g clip-path="url(#0e4fd0f0f3)"><path fill="#1c385f" d="M 324.933594 295.484375 L 50.054688 295.484375 C 49.289062 295.484375 48.53125 295.410156 47.78125 295.257812 C 47.027344 295.109375 46.300781 294.890625 45.59375 294.597656 C 44.886719 294.304688 44.214844 293.945312 43.578125 293.519531 C 42.941406 293.09375 42.351562 292.609375 41.8125 292.070312 C 41.269531 291.527344 40.785156 290.9375 40.359375 290.300781 C 39.9375 289.664062 39.578125 288.996094 39.285156 288.285156 C 38.992188 287.578125 38.769531 286.851562 38.621094 286.101562 C 38.472656 285.347656 38.398438 284.589844 38.398438 283.824219 L 38.398438 126.488281 C 38.398438 124.949219 38.476562 123.417969 38.628906 121.886719 C 38.78125 120.355469 39.007812 118.835938 39.308594 117.328125 C 39.609375 115.820312 39.984375 114.332031 40.429688 112.859375 C 40.878906 111.386719 41.398438 109.941406 41.988281 108.519531 C 42.574219 107.101562 43.234375 105.710938 43.957031 104.355469 C 44.683594 103 45.472656 101.683594 46.328125 100.402344 C 47.183594 99.125 48.097656 97.890625 49.074219 96.703125 C 50.050781 95.515625 51.082031 94.375 52.171875 93.289062 C 53.257812 92.199219 54.394531 91.167969 55.585938 90.195312 C 56.773438 89.21875 58.007812 88.300781 59.285156 87.449219 C 60.5625 86.59375 61.882812 85.800781 63.238281 85.078125 C 64.59375 84.351562 65.980469 83.695312 67.402344 83.105469 C 68.824219 82.515625 70.269531 81.996094 71.742188 81.550781 C 73.210938 81.101562 74.703125 80.726562 76.210938 80.425781 C 77.71875 80.125 79.238281 79.898438 80.769531 79.746094 C 82.296875 79.59375 83.832031 79.515625 85.371094 79.515625 L 289.613281 79.515625 C 291.152344 79.515625 292.683594 79.59375 294.214844 79.746094 C 295.746094 79.898438 297.265625 80.125 298.773438 80.425781 C 300.28125 80.726562 301.773438 81.101562 303.242188 81.546875 C 304.714844 81.996094 306.160156 82.515625 307.582031 83.101562 C 309.003906 83.691406 310.390625 84.351562 311.746094 85.074219 C 313.105469 85.800781 314.421875 86.589844 315.699219 87.445312 C 316.980469 88.300781 318.210938 89.214844 319.402344 90.191406 C 320.589844 91.167969 321.726562 92.199219 322.816406 93.285156 C 323.902344 94.375 324.9375 95.511719 325.910156 96.703125 C 326.886719 97.890625 327.804688 99.125 328.65625 100.402344 C 329.511719 101.679688 330.304688 103 331.027344 104.355469 C 331.753906 105.710938 332.410156 107.097656 333 108.519531 C 333.589844 109.941406 334.109375 111.386719 334.558594 112.859375 C 335.003906 114.328125 335.378906 115.820312 335.679688 117.328125 C 335.980469 118.835938 336.207031 120.355469 336.359375 121.886719 C 336.511719 123.417969 336.589844 124.949219 336.59375 126.488281 L 336.59375 283.824219 C 336.59375 284.589844 336.515625 285.347656 336.367188 286.101562 C 336.21875 286.851562 335.996094 287.578125 335.703125 288.285156 C 335.410156 288.996094 335.050781 289.664062 334.628906 290.300781 C 334.203125 290.9375 333.71875 291.527344 333.175781 292.070312 C 332.636719 292.609375 332.046875 293.09375 331.410156 293.519531 C 330.773438 293.945312 330.101562 294.304688 329.394531 294.597656 C 328.6875 294.890625 327.960938 295.109375 327.207031 295.257812 C 326.457031 295.410156 325.699219 295.484375 324.933594 295.484375 Z M 85.371094 81.632812 C 83.902344 81.636719 82.4375 81.710938 80.976562 81.855469 C 79.515625 82 78.0625 82.21875 76.625 82.503906 C 75.183594 82.792969 73.761719 83.148438 72.355469 83.578125 C 70.949219 84.003906 69.570312 84.5 68.214844 85.0625 C 66.855469 85.625 65.53125 86.253906 64.238281 86.945312 C 62.941406 87.640625 61.683594 88.394531 60.464844 89.210938 C 59.242188 90.027344 58.0625 90.898438 56.929688 91.832031 C 55.792969 92.765625 54.707031 93.75 53.667969 94.789062 C 52.628906 95.824219 51.644531 96.914062 50.714844 98.046875 C 49.78125 99.183594 48.90625 100.359375 48.089844 101.582031 C 47.277344 102.800781 46.519531 104.058594 45.828125 105.355469 C 45.136719 106.648438 44.507812 107.976562 43.945312 109.332031 C 43.382812 110.6875 42.886719 112.070312 42.460938 113.472656 C 42.03125 114.878906 41.675781 116.300781 41.386719 117.742188 C 41.097656 119.183594 40.882812 120.632812 40.738281 122.09375 C 40.589844 123.554688 40.519531 125.019531 40.515625 126.488281 L 40.515625 283.824219 C 40.515625 284.453125 40.578125 285.074219 40.699219 285.6875 C 40.820312 286.300781 41.003906 286.898438 41.242188 287.476562 C 41.480469 288.054688 41.777344 288.605469 42.125 289.125 C 42.472656 289.644531 42.867188 290.128906 43.308594 290.570312 C 43.753906 291.011719 44.234375 291.410156 44.753906 291.757812 C 45.277344 292.105469 45.824219 292.398438 46.402344 292.636719 C 46.984375 292.878906 47.578125 293.058594 48.191406 293.179688 C 48.808594 293.300781 49.425781 293.363281 50.054688 293.363281 L 324.933594 293.363281 C 325.5625 293.363281 326.179688 293.300781 326.796875 293.179688 C 327.410156 293.058594 328.003906 292.878906 328.585938 292.636719 C 329.164062 292.398438 329.710938 292.105469 330.234375 291.757812 C 330.753906 291.410156 331.234375 291.011719 331.679688 290.570312 C 332.121094 290.128906 332.515625 289.644531 332.863281 289.125 C 333.210938 288.605469 333.507812 288.054688 333.746094 287.476562 C 333.984375 286.898438 334.167969 286.300781 334.289062 285.6875 C 334.410156 285.074219 334.472656 284.453125 334.472656 283.824219 L 334.472656 126.488281 C 334.46875 125.019531 334.398438 123.554688 334.25 122.09375 C 334.105469 120.632812 333.886719 119.179688 333.601562 117.742188 C 333.3125 116.300781 332.953125 114.878906 332.527344 113.472656 C 332.101562 112.070312 331.605469 110.6875 331.042969 109.332031 C 330.480469 107.976562 329.851562 106.648438 329.15625 105.355469 C 328.464844 104.058594 327.710938 102.800781 326.894531 101.582031 C 326.078125 100.359375 325.203125 99.183594 324.273438 98.046875 C 323.339844 96.914062 322.355469 95.824219 321.316406 94.785156 C 320.277344 93.75 319.191406 92.761719 318.054688 91.832031 C 316.921875 90.898438 315.742188 90.027344 314.519531 89.210938 C 313.300781 88.394531 312.042969 87.640625 310.746094 86.945312 C 309.453125 86.253906 308.125 85.625 306.769531 85.0625 C 305.414062 84.5 304.03125 84.003906 302.628906 83.578125 C 301.222656 83.148438 299.800781 82.792969 298.359375 82.503906 C 296.917969 82.21875 295.46875 82 294.007812 81.855469 C 292.546875 81.710938 291.082031 81.636719 289.613281 81.632812 Z M 85.371094 81.632812 " fill-opacity="1" fill-rule="nonzero"/></g><path fill="#416c95" d="M 85.371094 91.171875 L 289.617188 91.171875 C 290.773438 91.171875 291.929688 91.230469 293.078125 91.34375 C 294.230469 91.457031 295.375 91.625 296.507812 91.851562 C 297.640625 92.078125 298.761719 92.355469 299.871094 92.691406 C 300.976562 93.027344 302.0625 93.417969 303.132812 93.859375 C 304.203125 94.304688 305.246094 94.796875 306.265625 95.34375 C 307.285156 95.886719 308.277344 96.480469 309.238281 97.125 C 310.199219 97.765625 311.128906 98.453125 312.023438 99.1875 C 312.917969 99.921875 313.773438 100.699219 314.589844 101.515625 C 315.410156 102.335938 316.183594 103.191406 316.917969 104.085938 C 317.652344 104.976562 318.339844 105.90625 318.984375 106.867188 C 319.625 107.828125 320.21875 108.820312 320.765625 109.839844 C 321.308594 110.859375 321.804688 111.90625 322.246094 112.972656 C 322.6875 114.042969 323.078125 115.128906 323.414062 116.238281 C 323.75 117.34375 324.03125 118.464844 324.253906 119.597656 C 324.480469 120.734375 324.652344 121.875 324.765625 123.027344 C 324.878906 124.179688 324.933594 125.332031 324.933594 126.488281 L 324.933594 283.824219 L 50.054688 283.824219 L 50.054688 126.488281 C 50.054688 125.332031 50.109375 124.179688 50.222656 123.027344 C 50.335938 121.875 50.507812 120.734375 50.734375 119.597656 C 50.957031 118.464844 51.238281 117.34375 51.574219 116.238281 C 51.910156 115.128906 52.300781 114.042969 52.742188 112.972656 C 53.183594 111.90625 53.679688 110.859375 54.222656 109.839844 C 54.769531 108.820312 55.363281 107.828125 56.003906 106.867188 C 56.648438 105.90625 57.335938 104.976562 58.070312 104.085938 C 58.804688 103.191406 59.578125 102.335938 60.398438 101.515625 C 61.214844 100.699219 62.070312 99.921875 62.964844 99.1875 C 63.859375 98.453125 64.789062 97.765625 65.75 97.125 C 66.710938 96.480469 67.703125 95.886719 68.722656 95.34375 C 69.742188 94.796875 70.785156 94.304688 71.855469 93.859375 C 72.925781 93.417969 74.011719 93.027344 75.117188 92.691406 C 76.226562 92.355469 77.347656 92.078125 78.480469 91.851562 C 79.613281 91.625 80.757812 91.457031 81.910156 91.34375 C 83.058594 91.230469 84.214844 91.171875 85.371094 91.171875 Z M 85.371094 91.171875 " fill-opacity="1" fill-rule="nonzero"/><path fill="#1c385f" d="M 324.933594 284.886719 L 50.054688 284.886719 C 49.914062 284.886719 49.777344 284.859375 49.648438 284.804688 C 49.519531 284.75 49.402344 284.675781 49.304688 284.574219 C 49.207031 284.476562 49.128906 284.359375 49.074219 284.230469 C 49.019531 284.101562 48.996094 283.964844 48.996094 283.824219 L 48.996094 126.488281 C 48.996094 125.296875 49.054688 124.109375 49.171875 122.925781 C 49.292969 121.738281 49.464844 120.5625 49.699219 119.394531 C 49.933594 118.226562 50.222656 117.074219 50.570312 115.933594 C 50.917969 114.792969 51.316406 113.675781 51.773438 112.574219 C 52.230469 111.472656 52.738281 110.398438 53.300781 109.347656 C 53.863281 108.300781 54.476562 107.277344 55.136719 106.289062 C 55.800781 105.300781 56.507812 104.34375 57.265625 103.421875 C 58.019531 102.503906 58.820312 101.621094 59.660156 100.777344 C 60.503906 99.9375 61.382812 99.136719 62.304688 98.382812 C 63.226562 97.625 64.179688 96.917969 65.171875 96.257812 C 66.160156 95.59375 67.179688 94.980469 68.230469 94.421875 C 69.28125 93.859375 70.355469 93.347656 71.457031 92.894531 C 72.554688 92.4375 73.675781 92.035156 74.816406 91.6875 C 75.957031 91.339844 77.109375 91.050781 78.277344 90.820312 C 79.445312 90.585938 80.621094 90.410156 81.804688 90.292969 C 82.992188 90.171875 84.179688 90.113281 85.371094 90.113281 L 289.613281 90.113281 C 290.804688 90.113281 291.992188 90.171875 293.175781 90.289062 C 294.363281 90.410156 295.539062 90.585938 296.707031 90.816406 C 297.875 91.050781 299.027344 91.339844 300.167969 91.6875 C 301.308594 92.035156 302.429688 92.433594 303.527344 92.890625 C 304.628906 93.347656 305.703125 93.855469 306.753906 94.417969 C 307.804688 94.980469 308.824219 95.59375 309.816406 96.253906 C 310.804688 96.917969 311.761719 97.625 312.679688 98.378906 C 313.601562 99.136719 314.484375 99.933594 315.324219 100.777344 C 316.167969 101.621094 316.96875 102.5 317.722656 103.421875 C 318.480469 104.34375 319.1875 105.296875 319.847656 106.289062 C 320.511719 107.277344 321.125 108.296875 321.6875 109.347656 C 322.246094 110.398438 322.757812 111.472656 323.214844 112.574219 C 323.667969 113.671875 324.070312 114.792969 324.417969 115.933594 C 324.765625 117.074219 325.054688 118.226562 325.289062 119.394531 C 325.523438 120.5625 325.695312 121.738281 325.816406 122.925781 C 325.933594 124.109375 325.992188 125.296875 325.996094 126.488281 L 325.996094 283.824219 C 325.996094 283.964844 325.96875 284.101562 325.914062 284.230469 C 325.859375 284.359375 325.785156 284.476562 325.683594 284.574219 C 325.585938 284.675781 325.46875 284.75 325.339844 284.804688 C 325.210938 284.859375 325.074219 284.886719 324.933594 284.886719 Z M 51.113281 282.765625 L 323.875 282.765625 L 323.875 126.488281 C 323.875 125.367188 323.816406 124.246094 323.707031 123.132812 C 323.59375 122.015625 323.429688 120.90625 323.210938 119.808594 C 322.992188 118.707031 322.71875 117.621094 322.390625 116.546875 C 322.066406 115.472656 321.6875 114.417969 321.257812 113.382812 C 320.828125 112.347656 320.347656 111.335938 319.816406 110.347656 C 319.289062 109.355469 318.710938 108.394531 318.089844 107.464844 C 317.464844 106.53125 316.796875 105.632812 316.085938 104.765625 C 315.375 103.898438 314.621094 103.066406 313.828125 102.273438 C 313.035156 101.480469 312.203125 100.730469 311.339844 100.015625 C 310.472656 99.304688 309.570312 98.636719 308.636719 98.015625 C 307.707031 97.390625 306.746094 96.816406 305.757812 96.285156 C 304.765625 95.757812 303.753906 95.277344 302.71875 94.847656 C 301.683594 94.417969 300.628906 94.039062 299.554688 93.714844 C 298.480469 93.386719 297.394531 93.113281 296.292969 92.894531 C 295.195312 92.675781 294.085938 92.511719 292.96875 92.398438 C 291.851562 92.289062 290.734375 92.234375 289.613281 92.230469 L 85.371094 92.230469 C 84.25 92.234375 83.128906 92.289062 82.015625 92.398438 C 80.898438 92.511719 79.789062 92.675781 78.691406 92.894531 C 77.589844 93.117188 76.503906 93.390625 75.429688 93.714844 C 74.355469 94.042969 73.300781 94.417969 72.265625 94.847656 C 71.230469 95.277344 70.21875 95.757812 69.230469 96.289062 C 68.242188 96.816406 67.28125 97.394531 66.347656 98.015625 C 65.414062 98.640625 64.515625 99.308594 63.648438 100.019531 C 62.78125 100.730469 61.953125 101.484375 61.15625 102.277344 C 60.363281 103.070312 59.613281 103.898438 58.902344 104.765625 C 58.1875 105.632812 57.523438 106.53125 56.898438 107.464844 C 56.273438 108.398438 55.699219 109.359375 55.167969 110.347656 C 54.640625 111.335938 54.160156 112.347656 53.730469 113.386719 C 53.300781 114.421875 52.921875 115.476562 52.597656 116.546875 C 52.269531 117.621094 51.996094 118.707031 51.777344 119.808594 C 51.558594 120.90625 51.394531 122.015625 51.28125 123.132812 C 51.171875 124.25 51.113281 125.367188 51.113281 126.488281 Z M 51.113281 282.765625 " fill-opacity="1" fill-rule="nonzero"/><g fill="#f2e9df" fill-opacity="1"><g transform="translate(110.626612, 180.720165)"><g><path d="M 48.0625 -48.9375 C 50.726562 -47.625 52.0625 -46.175781 52.0625 -44.59375 C 52.0625 -43.875 51.722656 -42.789062 51.046875 -41.34375 L 32.328125 -3.390625 C 31.835938 -2.390625 31.082031 -1.582031 30.0625 -0.96875 C 29.039062 -0.363281 27.988281 -0.0625 26.90625 -0.0625 L 26.234375 -0.0625 C 25.097656 -0.0625 24.019531 -0.363281 23 -0.96875 C 21.988281 -1.582031 21.234375 -2.390625 20.734375 -3.390625 L 2.03125 -41.34375 C 1.351562 -42.789062 1.015625 -43.875 1.015625 -44.59375 C 1.015625 -46.175781 2.347656 -47.625 5.015625 -48.9375 C 6.503906 -49.707031 7.644531 -50.09375 8.4375 -50.09375 C 9.226562 -50.09375 9.828125 -50 10.234375 -49.8125 C 10.640625 -49.632812 11.023438 -49.320312 11.390625 -48.875 C 11.796875 -48.332031 12.164062 -47.734375 12.5 -47.078125 C 12.84375 -46.421875 13.710938 -44.546875 15.109375 -41.453125 C 16.515625 -38.359375 18.019531 -35.066406 19.625 -31.578125 C 21.226562 -28.097656 22.738281 -24.8125 24.15625 -21.71875 C 25.582031 -18.625 26.382812 -16.894531 26.5625 -16.53125 L 40.125 -46.234375 C 40.488281 -47.085938 40.804688 -47.765625 41.078125 -48.265625 C 41.890625 -49.484375 42.878906 -50.09375 44.046875 -50.09375 C 45.222656 -50.09375 46.5625 -49.707031 48.0625 -48.9375 Z M 48.0625 -48.9375 "/></g></g></g><g fill="#f2e9df" fill-opacity="1"><g transform="translate(163.698918, 180.720165)"><g><path d="M 31.375 -46.15625 L 49.6875 -8.34375 C 50.445312 -6.800781 50.828125 -5.644531 50.828125 -4.875 C 50.828125 -3.25 49.519531 -1.78125 46.90625 -0.46875 C 45.363281 0.289062 44.148438 0.671875 43.265625 0.671875 C 42.390625 0.671875 41.671875 0.46875 41.109375 0.0625 C 40.546875 -0.34375 40.140625 -0.769531 39.890625 -1.21875 C 39.640625 -1.664062 39.289062 -2.34375 38.84375 -3.25 L 35.3125 -10.578125 L 16.53125 -10.578125 L 13.015625 -3.25 C 12.566406 -2.34375 12.21875 -1.6875 11.96875 -1.28125 C 11.71875 -0.875 11.304688 -0.457031 10.734375 -0.03125 C 10.171875 0.394531 9.445312 0.609375 8.5625 0.609375 C 7.6875 0.609375 6.484375 0.222656 4.953125 -0.546875 C 2.328125 -1.804688 1.015625 -3.25 1.015625 -4.875 C 1.015625 -5.644531 1.398438 -6.800781 2.171875 -8.34375 L 20.46875 -46.234375 C 20.96875 -47.265625 21.722656 -48.097656 22.734375 -48.734375 C 23.753906 -49.367188 24.828125 -49.6875 25.953125 -49.6875 C 28.398438 -49.6875 30.207031 -48.507812 31.375 -46.15625 Z M 25.890625 -29.890625 L 21.421875 -20.609375 L 30.4375 -20.609375 Z M 25.890625 -29.890625 "/></g></g></g><g fill="#f2e9df" fill-opacity="1"><g transform="translate(215.55118, 180.720165)"><g><path d="M 34.796875 -47.609375 C 35.234375 -48.398438 35.878906 -48.929688 36.734375 -49.203125 C 37.597656 -49.472656 38.671875 -49.609375 39.953125 -49.609375 C 41.242188 -49.609375 42.285156 -49.492188 43.078125 -49.265625 C 43.867188 -49.046875 44.453125 -48.773438 44.828125 -48.453125 C 45.210938 -48.140625 45.5 -47.671875 45.6875 -47.046875 C 45.957031 -46.316406 46.09375 -45.160156 46.09375 -43.578125 L 46.09375 -5.96875 C 46.09375 -4.882812 46.054688 -4.09375 45.984375 -3.59375 C 45.921875 -3.09375 45.707031 -2.503906 45.34375 -1.828125 C 44.707031 -0.609375 42.945312 0 40.0625 0 C 38.300781 0 37.078125 -0.132812 36.390625 -0.40625 C 35.710938 -0.675781 35.148438 -1.101562 34.703125 -1.6875 C 24.535156 -15.25 17.847656 -24.109375 14.640625 -28.265625 L 14.640625 -5.96875 C 14.640625 -4.882812 14.601562 -4.09375 14.53125 -3.59375 C 14.46875 -3.09375 14.253906 -2.503906 13.890625 -1.828125 C 13.265625 -0.609375 11.503906 0 8.609375 0 C 5.804688 0 4.085938 -0.609375 3.453125 -1.828125 C 3.097656 -2.503906 2.882812 -3.113281 2.8125 -3.65625 C 2.75 -4.195312 2.71875 -4.988281 2.71875 -6.03125 L 2.71875 -43.859375 C 2.71875 -45.578125 2.929688 -46.828125 3.359375 -47.609375 C 3.785156 -48.398438 4.425781 -48.929688 5.28125 -49.203125 C 6.144531 -49.472656 7.253906 -49.609375 8.609375 -49.609375 C 9.960938 -49.609375 11.035156 -49.484375 11.828125 -49.234375 C 12.617188 -48.992188 13.171875 -48.710938 13.484375 -48.390625 C 13.671875 -48.253906 14.191406 -47.671875 15.046875 -46.640625 C 24.578125 -33.671875 30.945312 -25.101562 34.15625 -20.9375 L 34.15625 -43.859375 C 34.15625 -45.578125 34.367188 -46.828125 34.796875 -47.609375 Z M 34.796875 -47.609375 "/></g></g></g><g fill="#f2e9df" fill-opacity="1"><g transform="translate(85.378807, 240.608665)"><g><path d="M 8.75 -49.75 L 21.28125 -49.6875 C 27.832031 -49.6875 33.59375 -47.320312 38.5625 -42.59375 C 43.539062 -37.875 46.03125 -32.066406 46.03125 -25.171875 C 46.03125 -18.285156 43.597656 -12.378906 38.734375 -7.453125 C 33.878906 -2.523438 27.992188 -0.0625 21.078125 -0.0625 L 8.671875 -0.0625 C 5.921875 -0.0625 4.207031 -0.628906 3.53125 -1.765625 C 2.988281 -2.710938 2.71875 -4.15625 2.71875 -6.09375 L 2.71875 -43.78125 C 2.71875 -44.863281 2.75 -45.65625 2.8125 -46.15625 C 2.882812 -46.65625 3.097656 -47.242188 3.453125 -47.921875 C 4.085938 -49.140625 5.851562 -49.75 8.75 -49.75 Z M 21.28125 -12.0625 C 24.53125 -12.0625 27.46875 -13.269531 30.09375 -15.6875 C 32.71875 -18.101562 34.03125 -21.140625 34.03125 -24.796875 C 34.03125 -28.460938 32.75 -31.523438 30.1875 -33.984375 C 27.632812 -36.453125 24.644531 -37.6875 21.21875 -37.6875 L 14.703125 -37.6875 L 14.703125 -12.0625 Z M 21.28125 -12.0625 "/></g></g></g><g fill="#f2e9df" fill-opacity="1"><g transform="translate(133.096438, 240.608665)"><g><path d="M 40.734375 -8.40625 C 41.410156 -6.78125 41.75 -5.601562 41.75 -4.875 C 41.75 -3.15625 40.347656 -1.710938 37.546875 -0.546875 C 36.097656 0.0859375 34.929688 0.40625 34.046875 0.40625 C 33.171875 0.40625 32.453125 0.191406 31.890625 -0.234375 C 31.328125 -0.660156 30.910156 -1.101562 30.640625 -1.5625 C 30.179688 -2.414062 28.414062 -6.503906 25.34375 -13.828125 L 23.25 -13.6875 L 14.703125 -13.6875 L 14.703125 -6.03125 C 14.703125 -4.988281 14.664062 -4.207031 14.59375 -3.6875 C 14.53125 -3.175781 14.320312 -2.578125 13.96875 -1.890625 C 13.332031 -0.671875 11.566406 -0.0625 8.671875 -0.0625 C 5.515625 -0.0625 3.664062 -0.898438 3.125 -2.578125 C 2.851562 -3.347656 2.71875 -4.519531 2.71875 -6.09375 L 2.71875 -43.71875 C 2.71875 -44.757812 2.75 -45.539062 2.8125 -46.0625 C 2.882812 -46.582031 3.097656 -47.179688 3.453125 -47.859375 C 4.085938 -49.078125 5.851562 -49.6875 8.75 -49.6875 L 23.390625 -49.6875 C 27.359375 -49.6875 31.21875 -48.238281 34.96875 -45.34375 C 36.78125 -43.945312 38.273438 -42.050781 39.453125 -39.65625 C 40.628906 -37.257812 41.21875 -34.59375 41.21875 -31.65625 C 41.21875 -26.550781 39.519531 -22.347656 36.125 -19.046875 C 37.125 -16.648438 38.660156 -13.101562 40.734375 -8.40625 Z M 14.703125 -25.6875 L 23.390625 -25.6875 C 24.691406 -25.6875 26 -26.179688 27.3125 -27.171875 C 28.625 -28.171875 29.28125 -29.664062 29.28125 -31.65625 C 29.28125 -33.644531 28.625 -35.144531 27.3125 -36.15625 C 26 -37.175781 24.644531 -37.6875 23.25 -37.6875 L 14.703125 -37.6875 Z M 14.703125 -25.6875 "/></g></g></g><g fill="#f2e9df" fill-opacity="1"><g transform="translate(175.86608, 240.608665)"><g><path d="M 2.71875 -43.71875 C 2.71875 -44.757812 2.75 -45.539062 2.8125 -46.0625 C 2.882812 -46.582031 3.097656 -47.179688 3.453125 -47.859375 C 4.085938 -49.078125 5.851562 -49.6875 8.75 -49.6875 C 11.90625 -49.6875 13.78125 -48.847656 14.375 -47.171875 C 14.59375 -46.410156 14.703125 -45.238281 14.703125 -43.65625 L 14.703125 -5.96875 C 14.703125 -4.882812 14.664062 -4.09375 14.59375 -3.59375 C 14.53125 -3.09375 14.320312 -2.503906 13.96875 -1.828125 C 13.332031 -0.609375 11.566406 0 8.671875 0 C 5.515625 0 3.664062 -0.859375 3.125 -2.578125 C 2.851562 -3.296875 2.71875 -4.445312 2.71875 -6.03125 Z M 2.71875 -43.71875 "/></g></g></g><g fill="#f2e9df" fill-opacity="1"><g transform="translate(193.285724, 240.608665)"><g><path d="M 48.0625 -48.9375 C 50.726562 -47.625 52.0625 -46.175781 52.0625 -44.59375 C 52.0625 -43.875 51.722656 -42.789062 51.046875 -41.34375 L 32.328125 -3.390625 C 31.835938 -2.390625 31.082031 -1.582031 30.0625 -0.96875 C 29.039062 -0.363281 27.988281 -0.0625 26.90625 -0.0625 L 26.234375 -0.0625 C 25.097656 -0.0625 24.019531 -0.363281 23 -0.96875 C 21.988281 -1.582031 21.234375 -2.390625 20.734375 -3.390625 L 2.03125 -41.34375 C 1.351562 -42.789062 1.015625 -43.875 1.015625 -44.59375 C 1.015625 -46.175781 2.347656 -47.625 5.015625 -48.9375 C 6.503906 -49.707031 7.644531 -50.09375 8.4375 -50.09375 C 9.226562 -50.09375 9.828125 -50 10.234375 -49.8125 C 10.640625 -49.632812 11.023438 -49.320312 11.390625 -48.875 C 11.796875 -48.332031 12.164062 -47.734375 12.5 -47.078125 C 12.84375 -46.421875 13.710938 -44.546875 15.109375 -41.453125 C 16.515625 -38.359375 18.019531 -35.066406 19.625 -31.578125 C 21.226562 -28.097656 22.738281 -24.8125 24.15625 -21.71875 C 25.582031 -18.625 26.382812 -16.894531 26.5625 -16.53125 L 40.125 -46.234375 C 40.488281 -47.085938 40.804688 -47.765625 41.078125 -48.265625 C 41.890625 -49.484375 42.878906 -50.09375 44.046875 -50.09375 C 45.222656 -50.09375 46.5625 -49.707031 48.0625 -48.9375 Z M 48.0625 -48.9375 "/></g></g></g><g fill="#f2e9df" fill-opacity="1"><g transform="translate(246.35803, 240.608665)"><g><path d="M 14.703125 -12 L 35.578125 -12 C 36.617188 -12 37.398438 -11.960938 37.921875 -11.890625 C 38.441406 -11.828125 39.039062 -11.613281 39.71875 -11.25 C 40.9375 -10.613281 41.546875 -8.851562 41.546875 -5.96875 C 41.546875 -2.800781 40.710938 -0.945312 39.046875 -0.40625 C 38.273438 -0.132812 37.097656 0 35.515625 0 L 8.671875 0 C 5.515625 0 3.664062 -0.859375 3.125 -2.578125 C 2.851562 -3.296875 2.71875 -4.445312 2.71875 -6.03125 L 2.71875 -43.71875 C 2.71875 -46.019531 3.144531 -47.585938 4 -48.421875 C 4.851562 -49.265625 6.476562 -49.6875 8.875 -49.6875 L 35.578125 -49.6875 C 36.617188 -49.6875 37.398438 -49.648438 37.921875 -49.578125 C 38.441406 -49.515625 39.039062 -49.300781 39.71875 -48.9375 C 40.9375 -48.300781 41.546875 -46.539062 41.546875 -43.65625 C 41.546875 -40.488281 40.710938 -38.632812 39.046875 -38.09375 C 38.273438 -37.820312 37.097656 -37.6875 35.515625 -37.6875 L 14.703125 -37.6875 L 14.703125 -30.84375 L 28.125 -30.84375 C 29.164062 -30.84375 29.945312 -30.804688 30.46875 -30.734375 C 30.988281 -30.671875 31.585938 -30.457031 32.265625 -30.09375 C 33.484375 -29.457031 34.09375 -27.695312 34.09375 -24.8125 C 34.09375 -21.644531 33.234375 -19.789062 31.515625 -19.25 C 30.742188 -18.976562 29.570312 -18.84375 28 -18.84375 L 14.703125 -18.84375 Z M 14.703125 -12 "/></g></g></g><path fill="#f2e9df" d="M 278.5625 174.144531 L 283.0625 174.144531 L 283.0625 178.644531 L 278.5625 178.644531 M 287.5625 174.144531 L 292.0625 174.144531 L 292.0625 178.644531 L 287.5625 178.644531 M 296.5625 174.144531 L 301.0625 174.144531 L 301.0625 178.644531 L 296.5625 178.644531 M 305.5625 174.144531 L 309.980469 174.144531 L 309.980469 178.644531 L 305.5625 178.644531 " fill-opacity="1" fill-rule="nonzero"/><path stroke-linecap="round" transform="matrix(0.75, 0, 0, 0.75, 278.564254, 174.14467)" fill="none" stroke-linejoin="round" d="M 29.888288 -6.000186 L 41.888289 2.999815 L 29.888288 11.999816 " stroke="#f2e9df" stroke-width="6" stroke-opacity="1" stroke-miterlimit="4"/><path fill="#f2e9df" d="M 62.769531 174.144531 L 67.269531 174.144531 L 67.269531 178.644531 L 62.769531 178.644531 M 71.769531 174.144531 L 76.269531 174.144531 L 76.269531 178.644531 L 71.769531 178.644531 M 80.769531 174.144531 L 85.269531 174.144531 L 85.269531 178.644531 L 80.769531 178.644531 M 89.769531 174.144531 L 94.269531 174.144531 L 94.269531 178.644531 L 89.769531 178.644531 " fill-opacity="1" fill-rule="nonzero"/></svg>