<svg xmlns="http://www.w3.org/2000/svg" xmlns:xlink="http://www.w3.org/1999/xlink" width="500" zoomAndPan="magnify" viewBox="0 0 375 374.999991" height="500" preserveAspectRatio="xMidYMid meet" version="1.0"><defs><g/><clipPath id="457e49e2e4"><path d="M 89 77 L 286 77 L 286 219.75 L 89 219.75 Z M 89 77 " clip-rule="nonzero"/></clipPath><clipPath id="caedf99db0"><path d="M 88.535156 76.5 L 286.535156 76.5 L 286.535156 219.75 L 88.535156 219.75 Z M 88.535156 76.5 " clip-rule="nonzero"/></clipPath><clipPath id="277a5d54bd"><path d="M 65.121094 158.246094 L 309.621094 158.246094 L 309.621094 298.496094 L 65.121094 298.496094 Z M 65.121094 158.246094 " clip-rule="nonzero"/></clipPath><clipPath id="f69ed1863f"><path d="M 81.941406 195.523438 L 114 195.523438 L 114 241 L 81.941406 241 Z M 81.941406 195.523438 " clip-rule="nonzero"/></clipPath><clipPath id="992cf7643e"><path d="M 110 197 L 144.191406 197 L 144.191406 245 L 110 245 Z M 110 197 " clip-rule="nonzero"/></clipPath><clipPath id="7bfed709d2"><path d="M 93 245 L 125 245 L 125 271.273438 L 93 271.273438 Z M 93 245 " clip-rule="nonzero"/></clipPath></defs><g clip-path="url(#457e49e2e4)"><path fill="#f2e9df" d="M 96.273438 219.191406 C 95.8125 219.191406 95.351562 219.148438 94.902344 219.058594 C 94.449219 218.964844 94.007812 218.832031 93.582031 218.65625 C 93.152344 218.480469 92.75 218.261719 92.363281 218.007812 C 91.980469 217.75 91.625 217.457031 91.296875 217.132812 C 90.972656 216.804688 90.679688 216.449219 90.425781 216.066406 C 90.167969 215.683594 89.949219 215.277344 89.773438 214.851562 C 89.597656 214.421875 89.464844 213.984375 89.375 213.53125 C 89.285156 213.078125 89.238281 212.621094 89.238281 212.15625 L 89.238281 107.722656 C 89.238281 106.726562 89.289062 105.730469 89.386719 104.738281 C 89.488281 103.746094 89.632812 102.757812 89.828125 101.78125 C 90.023438 100.800781 90.269531 99.835938 90.558594 98.882812 C 90.847656 97.925781 91.183594 96.988281 91.566406 96.066406 C 91.949219 95.144531 92.375 94.246094 92.847656 93.363281 C 93.316406 92.484375 93.832031 91.628906 94.386719 90.800781 C 94.941406 89.972656 95.535156 89.171875 96.167969 88.398438 C 96.800781 87.628906 97.46875 86.890625 98.175781 86.183594 C 98.878906 85.480469 99.617188 84.808594 100.390625 84.175781 C 101.160156 83.542969 101.960938 82.949219 102.792969 82.394531 C 103.621094 81.839844 104.476562 81.328125 105.355469 80.855469 C 106.234375 80.386719 107.136719 79.960938 108.058594 79.578125 C 108.980469 79.195312 109.917969 78.859375 110.871094 78.566406 C 111.828125 78.277344 112.792969 78.035156 113.769531 77.839844 C 114.75 77.644531 115.734375 77.496094 116.726562 77.398438 C 117.722656 77.300781 118.714844 77.25 119.714844 77.246094 L 255.28125 77.246094 C 256.28125 77.25 257.273438 77.296875 258.269531 77.398438 C 259.261719 77.496094 260.246094 77.644531 261.226562 77.839844 C 262.203125 78.035156 263.171875 78.277344 264.125 78.566406 C 265.082031 78.859375 266.019531 79.195312 266.941406 79.574219 C 267.863281 79.957031 268.761719 80.386719 269.644531 80.855469 C 270.523438 81.328125 271.378906 81.839844 272.207031 82.394531 C 273.035156 82.949219 273.835938 83.542969 274.609375 84.175781 C 275.378906 84.808594 276.117188 85.476562 276.824219 86.183594 C 277.527344 86.890625 278.199219 87.628906 278.832031 88.398438 C 279.464844 89.167969 280.058594 89.96875 280.613281 90.800781 C 281.167969 91.628906 281.679688 92.484375 282.152344 93.363281 C 282.621094 94.242188 283.050781 95.144531 283.433594 96.066406 C 283.8125 96.988281 284.152344 97.925781 284.441406 98.878906 C 284.730469 99.835938 284.972656 100.800781 285.167969 101.78125 C 285.367188 102.757812 285.511719 103.746094 285.613281 104.738281 C 285.710938 105.730469 285.761719 106.726562 285.761719 107.722656 L 285.761719 212.15625 C 285.761719 212.621094 285.714844 213.078125 285.625 213.53125 C 285.535156 213.984375 285.402344 214.421875 285.226562 214.851562 C 285.050781 215.277344 284.832031 215.683594 284.574219 216.066406 C 284.320312 216.449219 284.027344 216.804688 283.699219 217.132812 C 283.375 217.457031 283.019531 217.75 282.636719 218.007812 C 282.25 218.261719 281.84375 218.480469 281.417969 218.65625 C 280.992188 218.832031 280.550781 218.964844 280.097656 219.058594 C 279.644531 219.148438 279.1875 219.191406 278.726562 219.191406 Z M 96.273438 219.191406 " fill-opacity="1" fill-rule="nonzero"/></g><g clip-path="url(#caedf99db0)"><path fill="#1c385f" d="M 278.726562 219.894531 L 96.273438 219.894531 C 95.765625 219.894531 95.261719 219.847656 94.761719 219.746094 C 94.265625 219.648438 93.78125 219.5 93.3125 219.304688 C 92.84375 219.113281 92.394531 218.875 91.972656 218.589844 C 91.550781 218.308594 91.160156 217.988281 90.800781 217.628906 C 90.441406 217.269531 90.121094 216.878906 89.839844 216.457031 C 89.558594 216.035156 89.320312 215.589844 89.125 215.117188 C 88.929688 214.648438 88.78125 214.164062 88.683594 213.667969 C 88.585938 213.167969 88.535156 212.664062 88.535156 212.15625 L 88.535156 107.722656 C 88.535156 106.703125 88.585938 105.683594 88.6875 104.667969 C 88.789062 103.652344 88.941406 102.644531 89.140625 101.644531 C 89.339844 100.640625 89.589844 99.652344 89.886719 98.675781 C 90.183594 97.699219 90.527344 96.742188 90.917969 95.796875 C 91.308594 94.855469 91.746094 93.933594 92.226562 93.03125 C 92.707031 92.132812 93.234375 91.257812 93.800781 90.410156 C 94.367188 89.5625 94.976562 88.742188 95.625 87.953125 C 96.269531 87.164062 96.957031 86.410156 97.675781 85.6875 C 98.398438 84.964844 99.15625 84.28125 99.945312 83.632812 C 100.734375 82.984375 101.550781 82.378906 102.398438 81.808594 C 103.25 81.242188 104.125 80.71875 105.023438 80.238281 C 105.921875 79.753906 106.84375 79.320312 107.789062 78.925781 C 108.730469 78.535156 109.691406 78.191406 110.667969 77.894531 C 111.644531 77.597656 112.632812 77.347656 113.632812 77.148438 C 114.636719 76.949219 115.644531 76.800781 116.660156 76.699219 C 117.675781 76.597656 118.695312 76.546875 119.714844 76.542969 L 255.28125 76.542969 C 256.304688 76.546875 257.320312 76.597656 258.335938 76.699219 C 259.351562 76.796875 260.363281 76.949219 261.363281 77.148438 C 262.363281 77.347656 263.351562 77.597656 264.328125 77.894531 C 265.304688 78.191406 266.265625 78.535156 267.210938 78.925781 C 268.152344 79.316406 269.074219 79.753906 269.972656 80.234375 C 270.875 80.71875 271.75 81.242188 272.597656 81.808594 C 273.445312 82.375 274.265625 82.984375 275.054688 83.632812 C 275.84375 84.277344 276.597656 84.964844 277.320312 85.6875 C 278.042969 86.40625 278.726562 87.164062 279.375 87.953125 C 280.023438 88.742188 280.632812 89.558594 281.199219 90.410156 C 281.765625 91.257812 282.289062 92.132812 282.773438 93.03125 C 283.253906 93.933594 283.691406 94.855469 284.082031 95.796875 C 284.472656 96.738281 284.816406 97.699219 285.113281 98.675781 C 285.410156 99.652344 285.660156 100.640625 285.859375 101.644531 C 286.058594 102.644531 286.210938 103.652344 286.3125 104.667969 C 286.414062 105.683594 286.464844 106.703125 286.464844 107.722656 L 286.464844 212.15625 C 286.464844 212.664062 286.414062 213.167969 286.316406 213.667969 C 286.21875 214.164062 286.070312 214.648438 285.875 215.117188 C 285.679688 215.589844 285.441406 216.035156 285.160156 216.457031 C 284.878906 216.878906 284.558594 217.269531 284.199219 217.628906 C 283.839844 217.988281 283.449219 218.308594 283.027344 218.589844 C 282.601562 218.875 282.15625 219.113281 281.6875 219.304688 C 281.21875 219.5 280.734375 219.648438 280.238281 219.746094 C 279.738281 219.847656 279.234375 219.894531 278.726562 219.894531 Z M 119.714844 77.953125 C 118.738281 77.953125 117.765625 78 116.796875 78.097656 C 115.828125 78.195312 114.863281 78.339844 113.910156 78.527344 C 112.953125 78.71875 112.007812 78.957031 111.074219 79.242188 C 110.144531 79.523438 109.226562 79.851562 108.328125 80.226562 C 107.425781 80.601562 106.546875 81.015625 105.6875 81.476562 C 104.828125 81.9375 103.992188 82.4375 103.183594 82.980469 C 102.371094 83.519531 101.589844 84.101562 100.835938 84.71875 C 100.082031 85.339844 99.363281 85.992188 98.671875 86.683594 C 97.984375 87.371094 97.328125 88.09375 96.710938 88.847656 C 96.09375 89.597656 95.511719 90.382812 94.96875 91.191406 C 94.429688 92 93.925781 92.835938 93.46875 93.695312 C 93.007812 94.554688 92.589844 95.433594 92.21875 96.335938 C 91.84375 97.234375 91.515625 98.152344 91.230469 99.085938 C 90.949219 100.019531 90.710938 100.960938 90.519531 101.917969 C 90.328125 102.875 90.183594 103.835938 90.089844 104.808594 C 89.992188 105.777344 89.941406 106.75 89.941406 107.722656 L 89.941406 212.15625 C 89.941406 212.574219 89.984375 212.984375 90.0625 213.394531 C 90.144531 213.800781 90.265625 214.195312 90.421875 214.582031 C 90.582031 214.964844 90.777344 215.328125 91.007812 215.675781 C 91.238281 216.019531 91.503906 216.339844 91.796875 216.632812 C 92.089844 216.929688 92.410156 217.191406 92.753906 217.421875 C 93.101562 217.652344 93.464844 217.847656 93.851562 218.007812 C 94.234375 218.164062 94.628906 218.285156 95.039062 218.367188 C 95.445312 218.449219 95.855469 218.488281 96.273438 218.488281 L 278.726562 218.488281 C 279.144531 218.488281 279.554688 218.449219 279.960938 218.367188 C 280.371094 218.285156 280.765625 218.164062 281.148438 218.007812 C 281.535156 217.847656 281.898438 217.652344 282.246094 217.421875 C 282.589844 217.191406 282.910156 216.929688 283.203125 216.632812 C 283.496094 216.339844 283.761719 216.019531 283.992188 215.675781 C 284.222656 215.328125 284.417969 214.964844 284.574219 214.582031 C 284.734375 214.195312 284.855469 213.800781 284.9375 213.394531 C 285.015625 212.984375 285.058594 212.574219 285.058594 212.15625 L 285.058594 107.722656 C 285.054688 106.75 285.007812 105.777344 284.910156 104.804688 C 284.8125 103.835938 284.671875 102.875 284.480469 101.917969 C 284.289062 100.960938 284.050781 100.019531 283.765625 99.085938 C 283.484375 98.152344 283.15625 97.234375 282.78125 96.335938 C 282.40625 95.433594 281.992188 94.554688 281.53125 93.695312 C 281.070312 92.835938 280.570312 92 280.027344 91.191406 C 279.484375 90.378906 278.90625 89.597656 278.285156 88.84375 C 277.667969 88.09375 277.015625 87.371094 276.324219 86.679688 C 275.636719 85.992188 274.914062 85.339844 274.160156 84.71875 C 273.40625 84.101562 272.625 83.519531 271.816406 82.980469 C 271.003906 82.4375 270.167969 81.9375 269.308594 81.476562 C 268.449219 81.015625 267.570312 80.601562 266.671875 80.226562 C 265.769531 79.851562 264.851562 79.523438 263.921875 79.242188 C 262.988281 78.957031 262.042969 78.71875 261.089844 78.527344 C 260.132812 78.339844 259.167969 78.195312 258.199219 78.097656 C 257.230469 78 256.257812 77.953125 255.28125 77.953125 Z M 119.714844 77.953125 " fill-opacity="1" fill-rule="nonzero"/></g><path fill="#416c95" d="M 119.714844 84.28125 L 255.285156 84.28125 C 256.054688 84.28125 256.820312 84.320312 257.582031 84.394531 C 258.347656 84.46875 259.105469 84.582031 259.859375 84.734375 C 260.613281 84.882812 261.355469 85.070312 262.089844 85.292969 C 262.824219 85.515625 263.546875 85.773438 264.257812 86.066406 C 264.964844 86.359375 265.660156 86.6875 266.335938 87.050781 C 267.011719 87.410156 267.671875 87.804688 268.308594 88.234375 C 268.945312 88.660156 269.5625 89.117188 270.15625 89.601562 C 270.75 90.089844 271.316406 90.605469 271.859375 91.148438 C 272.402344 91.691406 272.917969 92.257812 273.40625 92.851562 C 273.894531 93.445312 274.351562 94.0625 274.777344 94.699219 C 275.203125 95.339844 275.597656 95.996094 275.960938 96.671875 C 276.320312 97.351562 276.648438 98.042969 276.941406 98.753906 C 277.238281 99.460938 277.496094 100.183594 277.71875 100.917969 C 277.941406 101.652344 278.125 102.398438 278.277344 103.152344 C 278.425781 103.902344 278.539062 104.660156 278.613281 105.425781 C 278.6875 106.191406 278.726562 106.957031 278.726562 107.722656 L 278.726562 212.15625 L 96.273438 212.15625 L 96.273438 107.722656 C 96.273438 106.957031 96.308594 106.191406 96.386719 105.425781 C 96.460938 104.660156 96.574219 103.902344 96.722656 103.152344 C 96.871094 102.398438 97.058594 101.652344 97.28125 100.917969 C 97.503906 100.183594 97.761719 99.460938 98.058594 98.753906 C 98.351562 98.042969 98.679688 97.351562 99.039062 96.671875 C 99.402344 95.996094 99.796875 95.339844 100.222656 94.699219 C 100.648438 94.0625 101.105469 93.445312 101.59375 92.851562 C 102.082031 92.257812 102.597656 91.691406 103.136719 91.148438 C 103.679688 90.605469 104.25 90.089844 104.84375 89.601562 C 105.4375 89.117188 106.050781 88.660156 106.691406 88.234375 C 107.328125 87.804688 107.988281 87.410156 108.664062 87.050781 C 109.339844 86.6875 110.035156 86.359375 110.742188 86.066406 C 111.453125 85.773438 112.175781 85.515625 112.910156 85.292969 C 113.644531 85.070312 114.386719 84.882812 115.140625 84.734375 C 115.894531 84.582031 116.652344 84.46875 117.417969 84.394531 C 118.179688 84.320312 118.945312 84.28125 119.714844 84.28125 Z M 119.714844 84.28125 " fill-opacity="1" fill-rule="nonzero"/><path fill="#1c385f" d="M 278.726562 212.859375 L 96.273438 212.859375 C 96.078125 212.859375 95.914062 212.792969 95.773438 212.65625 C 95.636719 212.519531 95.570312 212.351562 95.570312 212.15625 L 95.570312 107.722656 C 95.570312 106.933594 95.609375 106.144531 95.6875 105.359375 C 95.765625 104.570312 95.882812 103.789062 96.039062 103.015625 C 96.191406 102.238281 96.386719 101.472656 96.617188 100.71875 C 96.84375 99.960938 97.113281 99.21875 97.414062 98.488281 C 97.71875 97.757812 98.054688 97.042969 98.429688 96.347656 C 98.800781 95.652344 99.207031 94.972656 99.648438 94.316406 C 100.085938 93.660156 100.558594 93.023438 101.058594 92.414062 C 101.558594 91.804688 102.089844 91.21875 102.648438 90.660156 C 103.207031 90.101562 103.792969 89.570312 104.40625 89.066406 C 105.015625 88.566406 105.648438 88.097656 106.308594 87.65625 C 106.964844 87.21875 107.640625 86.8125 108.339844 86.4375 C 109.035156 86.066406 109.75 85.726562 110.480469 85.425781 C 111.210938 85.121094 111.953125 84.855469 112.707031 84.625 C 113.464844 84.394531 114.230469 84.203125 115.003906 84.046875 C 115.78125 83.890625 116.5625 83.777344 117.347656 83.699219 C 118.136719 83.621094 118.925781 83.578125 119.714844 83.578125 L 255.28125 83.578125 C 256.074219 83.578125 256.859375 83.617188 257.648438 83.695312 C 258.433594 83.777344 259.214844 83.890625 259.992188 84.046875 C 260.765625 84.203125 261.53125 84.394531 262.289062 84.625 C 263.042969 84.855469 263.789062 85.121094 264.519531 85.421875 C 265.25 85.726562 265.960938 86.0625 266.660156 86.4375 C 267.355469 86.808594 268.035156 87.214844 268.691406 87.65625 C 269.347656 88.09375 269.984375 88.566406 270.59375 89.066406 C 271.203125 89.566406 271.789062 90.097656 272.347656 90.65625 C 272.90625 91.214844 273.4375 91.800781 273.941406 92.414062 C 274.441406 93.023438 274.914062 93.65625 275.351562 94.316406 C 275.792969 94.972656 276.199219 95.648438 276.570312 96.347656 C 276.945312 97.042969 277.28125 97.757812 277.585938 98.488281 C 277.886719 99.21875 278.152344 99.960938 278.382812 100.71875 C 278.613281 101.472656 278.808594 102.238281 278.960938 103.015625 C 279.117188 103.789062 279.234375 104.570312 279.3125 105.359375 C 279.390625 106.144531 279.429688 106.933594 279.429688 107.722656 L 279.429688 212.15625 C 279.429688 212.351562 279.363281 212.519531 279.222656 212.65625 C 279.085938 212.792969 278.921875 212.859375 278.726562 212.859375 Z M 96.976562 211.453125 L 278.023438 211.453125 L 278.023438 107.722656 C 278.023438 106.980469 277.984375 106.238281 277.910156 105.496094 C 277.839844 104.753906 277.726562 104.019531 277.582031 103.289062 C 277.4375 102.558594 277.253906 101.835938 277.039062 101.125 C 276.820312 100.414062 276.570312 99.714844 276.285156 99.023438 C 276 98.335938 275.683594 97.664062 275.332031 97.007812 C 274.980469 96.351562 274.597656 95.714844 274.183594 95.097656 C 273.769531 94.476562 273.328125 93.878906 272.855469 93.304688 C 272.382812 92.730469 271.882812 92.179688 271.355469 91.652344 C 270.828125 91.125 270.277344 90.625 269.703125 90.152344 C 269.125 89.679688 268.53125 89.238281 267.910156 88.824219 C 267.292969 88.410156 266.652344 88.027344 265.996094 87.675781 C 265.339844 87.324219 264.667969 87.007812 263.980469 86.722656 C 263.292969 86.4375 262.59375 86.1875 261.878906 85.96875 C 261.167969 85.753906 260.445312 85.570312 259.714844 85.425781 C 258.988281 85.28125 258.25 85.171875 257.511719 85.097656 C 256.769531 85.023438 256.027344 84.984375 255.28125 84.984375 L 119.714844 84.984375 C 118.96875 84.988281 118.226562 85.023438 117.488281 85.097656 C 116.746094 85.171875 116.011719 85.28125 115.28125 85.425781 C 114.550781 85.574219 113.828125 85.753906 113.117188 85.96875 C 112.402344 86.1875 111.703125 86.4375 111.015625 86.722656 C 110.328125 87.007812 109.65625 87.328125 109 87.675781 C 108.34375 88.027344 107.707031 88.410156 107.085938 88.824219 C 106.46875 89.238281 105.871094 89.683594 105.296875 90.15625 C 104.71875 90.625 104.167969 91.125 103.644531 91.652344 C 103.117188 92.179688 102.617188 92.730469 102.144531 93.304688 C 101.671875 93.882812 101.230469 94.476562 100.816406 95.097656 C 100.402344 95.714844 100.019531 96.351562 99.667969 97.011719 C 99.316406 97.667969 99 98.339844 98.714844 99.027344 C 98.429688 99.714844 98.175781 100.414062 97.960938 101.125 C 97.746094 101.839844 97.5625 102.558594 97.417969 103.289062 C 97.269531 104.019531 97.160156 104.753906 97.085938 105.496094 C 97.015625 106.238281 96.976562 106.980469 96.976562 107.722656 Z M 96.976562 211.453125 " fill-opacity="1" fill-rule="nonzero"/><g clip-path="url(#277a5d54bd)"><path fill="#f2e9df" d="M 194.488281 298.363281 C 193.746094 298.363281 193.003906 298.300781 192.273438 298.167969 C 192.117188 298.148438 191.964844 298.121094 191.8125 298.082031 L 191.753906 298.082031 L 191.363281 297.992188 L 190.976562 297.878906 L 177.015625 294.300781 C 172.945312 293.253906 169.617188 290.214844 167.546875 285.761719 L 158.523438 288.007812 C 157.730469 288.207031 156.921875 288.304688 156.101562 288.304688 C 155.597656 288.304688 155.097656 288.265625 154.601562 288.191406 L 134.507812 285.167969 C 131.246094 288.539062 127.40625 290.386719 123.480469 290.386719 C 123.019531 290.386719 122.5625 290.363281 122.105469 290.308594 L 107.753906 288.71875 C 107.617188 288.71875 107.476562 288.71875 107.339844 288.6875 L 106.953125 288.628906 L 106.898438 288.628906 C 106.742188 288.613281 106.589844 288.585938 106.4375 288.550781 C 101.910156 287.707031 98.015625 284.386719 95.5 279.296875 L 87.589844 278.109375 C 86.671875 277.972656 85.789062 277.714844 84.945312 277.332031 C 84.097656 276.953125 83.320312 276.460938 82.609375 275.863281 C 81.898438 275.265625 81.28125 274.582031 80.761719 273.8125 C 80.242188 273.042969 79.835938 272.21875 79.542969 271.335938 L 74.792969 257.09375 C 74.085938 256.820312 73.40625 256.496094 72.746094 256.121094 C 72.089844 255.746094 71.464844 255.324219 70.871094 254.855469 C 70.277344 254.382812 69.71875 253.871094 69.203125 253.320312 C 68.6875 252.765625 68.210938 252.179688 67.785156 251.554688 C 67.355469 250.929688 66.972656 250.277344 66.644531 249.59375 C 66.3125 248.914062 66.035156 248.210938 65.808594 247.488281 C 65.582031 246.765625 65.410156 246.027344 65.296875 245.28125 C 65.179688 244.53125 65.121094 243.777344 65.121094 243.019531 C 65.117188 241.820312 65.253906 240.640625 65.535156 239.472656 C 65.816406 238.308594 66.230469 237.191406 66.777344 236.125 C 67.324219 235.058594 67.992188 234.074219 68.777344 233.167969 C 69.5625 232.261719 70.445312 231.464844 71.421875 230.769531 C 71.582031 229.683594 71.910156 228.644531 72.410156 227.664062 L 95.808594 181.675781 C 96.429688 180.464844 97.257812 179.425781 98.296875 178.550781 C 99.335938 177.671875 100.503906 177.035156 101.796875 176.628906 C 102.042969 176.546875 102.203125 176.386719 102.285156 176.144531 L 104.683594 168.765625 C 104.996094 167.800781 105.441406 166.902344 106.023438 166.070312 C 106.609375 165.242188 107.300781 164.515625 108.105469 163.898438 C 108.90625 163.277344 109.785156 162.792969 110.738281 162.441406 C 111.6875 162.085938 112.667969 161.886719 113.683594 161.832031 L 184.140625 158.378906 C 184.308594 158.378906 184.492188 158.378906 184.675781 158.378906 C 186.089844 158.382812 187.445312 158.667969 188.738281 159.242188 C 190.03125 159.8125 191.15625 160.621094 192.109375 161.664062 L 195.761719 165.675781 C 195.90625 165.835938 196.082031 165.917969 196.296875 165.921875 L 281.203125 164.066406 L 281.40625 164.066406 C 282.382812 164.066406 283.335938 164.207031 284.273438 164.484375 C 285.207031 164.761719 286.082031 165.167969 286.902344 165.703125 C 287.71875 166.234375 288.441406 166.875 289.074219 167.617188 C 289.703125 168.363281 290.21875 169.179688 290.609375 170.074219 L 308.765625 211.300781 C 309.632812 213.261719 309.847656 215.292969 309.410156 217.394531 L 303.496094 245.992188 C 303.300781 246.917969 302.980469 247.800781 302.539062 248.636719 C 302.09375 249.476562 301.546875 250.238281 300.890625 250.917969 C 300.234375 251.601562 299.496094 252.183594 298.675781 252.660156 C 297.859375 253.136719 296.988281 253.488281 296.070312 253.722656 L 288.082031 255.707031 C 285.523438 264.691406 279.269531 270.898438 272.667969 270.898438 C 272.078125 270.898438 271.492188 270.847656 270.910156 270.746094 C 270.765625 270.726562 270.617188 270.695312 270.472656 270.660156 L 270.148438 270.585938 L 269.847656 270.5 L 259.875 267.945312 C 258.742188 267.644531 257.6875 267.167969 256.714844 266.519531 C 255.738281 265.875 254.890625 265.085938 254.171875 264.160156 L 215.554688 273.773438 C 215.367188 274.917969 215.128906 276.066406 214.835938 277.195312 C 211.6875 289.464844 203.132812 298.363281 194.488281 298.363281 Z M 194.488281 298.363281 " fill-opacity="1" fill-rule="nonzero"/></g><path fill="#3f120f" d="M 127.359375 242.550781 C 127.804688 242.601562 128.246094 242.6875 128.683594 242.804688 C 129.121094 242.925781 129.546875 243.078125 129.972656 243.265625 C 130.394531 243.457031 130.804688 243.675781 131.210938 243.933594 C 131.613281 244.1875 132.007812 244.476562 132.390625 244.796875 C 132.773438 245.117188 133.140625 245.46875 133.496094 245.851562 C 133.855469 246.234375 134.195312 246.644531 134.523438 247.085938 C 134.851562 247.527344 135.160156 247.992188 135.457031 248.488281 C 135.75 248.980469 136.027344 249.5 136.289062 250.042969 C 136.546875 250.585938 136.789062 251.152344 137.011719 251.738281 C 137.234375 252.324219 137.433594 252.929688 137.617188 253.554688 C 137.800781 254.179688 137.960938 254.824219 138.101562 255.480469 C 138.242188 256.136719 138.363281 256.808594 138.460938 257.492188 C 138.558594 258.171875 138.632812 258.867188 138.6875 259.566406 C 138.742188 260.269531 138.773438 260.980469 138.78125 261.695312 C 138.792969 262.410156 138.78125 263.125 138.746094 263.847656 C 138.710938 264.566406 138.652344 265.285156 138.574219 266.003906 C 138.496094 266.722656 138.394531 267.4375 138.269531 268.148438 C 138.148438 268.859375 138.003906 269.5625 137.839844 270.257812 C 137.675781 270.953125 137.492188 271.640625 137.285156 272.3125 C 137.082031 272.988281 136.855469 273.644531 136.613281 274.292969 C 136.367188 274.9375 136.105469 275.566406 135.828125 276.175781 C 135.546875 276.785156 135.25 277.378906 134.9375 277.949219 C 134.621094 278.519531 134.292969 279.066406 133.949219 279.589844 C 133.605469 280.113281 133.246094 280.613281 132.875 281.085938 C 132.503906 281.5625 132.121094 282.007812 131.726562 282.425781 C 131.332031 282.84375 130.925781 283.230469 130.511719 283.589844 C 130.09375 283.949219 129.671875 284.277344 129.242188 284.570312 C 128.8125 284.867188 128.375 285.128906 127.929688 285.359375 C 127.488281 285.589844 127.042969 285.785156 126.59375 285.945312 C 126.140625 286.109375 125.691406 286.234375 125.238281 286.328125 C 124.785156 286.417969 124.332031 286.476562 123.878906 286.496094 C 123.425781 286.519531 122.980469 286.503906 122.53125 286.457031 C 122.085938 286.40625 121.644531 286.320312 121.207031 286.203125 C 120.773438 286.082031 120.34375 285.929688 119.917969 285.742188 C 119.496094 285.550781 119.085938 285.332031 118.679688 285.074219 C 118.277344 284.820312 117.882812 284.53125 117.5 284.210938 C 117.117188 283.890625 116.75 283.539062 116.394531 283.15625 C 116.035156 282.773438 115.695312 282.363281 115.367188 281.921875 C 115.039062 281.480469 114.730469 281.015625 114.433594 280.519531 C 114.140625 280.027344 113.863281 279.507812 113.601562 278.964844 C 113.34375 278.421875 113.101562 277.855469 112.878906 277.269531 C 112.65625 276.683594 112.457031 276.078125 112.273438 275.449219 C 112.089844 274.824219 111.929688 274.183594 111.789062 273.527344 C 111.648438 272.871094 111.527344 272.199219 111.429688 271.515625 C 111.332031 270.835938 111.257812 270.140625 111.203125 269.4375 C 111.148438 268.738281 111.117188 268.027344 111.109375 267.3125 C 111.097656 266.597656 111.113281 265.882812 111.144531 265.160156 C 111.179688 264.441406 111.238281 263.722656 111.316406 263.003906 C 111.394531 262.285156 111.496094 261.570312 111.621094 260.859375 C 111.742188 260.148438 111.886719 259.445312 112.050781 258.75 C 112.214844 258.054688 112.398438 257.367188 112.605469 256.695312 C 112.808594 256.019531 113.035156 255.363281 113.277344 254.714844 C 113.523438 254.070312 113.785156 253.441406 114.0625 252.832031 C 114.34375 252.222656 114.640625 251.628906 114.953125 251.058594 C 115.269531 250.488281 115.597656 249.941406 115.941406 249.417969 C 116.285156 248.894531 116.644531 248.394531 117.015625 247.921875 C 117.386719 247.445312 117.769531 247 118.164062 246.582031 C 118.558594 246.164062 118.964844 245.777344 119.378906 245.417969 C 119.796875 245.058594 120.21875 244.730469 120.648438 244.4375 C 121.082031 244.140625 121.515625 243.878906 121.960938 243.648438 C 122.402344 243.417969 122.847656 243.222656 123.296875 243.0625 C 123.75 242.898438 124.199219 242.773438 124.652344 242.679688 C 125.105469 242.589844 125.558594 242.53125 126.011719 242.511719 C 126.464844 242.488281 126.914062 242.503906 127.359375 242.550781 Z M 127.359375 242.550781 " fill-opacity="1" fill-rule="nonzero"/><path fill="#3f120f" d="M 112.609375 240.929688 C 113.058594 240.980469 113.5 241.0625 113.933594 241.183594 C 114.371094 241.304688 114.800781 241.457031 115.222656 241.644531 C 115.644531 241.835938 116.058594 242.054688 116.464844 242.3125 C 116.867188 242.566406 117.261719 242.855469 117.640625 243.175781 C 118.023438 243.496094 118.394531 243.847656 118.75 244.230469 C 119.105469 244.613281 119.449219 245.023438 119.777344 245.464844 C 120.101562 245.90625 120.414062 246.371094 120.707031 246.867188 C 121.003906 247.359375 121.28125 247.878906 121.539062 248.421875 C 121.800781 248.964844 122.042969 249.53125 122.261719 250.117188 C 122.484375 250.703125 122.6875 251.308594 122.871094 251.933594 C 123.050781 252.558594 123.214844 253.203125 123.355469 253.859375 C 123.496094 254.515625 123.613281 255.1875 123.710938 255.867188 C 123.808594 256.550781 123.886719 257.246094 123.941406 257.945312 C 123.992188 258.648438 124.023438 259.359375 124.035156 260.074219 C 124.042969 260.789062 124.03125 261.503906 123.996094 262.226562 C 123.960938 262.945312 123.90625 263.664062 123.824219 264.382812 C 123.746094 265.101562 123.644531 265.816406 123.523438 266.527344 C 123.402344 267.238281 123.257812 267.941406 123.09375 268.636719 C 122.929688 269.332031 122.742188 270.019531 122.539062 270.691406 C 122.332031 271.363281 122.109375 272.023438 121.863281 272.671875 C 121.621094 273.316406 121.359375 273.945312 121.078125 274.554688 C 120.800781 275.164062 120.503906 275.757812 120.1875 276.328125 C 119.875 276.898438 119.546875 277.445312 119.203125 277.96875 C 118.855469 278.492188 118.5 278.992188 118.128906 279.464844 C 117.757812 279.941406 117.371094 280.386719 116.976562 280.804688 C 116.582031 281.222656 116.175781 281.609375 115.761719 281.96875 C 115.347656 282.328125 114.925781 282.652344 114.492188 282.949219 C 114.0625 283.246094 113.625 283.507812 113.183594 283.738281 C 112.742188 283.96875 112.292969 284.164062 111.84375 284.324219 C 111.394531 284.484375 110.941406 284.613281 110.488281 284.707031 C 110.035156 284.796875 109.582031 284.855469 109.132812 284.875 C 108.679688 284.898438 108.230469 284.882812 107.785156 284.835938 C 107.339844 284.785156 106.898438 284.699219 106.460938 284.582031 C 106.023438 284.460938 105.59375 284.308594 105.171875 284.121094 C 104.75 283.929688 104.335938 283.707031 103.933594 283.453125 C 103.527344 283.195312 103.136719 282.910156 102.753906 282.589844 C 102.371094 282.269531 102 281.917969 101.644531 281.535156 C 101.289062 281.152344 100.945312 280.742188 100.621094 280.300781 C 100.292969 279.859375 99.980469 279.394531 99.6875 278.898438 C 99.390625 278.40625 99.113281 277.886719 98.855469 277.34375 C 98.59375 276.800781 98.355469 276.234375 98.132812 275.648438 C 97.910156 275.0625 97.707031 274.453125 97.527344 273.828125 C 97.34375 273.203125 97.183594 272.5625 97.042969 271.90625 C 96.898438 271.25 96.78125 270.578125 96.683594 269.894531 C 96.585938 269.210938 96.507812 268.519531 96.457031 267.816406 C 96.402344 267.117188 96.371094 266.40625 96.359375 265.691406 C 96.351562 264.976562 96.363281 264.261719 96.398438 263.539062 C 96.433594 262.820312 96.492188 262.101562 96.570312 261.382812 C 96.648438 260.664062 96.75 259.949219 96.871094 259.238281 C 96.992188 258.527344 97.136719 257.824219 97.300781 257.128906 C 97.464844 256.433594 97.652344 255.746094 97.855469 255.074219 C 98.0625 254.398438 98.285156 253.742188 98.53125 253.09375 C 98.773438 252.449219 99.035156 251.820312 99.316406 251.210938 C 99.597656 250.601562 99.894531 250.007812 100.207031 249.4375 C 100.519531 248.867188 100.847656 248.320312 101.195312 247.796875 C 101.539062 247.269531 101.894531 246.773438 102.265625 246.296875 C 102.640625 245.824219 103.023438 245.378906 103.417969 244.960938 C 103.8125 244.542969 104.21875 244.15625 104.632812 243.796875 C 105.046875 243.4375 105.46875 243.109375 105.902344 242.816406 C 106.332031 242.519531 106.769531 242.257812 107.210938 242.027344 C 107.65625 241.796875 108.101562 241.601562 108.550781 241.441406 C 109 241.277344 109.453125 241.152344 109.90625 241.058594 C 110.359375 240.96875 110.8125 240.910156 111.261719 240.890625 C 111.714844 240.867188 112.164062 240.882812 112.609375 240.929688 Z M 112.609375 240.929688 " fill-opacity="1" fill-rule="nonzero"/><path fill="#3f120f" d="M 122.527344 286.441406 L 107.308594 284.753906 L 110.253906 271.785156 L 123.851562 278.980469 Z M 122.527344 286.441406 " fill-opacity="1" fill-rule="nonzero"/><path fill="#3f120f" d="M 268.675781 233.578125 C 269.296875 233.738281 269.890625 233.996094 270.453125 234.347656 C 271.015625 234.699219 271.535156 235.144531 272.011719 235.675781 C 272.488281 236.210938 272.914062 236.820312 273.292969 237.511719 C 273.667969 238.203125 273.984375 238.960938 274.242188 239.785156 C 274.503906 240.609375 274.699219 241.484375 274.832031 242.410156 C 274.960938 243.332031 275.027344 244.292969 275.03125 245.28125 C 275.03125 246.269531 274.964844 247.273438 274.835938 248.292969 C 274.703125 249.308594 274.507812 250.320312 274.25 251.324219 C 273.996094 252.328125 273.679688 253.308594 273.304688 254.261719 C 272.929688 255.21875 272.503906 256.128906 272.027344 256.996094 C 271.550781 257.863281 271.03125 258.671875 270.472656 259.417969 C 269.910156 260.164062 269.320312 260.835938 268.695312 261.433594 C 268.070312 262.03125 267.429688 262.542969 266.765625 262.964844 C 266.105469 263.390625 265.4375 263.722656 264.761719 263.957031 C 264.085938 264.195312 263.417969 264.332031 262.757812 264.371094 C 262.09375 264.410156 261.453125 264.351562 260.828125 264.191406 C 260.203125 264.03125 259.613281 263.773438 259.050781 263.421875 C 258.488281 263.066406 257.96875 262.625 257.492188 262.089844 C 257.011719 261.558594 256.585938 260.945312 256.210938 260.253906 C 255.835938 259.5625 255.519531 258.804688 255.257812 257.980469 C 255 257.15625 254.804688 256.285156 254.671875 255.359375 C 254.539062 254.433594 254.472656 253.476562 254.472656 252.488281 C 254.472656 251.496094 254.535156 250.492188 254.667969 249.476562 C 254.796875 248.460938 254.992188 247.449219 255.25 246.445312 C 255.507812 245.4375 255.824219 244.457031 256.199219 243.503906 C 256.570312 242.550781 256.996094 241.640625 257.472656 240.773438 C 257.953125 239.90625 258.46875 239.097656 259.03125 238.351562 C 259.589844 237.605469 260.183594 236.933594 260.808594 236.335938 C 261.429688 235.738281 262.074219 235.226562 262.734375 234.800781 C 263.394531 234.375 264.066406 234.046875 264.738281 233.808594 C 265.414062 233.574219 266.082031 233.433594 266.746094 233.394531 C 267.40625 233.355469 268.050781 233.417969 268.675781 233.578125 Z M 268.675781 233.578125 " fill-opacity="1" fill-rule="nonzero"/><path fill="#3f120f" d="M 260.828125 264.1875 L 271.441406 266.90625 L 272.742188 257.484375 L 261.824219 258.859375 Z M 260.828125 264.1875 " fill-opacity="1" fill-rule="nonzero"/><path fill="#3f120f" d="M 188.902344 247.742188 C 189.335938 247.851562 189.761719 248 190.175781 248.179688 C 190.589844 248.359375 190.996094 248.570312 191.386719 248.816406 C 191.777344 249.0625 192.15625 249.339844 192.519531 249.652344 C 192.882812 249.960938 193.234375 250.304688 193.566406 250.675781 C 193.898438 251.046875 194.214844 251.445312 194.515625 251.875 C 194.8125 252.304688 195.09375 252.757812 195.355469 253.242188 C 195.617188 253.722656 195.859375 254.230469 196.082031 254.761719 C 196.304688 255.289062 196.503906 255.84375 196.6875 256.417969 C 196.867188 256.992188 197.027344 257.585938 197.164062 258.199219 C 197.300781 258.808594 197.414062 259.4375 197.507812 260.082031 C 197.597656 260.726562 197.667969 261.386719 197.714844 262.054688 C 197.761719 262.726562 197.785156 263.40625 197.785156 264.097656 C 197.785156 264.785156 197.765625 265.484375 197.71875 266.1875 C 197.671875 266.890625 197.605469 267.59375 197.511719 268.304688 C 197.421875 269.011719 197.308594 269.722656 197.171875 270.429688 C 197.035156 271.136719 196.878906 271.84375 196.699219 272.542969 C 196.519531 273.242188 196.320312 273.9375 196.097656 274.621094 C 195.875 275.308594 195.636719 275.984375 195.375 276.652344 C 195.113281 277.316406 194.832031 277.96875 194.535156 278.605469 C 194.238281 279.242188 193.921875 279.863281 193.589844 280.46875 C 193.257812 281.074219 192.910156 281.660156 192.546875 282.222656 C 192.183594 282.789062 191.804688 283.332031 191.414062 283.851562 C 191.023438 284.371094 190.621094 284.867188 190.207031 285.339844 C 189.792969 285.808594 189.367188 286.253906 188.933594 286.667969 C 188.496094 287.085938 188.054688 287.472656 187.605469 287.832031 C 187.15625 288.1875 186.699219 288.515625 186.238281 288.8125 C 185.777344 289.109375 185.3125 289.375 184.84375 289.605469 C 184.375 289.835938 183.90625 290.035156 183.4375 290.199219 C 182.964844 290.363281 182.496094 290.496094 182.027344 290.59375 C 181.558594 290.6875 181.09375 290.75 180.632812 290.777344 C 180.171875 290.804688 179.714844 290.796875 179.265625 290.753906 C 178.8125 290.710938 178.371094 290.636719 177.9375 290.523438 C 177.5 290.410156 177.074219 290.265625 176.660156 290.085938 C 176.246094 289.90625 175.84375 289.691406 175.449219 289.445312 C 175.058594 289.199219 174.679688 288.921875 174.316406 288.613281 C 173.953125 288.300781 173.605469 287.960938 173.269531 287.589844 C 172.9375 287.21875 172.621094 286.816406 172.324219 286.390625 C 172.023438 285.960938 171.742188 285.503906 171.480469 285.023438 C 171.21875 284.539062 170.976562 284.035156 170.753906 283.503906 C 170.535156 282.972656 170.332031 282.421875 170.152344 281.847656 C 169.96875 281.269531 169.8125 280.679688 169.675781 280.066406 C 169.539062 279.453125 169.421875 278.824219 169.332031 278.179688 C 169.238281 277.535156 169.167969 276.878906 169.121094 276.207031 C 169.074219 275.535156 169.050781 274.855469 169.050781 274.167969 C 169.050781 273.476562 169.074219 272.78125 169.117188 272.078125 C 169.164062 271.375 169.234375 270.667969 169.324219 269.960938 C 169.414062 269.25 169.527344 268.542969 169.664062 267.835938 C 169.800781 267.125 169.957031 266.421875 170.136719 265.722656 C 170.316406 265.019531 170.519531 264.328125 170.738281 263.640625 C 170.960938 262.953125 171.203125 262.277344 171.464844 261.613281 C 171.722656 260.949219 172.003906 260.296875 172.300781 259.660156 C 172.601562 259.019531 172.914062 258.398438 173.246094 257.792969 C 173.578125 257.191406 173.925781 256.605469 174.289062 256.039062 C 174.65625 255.476562 175.03125 254.933594 175.421875 254.410156 C 175.8125 253.890625 176.214844 253.394531 176.632812 252.925781 C 177.046875 252.453125 177.46875 252.011719 177.90625 251.59375 C 178.339844 251.175781 178.78125 250.789062 179.230469 250.433594 C 179.683594 250.074219 180.136719 249.746094 180.597656 249.449219 C 181.058594 249.152344 181.523438 248.890625 181.992188 248.660156 C 182.460938 248.425781 182.929688 248.226562 183.402344 248.0625 C 183.871094 247.898438 184.339844 247.769531 184.808594 247.671875 C 185.277344 247.574219 185.742188 247.511719 186.203125 247.484375 C 186.667969 247.460938 187.121094 247.464844 187.574219 247.507812 C 188.023438 247.550781 188.464844 247.628906 188.902344 247.742188 Z M 188.902344 247.742188 " fill-opacity="1" fill-rule="nonzero"/><path fill="#f7b917" d="M 88.269531 273.484375 L 155.257812 283.578125 C 155.96875 283.683594 156.671875 283.648438 157.367188 283.476562 L 294.949219 249.21875 C 295.445312 249.09375 295.910156 248.90625 296.351562 248.652344 C 296.792969 248.394531 297.1875 248.085938 297.542969 247.71875 C 297.894531 247.351562 298.191406 246.941406 298.425781 246.492188 C 298.664062 246.039062 298.835938 245.566406 298.9375 245.066406 L 304.851562 216.472656 C 305.085938 215.339844 304.972656 214.246094 304.507812 213.191406 L 286.351562 171.96875 C 286.136719 171.480469 285.855469 171.035156 285.511719 170.632812 C 285.164062 170.226562 284.765625 169.882812 284.316406 169.59375 C 283.871094 169.308594 283.390625 169.089844 282.875 168.945312 C 282.363281 168.800781 281.84375 168.734375 281.308594 168.742188 L 196.421875 170.578125 C 195.644531 170.589844 194.902344 170.445312 194.1875 170.136719 C 193.476562 169.828125 192.859375 169.390625 192.332031 168.816406 L 188.679688 164.800781 C 188.128906 164.199219 187.480469 163.742188 186.722656 163.433594 C 185.96875 163.125 185.183594 162.996094 184.371094 163.039062 L 113.941406 166.496094 C 113.398438 166.527344 112.871094 166.640625 112.363281 166.832031 C 111.855469 167.019531 111.382812 167.28125 110.953125 167.613281 C 110.523438 167.945312 110.148438 168.335938 109.835938 168.78125 C 109.519531 169.222656 109.277344 169.703125 109.109375 170.222656 L 106.710938 177.597656 C 106.441406 178.433594 105.992188 179.160156 105.367188 179.777344 C 104.746094 180.394531 104.011719 180.832031 103.175781 181.09375 C 102.476562 181.308594 101.847656 181.652344 101.292969 182.125 C 100.734375 182.597656 100.289062 183.160156 99.960938 183.8125 L 76.558594 229.792969 C 76.179688 230.542969 75.984375 231.34375 75.980469 232.183594 L 75.839844 244.539062 C 75.832031 245.144531 75.921875 245.738281 76.113281 246.3125 L 83.953125 269.84375 C 84.113281 270.316406 84.332031 270.757812 84.613281 271.171875 C 84.890625 271.582031 85.222656 271.949219 85.601562 272.269531 C 85.984375 272.589844 86.398438 272.855469 86.851562 273.058594 C 87.304688 273.265625 87.777344 273.40625 88.269531 273.484375 Z M 88.269531 273.484375 " fill-opacity="1" fill-rule="nonzero"/><path fill="#c03427" d="M 167.371094 241.820312 L 304.851562 216.460938 L 302.949219 225.660156 L 179.148438 250.027344 C 177.703125 250.300781 176.265625 250.253906 174.839844 249.886719 C 173.417969 249.519531 172.136719 248.867188 171.003906 247.933594 L 166.710938 244.390625 C 166.492188 244.210938 166.339844 243.984375 166.25 243.710938 C 166.164062 243.441406 166.15625 243.164062 166.230469 242.890625 C 166.300781 242.613281 166.441406 242.378906 166.652344 242.1875 C 166.863281 241.992188 167.105469 241.871094 167.386719 241.820312 Z M 167.371094 241.820312 " fill-opacity="1" fill-rule="nonzero"/><path fill="#3f120f" d="M 77.816406 227.320312 L 143.546875 232.628906 C 144.035156 232.671875 144.519531 232.625 144.992188 232.492188 C 145.464844 232.363281 145.902344 232.152344 146.304688 231.867188 C 146.703125 231.578125 147.042969 231.234375 147.320312 230.828125 C 147.597656 230.421875 147.796875 229.980469 147.917969 229.5 L 156.671875 194.945312 C 156.746094 194.644531 156.789062 194.339844 156.796875 194.027344 C 156.804688 193.71875 156.78125 193.410156 156.71875 193.105469 C 156.660156 192.800781 156.566406 192.507812 156.4375 192.222656 C 156.3125 191.9375 156.15625 191.671875 155.96875 191.421875 C 155.785156 191.175781 155.574219 190.949219 155.335938 190.746094 C 155.101562 190.546875 154.84375 190.375 154.570312 190.230469 C 154.296875 190.085938 154.007812 189.972656 153.707031 189.894531 C 153.40625 189.8125 153.101562 189.765625 152.792969 189.753906 L 97.867188 187.90625 Z M 77.816406 227.320312 " fill-opacity="1" fill-rule="nonzero"/><path fill="#3f120f" d="M 171.613281 200.539062 C 171.605469 200.3125 171.523438 200.117188 171.367188 199.957031 C 171.210938 199.792969 171.023438 199.699219 170.800781 199.679688 C 170.578125 199.65625 170.375 199.710938 170.191406 199.839844 C 170.007812 199.96875 169.886719 200.144531 169.835938 200.363281 L 162.5625 230.527344 C 162.523438 230.6875 162.503906 230.847656 162.507812 231.011719 C 162.507812 231.175781 162.53125 231.335938 162.574219 231.496094 C 162.613281 231.65625 162.675781 231.804688 162.753906 231.949219 C 162.835938 232.09375 162.929688 232.226562 163.042969 232.34375 C 163.15625 232.464844 163.28125 232.570312 163.417969 232.65625 C 163.554688 232.746094 163.703125 232.816406 163.859375 232.867188 C 164.011719 232.921875 164.171875 232.953125 164.335938 232.964844 C 164.5 232.976562 164.660156 232.96875 164.824219 232.941406 L 171.515625 231.777344 C 171.707031 231.742188 171.890625 231.675781 172.058594 231.578125 C 172.230469 231.476562 172.375 231.351562 172.5 231.199219 C 172.625 231.042969 172.714844 230.875 172.777344 230.6875 C 172.839844 230.5 172.863281 230.308594 172.855469 230.109375 Z M 171.613281 200.539062 " fill-opacity="1" fill-rule="nonzero"/><path fill="#3f120f" d="M 265.113281 215.496094 L 291.851562 210.875 C 292.011719 210.847656 292.167969 210.804688 292.316406 210.742188 C 292.464844 210.679688 292.605469 210.597656 292.738281 210.503906 C 292.867188 210.410156 292.988281 210.300781 293.09375 210.175781 C 293.203125 210.054688 293.292969 209.921875 293.367188 209.777344 C 293.445312 209.636719 293.503906 209.484375 293.546875 209.328125 C 293.589844 209.171875 293.613281 209.011719 293.617188 208.851562 C 293.625 208.6875 293.609375 208.527344 293.582031 208.367188 C 293.550781 208.207031 293.5 208.054688 293.433594 207.90625 L 282.542969 183.445312 C 282.363281 183.035156 282.078125 182.710938 281.691406 182.480469 C 281.308594 182.25 280.890625 182.152344 280.441406 182.1875 L 261.53125 183.5625 C 261.242188 183.582031 260.96875 183.660156 260.710938 183.792969 C 260.453125 183.925781 260.230469 184.101562 260.046875 184.324219 C 259.859375 184.546875 259.726562 184.796875 259.640625 185.074219 C 259.558594 185.351562 259.53125 185.636719 259.5625 185.921875 L 262.636719 213.644531 C 262.667969 213.9375 262.757812 214.210938 262.902344 214.464844 C 263.046875 214.722656 263.238281 214.9375 263.472656 215.113281 C 263.707031 215.292969 263.964844 215.414062 264.25 215.484375 C 264.535156 215.554688 264.824219 215.5625 265.113281 215.511719 Z M 265.113281 215.496094 " fill-opacity="1" fill-rule="nonzero"/><path fill="#3f120f" d="M 252.574219 184.195312 L 220.917969 186.496094 C 220.636719 186.519531 220.367188 186.59375 220.113281 186.71875 C 219.863281 186.84375 219.640625 187.011719 219.453125 187.226562 C 219.265625 187.4375 219.125 187.675781 219.03125 187.945312 C 218.9375 188.210938 218.898438 188.488281 218.914062 188.769531 L 220.464844 220.746094 C 220.480469 221.058594 220.558594 221.351562 220.699219 221.628906 C 220.839844 221.902344 221.03125 222.140625 221.273438 222.335938 C 221.515625 222.527344 221.785156 222.664062 222.085938 222.742188 C 222.386719 222.820312 222.691406 222.832031 222.996094 222.78125 L 256.265625 217.03125 C 256.539062 216.984375 256.792969 216.886719 257.027344 216.742188 C 257.265625 216.601562 257.464844 216.417969 257.632812 216.195312 C 257.796875 215.972656 257.917969 215.730469 257.988281 215.464844 C 258.0625 215.195312 258.082031 214.925781 258.050781 214.652344 L 254.894531 186.121094 C 254.863281 185.84375 254.78125 185.578125 254.648438 185.332031 C 254.511719 185.082031 254.339844 184.871094 254.121094 184.691406 C 253.90625 184.511719 253.664062 184.378906 253.394531 184.292969 C 253.128906 184.207031 252.855469 184.175781 252.574219 184.195312 Z M 252.574219 184.195312 " fill-opacity="1" fill-rule="nonzero"/><path fill="#3f120f" d="M 176.21875 227.152344 C 176.226562 227.382812 176.261719 227.609375 176.320312 227.832031 C 176.378906 228.054688 176.457031 228.269531 176.5625 228.472656 C 176.664062 228.679688 176.789062 228.871094 176.933594 229.050781 C 177.078125 229.230469 177.238281 229.390625 177.417969 229.535156 C 177.597656 229.679688 177.789062 229.804688 177.996094 229.910156 C 178.199219 230.011719 178.414062 230.09375 178.636719 230.152344 C 178.859375 230.210938 179.085938 230.242188 179.316406 230.253906 C 179.546875 230.261719 179.773438 230.246094 180 230.207031 L 213.445312 224.429688 C 213.789062 224.371094 214.109375 224.25 214.410156 224.074219 C 214.710938 223.894531 214.96875 223.671875 215.1875 223.398438 C 215.402344 223.125 215.566406 222.824219 215.675781 222.492188 C 215.785156 222.160156 215.828125 221.820312 215.8125 221.472656 L 214.289062 189.917969 C 214.273438 189.53125 214.179688 189.167969 214.011719 188.820312 C 213.847656 188.46875 213.617188 188.167969 213.332031 187.914062 C 213.042969 187.65625 212.714844 187.46875 212.351562 187.34375 C 211.984375 187.21875 211.609375 187.171875 211.226562 187.199219 L 177.785156 189.636719 C 177.367188 189.664062 176.96875 189.773438 176.589844 189.960938 C 176.214844 190.144531 175.882812 190.394531 175.605469 190.710938 C 175.324219 191.023438 175.113281 191.378906 174.972656 191.777344 C 174.832031 192.171875 174.769531 192.582031 174.789062 193 Z M 176.21875 227.152344 " fill-opacity="1" fill-rule="nonzero"/><path fill="#3f120f" d="M 177.9375 290.523438 L 192.773438 294.320312 L 194.589844 281.148438 L 179.332031 283.070312 Z M 177.9375 290.523438 " fill-opacity="1" fill-rule="nonzero"/><path stroke-linecap="round" transform="matrix(0.387849, 0, 0, 0.388258, 65.119299, 158.38036)" fill="none" stroke-linejoin="round" d="M 59.688782 296.462778 L 232.406221 322.460317 C 234.239248 322.731963 236.052131 322.641414 237.844871 322.198732 L 592.575813 233.964049 C 593.854903 233.642098 595.053421 233.159172 596.191509 232.505209 C 597.329597 231.841185 598.346826 231.046369 599.263339 230.100638 C 600.169781 229.154907 600.935221 228.098505 601.539515 226.941494 C 602.153881 225.774422 602.59703 224.557045 602.858891 223.269241 L 618.107256 149.622961 C 618.71155 146.70528 618.419475 143.888209 617.220957 141.171748 L 570.408277 34.998361 C 569.85434 33.74074 569.129187 32.59379 568.242888 31.55751 C 567.346518 30.511169 566.319217 29.625804 565.160986 28.881293 C 564.012827 28.146842 562.774023 27.583428 561.444575 27.211172 C 560.125199 26.838916 558.785679 26.66788 557.405874 26.688002 L 338.540478 31.416656 C 336.536234 31.446839 334.622635 31.074584 332.779537 30.279767 C 330.94651 29.484951 329.355202 28.358122 327.995539 26.87916 L 318.578616 16.536486 C 317.158524 14.987097 315.486643 13.809964 313.532757 13.015147 C 311.588943 12.220331 309.564557 11.888319 307.469669 11.99899 L 125.879172 20.902946 C 124.479223 20.983433 123.119561 21.275201 121.810256 21.768189 C 120.500951 22.251115 119.282291 22.9252 118.174418 23.780382 C 117.066544 24.635564 116.099673 25.641661 115.293947 26.788611 C 114.47815 27.925501 113.853712 29.163 113.420634 30.501108 L 107.236687 49.496215 C 106.541748 51.649262 105.383517 53.520601 103.772065 55.110234 C 102.170685 56.699867 100.277229 57.826695 98.121912 58.50078 C 96.3191 59.054133 94.697576 59.939499 93.267413 61.156876 C 91.827177 62.374253 90.679018 63.823032 89.833006 65.503213 L 29.4942 183.930859 C 28.517257 185.862565 28.013678 187.925063 28.003607 190.088171 L 27.64103 221.91101 C 27.620887 223.47046 27.852533 224.999727 28.34604 226.478689 L 48.559691 287.085956 C 48.972626 288.303333 49.536634 289.440222 50.261788 290.506685 C 50.976869 291.563087 51.832953 292.508817 52.809896 293.333817 C 53.79691 294.158816 54.864497 294.842962 56.0328 295.366132 C 57.201103 295.899363 58.419763 296.261558 59.688782 296.462778 Z M 59.688782 296.462778 " stroke="#3f120f" stroke-width="4" stroke-opacity="1" stroke-miterlimit="4"/><path stroke-linecap="round" transform="matrix(0.387849, 0, 0, 0.388258, 65.119299, 158.38036)" fill-opacity="1" fill="#f2e9df" fill-rule="nonzero" stroke-linejoin="round" d="M 65.520224 218.037538 C 65.520224 219.798207 65.349007 221.538754 65.006573 223.25918 C 64.66414 224.979605 64.150489 226.659787 63.485765 228.279603 C 62.81097 229.899418 61.985101 231.448807 61.008158 232.907647 C 60.031215 234.366488 58.923342 235.724718 57.684538 236.962217 C 56.435663 238.199716 55.086072 239.316484 53.625694 240.292397 C 52.165315 241.268311 50.624364 242.093311 49.002841 242.767395 C 47.381317 243.431419 45.699364 243.944529 43.977125 244.286601 C 42.254885 244.628674 40.512503 244.799711 38.760049 244.799711 C 37.007595 244.799711 35.265212 244.628674 33.542973 244.286601 C 31.820734 243.944529 30.138781 243.431419 28.517257 242.767395 C 26.895734 242.093311 25.354783 241.268311 23.894404 240.292397 C 22.434026 239.316484 21.084435 238.199716 19.83556 236.962217 C 18.596756 235.724718 17.488883 234.366488 16.51194 232.907647 C 15.534997 231.448807 14.709128 229.899418 14.034332 228.279603 C 13.359537 226.659787 12.855958 224.979605 12.513525 223.25918 C 12.171091 221.538754 11.999874 219.798207 11.999874 218.037538 C 11.999874 216.28693 12.171091 214.546382 12.513525 212.815896 C 12.855958 211.09547 13.359537 209.42535 14.034332 207.795473 C 14.709128 206.175657 15.534997 204.63633 16.51194 203.177489 C 17.488883 201.708588 18.596756 200.360418 19.83556 199.112858 C 21.084435 197.87536 22.434026 196.768653 23.894404 195.792739 C 25.354783 194.816825 26.895734 193.991826 28.517257 193.317741 C 30.138781 192.643657 31.820734 192.140608 33.542973 191.798535 C 35.265212 191.446401 37.007595 191.275365 38.760049 191.275365 C 40.512503 191.275365 42.254885 191.446401 43.977125 191.798535 C 45.699364 192.140608 47.381317 192.643657 49.002841 193.317741 C 50.624364 193.991826 52.165315 194.816825 53.625694 195.792739 C 55.086072 196.768653 56.435663 197.87536 57.684538 199.112858 C 58.923342 200.360418 60.031215 201.708588 61.008158 203.177489 C 61.985101 204.63633 62.81097 206.175657 63.485765 207.795473 C 64.150489 209.42535 64.66414 211.09547 65.006573 212.815896 C 65.349007 214.546382 65.520224 216.28693 65.520224 218.037538 Z M 65.520224 218.037538 " stroke="#3f120f" stroke-width="4" stroke-opacity="1" stroke-miterlimit="4"/><path fill="#3f120f" d="M 203.269531 251.429688 C 203.707031 251.542969 204.132812 251.6875 204.546875 251.867188 C 204.960938 252.046875 205.363281 252.261719 205.757812 252.507812 C 206.148438 252.753906 206.527344 253.03125 206.890625 253.339844 C 207.253906 253.652344 207.601562 253.992188 207.9375 254.363281 C 208.269531 254.734375 208.585938 255.136719 208.882812 255.5625 C 209.183594 255.992188 209.464844 256.449219 209.726562 256.929688 C 209.988281 257.414062 210.230469 257.917969 210.453125 258.449219 C 210.671875 258.980469 210.875 259.53125 211.054688 260.109375 C 211.234375 260.683594 211.394531 261.273438 211.53125 261.886719 C 211.667969 262.5 211.785156 263.128906 211.875 263.773438 C 211.96875 264.417969 212.039062 265.074219 212.085938 265.746094 C 212.132812 266.417969 212.15625 267.097656 212.15625 267.785156 C 212.15625 268.476562 212.132812 269.171875 212.089844 269.875 C 212.042969 270.578125 211.972656 271.285156 211.882812 271.992188 C 211.792969 272.703125 211.679688 273.410156 211.542969 274.121094 C 211.40625 274.828125 211.25 275.53125 211.070312 276.234375 C 210.890625 276.933594 210.6875 277.625 210.46875 278.3125 C 210.246094 279 210.003906 279.675781 209.742188 280.339844 C 209.484375 281.003906 209.203125 281.65625 208.90625 282.296875 C 208.605469 282.933594 208.292969 283.554688 207.960938 284.160156 C 207.628906 284.761719 207.28125 285.347656 206.914062 285.914062 C 206.550781 286.480469 206.175781 287.023438 205.785156 287.542969 C 205.394531 288.0625 204.992188 288.558594 204.574219 289.027344 C 204.160156 289.5 203.738281 289.941406 203.300781 290.359375 C 202.867188 290.777344 202.425781 291.164062 201.976562 291.519531 C 201.523438 291.878906 201.070312 292.207031 200.609375 292.503906 C 200.144531 292.800781 199.679688 293.0625 199.214844 293.292969 C 198.746094 293.527344 198.277344 293.726562 197.804688 293.890625 C 197.335938 294.054688 196.863281 294.183594 196.398438 294.28125 C 195.929688 294.378906 195.464844 294.441406 195 294.46875 C 194.539062 294.496094 194.085938 294.488281 193.632812 294.445312 C 193.183594 294.402344 192.742188 294.324219 192.304688 294.210938 C 191.871094 294.101562 191.445312 293.957031 191.03125 293.777344 C 190.613281 293.59375 190.210938 293.382812 189.820312 293.136719 C 189.429688 292.890625 189.050781 292.613281 188.6875 292.300781 C 188.324219 291.992188 187.972656 291.652344 187.640625 291.277344 C 187.308594 290.90625 186.992188 290.507812 186.691406 290.078125 C 186.394531 289.648438 186.113281 289.195312 185.851562 288.710938 C 185.589844 288.230469 185.347656 287.722656 185.125 287.195312 C 184.902344 286.664062 184.703125 286.109375 184.519531 285.535156 C 184.339844 284.960938 184.179688 284.367188 184.042969 283.753906 C 183.90625 283.144531 183.792969 282.515625 183.699219 281.871094 C 183.609375 281.226562 183.539062 280.566406 183.492188 279.898438 C 183.445312 279.226562 183.421875 278.546875 183.421875 277.855469 C 183.421875 277.167969 183.441406 276.46875 183.488281 275.765625 C 183.535156 275.0625 183.601562 274.359375 183.695312 273.648438 C 183.785156 272.941406 183.898438 272.230469 184.035156 271.523438 C 184.171875 270.816406 184.328125 270.109375 184.507812 269.410156 C 184.6875 268.710938 184.886719 268.015625 185.109375 267.332031 C 185.332031 266.644531 185.570312 265.96875 185.832031 265.304688 C 186.09375 264.636719 186.375 263.984375 186.671875 263.347656 C 186.96875 262.710938 187.285156 262.089844 187.617188 261.484375 C 187.949219 260.878906 188.296875 260.292969 188.660156 259.730469 C 189.023438 259.164062 189.402344 258.621094 189.792969 258.101562 C 190.183594 257.582031 190.585938 257.085938 191 256.613281 C 191.414062 256.144531 191.839844 255.699219 192.273438 255.285156 C 192.707031 254.867188 193.152344 254.480469 193.601562 254.121094 C 194.050781 253.765625 194.507812 253.4375 194.96875 253.140625 C 195.429688 252.84375 195.894531 252.578125 196.363281 252.347656 C 196.832031 252.117188 197.300781 251.917969 197.769531 251.753906 C 198.242188 251.589844 198.710938 251.457031 199.179688 251.359375 C 199.648438 251.265625 200.113281 251.203125 200.574219 251.175781 C 201.035156 251.148438 201.492188 251.15625 201.941406 251.199219 C 202.394531 251.242188 202.835938 251.320312 203.269531 251.429688 Z M 203.269531 251.429688 " fill-opacity="1" fill-rule="nonzero"/><path fill="#f2e9df" d="M 199.050781 262.269531 C 199.453125 262.375 199.835938 262.539062 200.199219 262.769531 C 200.5625 262.996094 200.898438 263.28125 201.210938 263.628906 C 201.519531 263.972656 201.792969 264.367188 202.039062 264.8125 C 202.28125 265.261719 202.484375 265.75 202.652344 266.285156 C 202.820312 266.816406 202.949219 267.382812 203.035156 267.980469 C 203.121094 268.578125 203.164062 269.195312 203.164062 269.835938 C 203.164062 270.476562 203.121094 271.125 203.039062 271.78125 C 202.953125 272.441406 202.828125 273.09375 202.660156 273.742188 C 202.492188 274.394531 202.289062 275.027344 202.046875 275.644531 C 201.804688 276.261719 201.53125 276.847656 201.222656 277.410156 C 200.914062 277.96875 200.578125 278.492188 200.214844 278.972656 C 199.851562 279.457031 199.46875 279.890625 199.066406 280.277344 C 198.664062 280.664062 198.25 280.992188 197.820312 281.269531 C 197.390625 281.542969 196.960938 281.757812 196.523438 281.910156 C 196.085938 282.0625 195.65625 282.152344 195.226562 282.175781 C 194.796875 282.203125 194.382812 282.164062 193.976562 282.058594 C 193.574219 281.957031 193.191406 281.789062 192.828125 281.5625 C 192.464844 281.332031 192.128906 281.046875 191.820312 280.703125 C 191.511719 280.355469 191.234375 279.960938 190.992188 279.515625 C 190.75 279.066406 190.542969 278.578125 190.375 278.042969 C 190.207031 277.511719 190.082031 276.945312 189.996094 276.347656 C 189.910156 275.75 189.867188 275.132812 189.867188 274.492188 C 189.863281 273.851562 189.90625 273.203125 189.992188 272.546875 C 190.078125 271.890625 190.203125 271.234375 190.367188 270.585938 C 190.535156 269.9375 190.738281 269.304688 190.980469 268.6875 C 191.222656 268.070312 191.5 267.480469 191.804688 266.917969 C 192.113281 266.359375 192.449219 265.835938 192.8125 265.355469 C 193.175781 264.871094 193.558594 264.4375 193.960938 264.050781 C 194.363281 263.664062 194.78125 263.335938 195.207031 263.058594 C 195.636719 262.785156 196.070312 262.570312 196.503906 262.417969 C 196.941406 262.265625 197.375 262.175781 197.800781 262.152344 C 198.230469 262.125 198.648438 262.167969 199.050781 262.269531 Z M 199.050781 262.269531 " fill-opacity="1" fill-rule="nonzero"/><path fill="#3f120f" d="M 278.953125 236.21875 C 279.578125 236.378906 280.171875 236.636719 280.730469 236.988281 C 281.292969 237.339844 281.8125 237.785156 282.289062 238.316406 C 282.769531 238.851562 283.195312 239.460938 283.570312 240.152344 C 283.945312 240.84375 284.265625 241.601562 284.523438 242.425781 C 284.78125 243.25 284.976562 244.125 285.109375 245.050781 C 285.242188 245.972656 285.308594 246.929688 285.308594 247.921875 C 285.308594 248.910156 285.246094 249.914062 285.113281 250.933594 C 284.984375 251.949219 284.789062 252.960938 284.53125 253.964844 C 284.273438 254.96875 283.957031 255.949219 283.582031 256.902344 C 283.210938 257.859375 282.785156 258.769531 282.308594 259.636719 C 281.832031 260.503906 281.3125 261.308594 280.75 262.058594 C 280.191406 262.804688 279.597656 263.476562 278.976562 264.074219 C 278.351562 264.671875 277.710938 265.183594 277.046875 265.605469 C 276.386719 266.03125 275.71875 266.363281 275.042969 266.597656 C 274.367188 266.835938 273.699219 266.972656 273.035156 267.011719 C 272.375 267.050781 271.730469 266.992188 271.109375 266.832031 C 270.484375 266.671875 269.890625 266.414062 269.328125 266.0625 C 268.769531 265.707031 268.25 265.265625 267.769531 264.730469 C 267.292969 264.199219 266.867188 263.585938 266.492188 262.894531 C 266.113281 262.203125 265.796875 261.445312 265.539062 260.621094 C 265.28125 259.796875 265.082031 258.925781 264.953125 258 C 264.820312 257.074219 264.753906 256.117188 264.75 255.128906 C 264.75 254.136719 264.816406 253.132812 264.945312 252.117188 C 265.078125 251.101562 265.273438 250.089844 265.53125 249.085938 C 265.789062 248.078125 266.101562 247.097656 266.476562 246.144531 C 266.851562 245.191406 267.277344 244.28125 267.753906 243.414062 C 268.230469 242.546875 268.75 241.738281 269.308594 240.992188 C 269.871094 240.246094 270.464844 239.574219 271.085938 238.976562 C 271.710938 238.378906 272.351562 237.867188 273.015625 237.441406 C 273.675781 237.015625 274.34375 236.6875 275.019531 236.449219 C 275.695312 236.210938 276.363281 236.074219 277.023438 236.035156 C 277.6875 235.996094 278.328125 236.058594 278.953125 236.21875 Z M 278.953125 236.21875 " fill-opacity="1" fill-rule="nonzero"/><path fill="#f2e9df" d="M 275.933594 243.972656 C 276.222656 244.046875 276.496094 244.164062 276.753906 244.328125 C 277.015625 244.492188 277.253906 244.695312 277.476562 244.941406 C 277.699219 245.1875 277.894531 245.472656 278.070312 245.792969 C 278.242188 246.113281 278.390625 246.460938 278.507812 246.84375 C 278.628906 247.226562 278.71875 247.628906 278.78125 248.058594 C 278.839844 248.484375 278.871094 248.929688 278.871094 249.386719 C 278.875 249.84375 278.84375 250.308594 278.78125 250.777344 C 278.722656 251.25 278.632812 251.71875 278.511719 252.183594 C 278.394531 252.648438 278.246094 253.101562 278.074219 253.542969 C 277.902344 253.984375 277.703125 254.40625 277.484375 254.804688 C 277.261719 255.207031 277.023438 255.582031 276.765625 255.925781 C 276.503906 256.269531 276.230469 256.582031 275.941406 256.859375 C 275.652344 257.136719 275.355469 257.371094 275.050781 257.566406 C 274.746094 257.765625 274.433594 257.917969 274.121094 258.027344 C 273.808594 258.136719 273.5 258.199219 273.195312 258.21875 C 272.886719 258.238281 272.589844 258.207031 272.300781 258.132812 C 272.015625 258.058594 271.738281 257.941406 271.480469 257.777344 C 271.21875 257.613281 270.980469 257.410156 270.757812 257.164062 C 270.539062 256.917969 270.339844 256.632812 270.167969 256.3125 C 269.992188 255.992188 269.847656 255.644531 269.726562 255.261719 C 269.605469 254.882812 269.515625 254.476562 269.453125 254.046875 C 269.394531 253.621094 269.363281 253.179688 269.363281 252.71875 C 269.363281 252.261719 269.390625 251.796875 269.453125 251.328125 C 269.511719 250.855469 269.601562 250.390625 269.722656 249.925781 C 269.839844 249.460938 269.988281 249.007812 270.160156 248.5625 C 270.332031 248.121094 270.53125 247.703125 270.75 247.300781 C 270.972656 246.898438 271.210938 246.527344 271.472656 246.179688 C 271.730469 245.835938 272.003906 245.523438 272.292969 245.246094 C 272.582031 244.972656 272.878906 244.734375 273.183594 244.539062 C 273.492188 244.339844 273.800781 244.1875 274.113281 244.078125 C 274.425781 243.96875 274.734375 243.90625 275.039062 243.886719 C 275.347656 243.871094 275.644531 243.898438 275.933594 243.972656 Z M 275.933594 243.972656 " fill-opacity="1" fill-rule="nonzero"/><path stroke-linecap="round" transform="matrix(0.387849, 0, 0, 0.388258, 65.119299, 158.38036)" fill-opacity="1" fill="#f2e9df" fill-rule="nonzero" stroke-linejoin="round" d="M 218.829738 232.837221 C 218.829738 234.758865 218.638378 236.660388 218.26573 238.541789 C 217.893081 240.42319 217.339145 242.254286 216.60392 244.025016 C 215.868695 245.795747 214.972325 247.485989 213.904738 249.075622 C 212.837151 250.675316 211.628562 252.154278 210.268899 253.512508 C 208.909236 254.870739 207.438787 256.078055 205.837406 257.144518 C 204.246097 258.21098 202.554073 259.106406 200.781475 259.840857 C 199.008878 260.575307 197.185923 261.138722 195.302539 261.510977 C 193.419154 261.883233 191.515626 262.074392 189.602027 262.074392 C 187.678356 262.074392 185.7849 261.883233 183.901516 261.510977 C 182.018131 261.138722 180.185105 260.575307 178.412507 259.840857 C 176.63991 259.106406 174.957957 258.21098 173.356577 257.144518 C 171.765268 256.078055 170.284746 254.870739 168.935155 253.512508 C 167.575493 252.154278 166.366904 250.675316 165.299317 249.075622 C 164.23173 247.485989 163.325288 245.795747 162.590063 244.025016 C 161.86491 242.254286 161.310973 240.42319 160.928253 238.541789 C 160.555605 236.660388 160.374317 234.758865 160.374317 232.837221 C 160.374317 230.925637 160.555605 229.024114 160.928253 227.132652 C 161.310973 225.251251 161.86491 223.430216 162.590063 221.649425 C 163.325288 219.878695 164.23173 218.198513 165.299317 216.59882 C 166.366904 215.009187 167.575493 213.530225 168.935155 212.171994 C 170.284746 210.813763 171.765268 209.606447 173.356577 208.539985 C 174.957957 207.473522 176.63991 206.568035 178.412507 205.833585 C 180.185105 205.099134 182.018131 204.545781 183.901516 204.173525 C 185.7849 203.801269 187.678356 203.610111 189.602027 203.610111 C 191.515626 203.610111 193.419154 203.801269 195.302539 204.173525 C 197.185923 204.545781 199.008878 205.099134 200.781475 205.833585 C 202.554073 206.568035 204.246097 207.473522 205.837406 208.539985 C 207.438787 209.606447 208.909236 210.813763 210.268899 212.171994 C 211.628562 213.530225 212.837151 215.009187 213.904738 216.59882 C 214.972325 218.198513 215.868695 219.878695 216.60392 221.649425 C 217.339145 223.430216 217.893081 225.251251 218.26573 227.132652 C 218.638378 229.024114 218.829738 230.925637 218.829738 232.837221 Z M 218.829738 232.837221 " stroke="#3f120f" stroke-width="4" stroke-opacity="1" stroke-miterlimit="4"/><path stroke-linecap="round" transform="matrix(0.387849, 0, 0, 0.388258, 65.119299, 158.38036)" fill="none" stroke-linejoin="round" d="M 218.829738 265.434755 L 231.177489 308.596304 " stroke="#ed8f27" stroke-width="5" stroke-opacity="1" stroke-miterlimit="4"/><path stroke-linecap="round" transform="matrix(0.387849, 0, 0, 0.388258, 65.119299, 158.38036)" fill="none" stroke-linejoin="round" d="M 535.31891 39.364821 L 270.688277 60.362059 C 269.177541 60.47273 267.69702 60.321815 266.246713 59.889194 C 264.796406 59.456572 263.466958 58.772426 262.268441 57.856878 C 261.069923 56.931269 260.072837 55.824563 259.287254 54.526698 C 258.501672 53.238894 257.967878 51.850481 257.685874 50.361458 C 257.464299 49.154142 257.142009 47.977009 256.719003 46.830058 C 256.295997 45.683108 255.772275 44.576402 255.157909 43.52 C 254.533471 42.463598 253.828461 41.467563 253.042878 40.531893 C 252.247224 39.596223 251.381068 38.741041 250.444412 37.956285 C 249.507755 37.17153 248.500598 36.477323 247.443082 35.863604 C 246.375495 35.259946 245.277694 34.736776 244.119463 34.324276 C 242.971303 33.901715 241.792929 33.589825 240.58434 33.378545 C 239.375751 33.167265 238.167162 33.056594 236.93843 33.056594 L 128.306422 33.056594 " stroke="#ed8f27" stroke-width="5" stroke-opacity="1" stroke-miterlimit="4"/><path fill="#3f120f" d="M 123.5 250.71875 L 93.871094 246.527344 C 93.871094 246.527344 92.246094 268.503906 108.699219 270.542969 C 123.835938 272.414062 123.5 250.71875 123.5 250.71875 Z M 123.5 250.71875 " fill-opacity="1" fill-rule="nonzero"/><path fill="#f2e9df" d="M 105.015625 196.851562 C 105.453125 196.996094 105.875 197.175781 106.289062 197.390625 C 106.699219 197.601562 107.09375 197.851562 107.476562 198.128906 C 107.859375 198.410156 108.222656 198.722656 108.574219 199.066406 C 108.921875 199.410156 109.253906 199.78125 109.566406 200.1875 C 109.878906 200.589844 110.171875 201.019531 110.445312 201.480469 C 110.722656 201.941406 110.972656 202.425781 111.207031 202.9375 C 111.4375 203.449219 111.648438 203.984375 111.835938 204.542969 C 112.023438 205.101562 112.191406 205.679688 112.332031 206.277344 C 112.476562 206.878906 112.59375 207.496094 112.6875 208.128906 C 112.785156 208.765625 112.855469 209.417969 112.902344 210.082031 C 112.949219 210.746094 112.972656 211.421875 112.96875 212.109375 C 112.96875 212.796875 112.941406 213.496094 112.894531 214.199219 C 112.84375 214.902344 112.769531 215.613281 112.671875 216.328125 C 112.570312 217.042969 112.449219 217.757812 112.304688 218.476562 C 112.160156 219.191406 111.992188 219.90625 111.800781 220.621094 C 111.609375 221.332031 111.398438 222.042969 111.164062 222.742188 C 110.925781 223.445312 110.671875 224.140625 110.394531 224.824219 C 110.117188 225.507812 109.824219 226.179688 109.507812 226.839844 C 109.191406 227.5 108.859375 228.148438 108.507812 228.777344 C 108.15625 229.40625 107.789062 230.015625 107.40625 230.609375 C 107.019531 231.203125 106.621094 231.773438 106.210938 232.324219 C 105.796875 232.875 105.371094 233.402344 104.933594 233.90625 C 104.496094 234.410156 104.050781 234.886719 103.589844 235.335938 C 103.132812 235.785156 102.667969 236.207031 102.191406 236.601562 C 101.71875 236.996094 101.238281 237.359375 100.75 237.691406 C 100.265625 238.023438 99.777344 238.324219 99.28125 238.59375 C 98.789062 238.863281 98.296875 239.097656 97.800781 239.300781 C 97.304688 239.503906 96.8125 239.671875 96.316406 239.804688 C 95.824219 239.9375 95.335938 240.039062 94.851562 240.101562 C 94.367188 240.167969 93.886719 240.195312 93.414062 240.1875 C 92.9375 240.183594 92.472656 240.140625 92.015625 240.066406 C 91.558594 239.988281 91.113281 239.878906 90.675781 239.734375 C 90.242188 239.585938 89.816406 239.40625 89.40625 239.191406 C 88.996094 238.980469 88.597656 238.730469 88.214844 238.453125 C 87.835938 238.171875 87.46875 237.859375 87.121094 237.515625 C 86.769531 237.171875 86.441406 236.800781 86.125 236.394531 C 85.8125 235.992188 85.519531 235.5625 85.246094 235.101562 C 84.972656 234.640625 84.71875 234.15625 84.488281 233.644531 C 84.253906 233.132812 84.046875 232.597656 83.855469 232.039062 C 83.667969 231.484375 83.503906 230.902344 83.359375 230.304688 C 83.21875 229.703125 83.101562 229.085938 83.003906 228.453125 C 82.910156 227.816406 82.839844 227.164062 82.792969 226.5 C 82.746094 225.835938 82.722656 225.160156 82.722656 224.472656 C 82.726562 223.785156 82.75 223.085938 82.800781 222.382812 C 82.851562 221.679688 82.925781 220.96875 83.023438 220.253906 C 83.121094 219.539062 83.242188 218.824219 83.386719 218.105469 C 83.535156 217.390625 83.703125 216.675781 83.890625 215.960938 C 84.082031 215.25 84.296875 214.539062 84.53125 213.839844 C 84.765625 213.136719 85.023438 212.441406 85.296875 211.757812 C 85.574219 211.074219 85.871094 210.402344 86.1875 209.742188 C 86.5 209.082031 86.835938 208.4375 87.1875 207.804688 C 87.535156 207.175781 87.90625 206.566406 88.289062 205.972656 C 88.671875 205.378906 89.070312 204.808594 89.484375 204.257812 C 89.894531 203.707031 90.320312 203.179688 90.757812 202.675781 C 91.195312 202.171875 91.644531 201.695312 92.101562 201.246094 C 92.558594 200.796875 93.027344 200.375 93.5 199.980469 C 93.976562 199.585938 94.457031 199.222656 94.941406 198.890625 C 95.429688 198.558594 95.917969 198.257812 96.410156 197.988281 C 96.902344 197.71875 97.398438 197.484375 97.894531 197.28125 C 98.386719 197.078125 98.882812 196.910156 99.375 196.777344 C 99.867188 196.644531 100.355469 196.542969 100.84375 196.480469 C 101.328125 196.417969 101.808594 196.386719 102.28125 196.394531 C 102.753906 196.398438 103.21875 196.441406 103.675781 196.515625 C 104.132812 196.59375 104.582031 196.703125 105.015625 196.851562 Z M 105.015625 196.851562 " fill-opacity="1" fill-rule="nonzero"/><path fill="#1c385f" d="M 111.164062 222.75 C 113.753906 214.980469 113.472656 207.355469 110.90625 202.308594 C 105.4375 202.785156 99.601562 208.375 96.539062 216.472656 L 103.886719 219.996094 L 94.875 222.589844 C 93.734375 229.523438 95.191406 235.792969 98.671875 238.902344 C 103.746094 236.429688 108.570312 230.496094 111.164062 222.75 Z M 111.164062 222.75 " fill-opacity="1" fill-rule="nonzero"/><g clip-path="url(#f69ed1863f)"><path stroke-linecap="round" transform="matrix(0.123175, -0.368345, 0.368345, 0.123175, 71.291345, 226.181366)" fill="none" stroke-linejoin="round" d="M 99.154488 58.3988 C 99.158808 59.585099 99.064526 60.761953 98.87802 61.948436 C 98.697862 63.122191 98.409564 64.28969 98.044929 65.4509 C 97.670756 66.615301 97.204329 67.757527 96.652027 68.896655 C 96.096535 70.026245 95.461517 71.140009 94.724707 72.234788 C 93.997435 73.326377 93.187448 74.392603 92.285206 75.436654 C 91.386154 76.490243 90.407545 77.496202 89.34941 78.486336 C 88.288085 79.466931 87.153583 80.418972 85.942713 81.332922 C 84.731844 82.246871 83.457335 83.129078 82.112808 83.960464 C 80.761932 84.804578 79.350576 85.594684 77.88193 86.340317 C 76.406934 87.098679 74.871459 87.803032 73.288231 88.459723 C 71.705003 89.116415 70.074022 89.725446 68.3921 90.277278 C 66.713367 90.838648 64.983692 91.34282 63.228531 91.802489 C 61.470181 92.252621 59.673616 92.651902 57.848375 92.997143 C 56.019945 93.332846 54.175567 93.620857 52.302513 93.854829 C 50.438997 94.085611 48.556343 94.259164 46.654552 94.375487 C 44.762299 94.48862 42.854098 94.554062 40.955375 94.552706 C 39.043923 94.545001 37.138789 94.492764 35.243133 94.373729 C 33.347477 94.254693 31.467677 94.087936 29.597354 93.854381 C 27.727031 93.620825 25.872564 93.339548 24.049841 92.994631 C 22.227118 92.649714 20.439327 92.250697 18.676931 91.800768 C 16.911346 91.3413 15.193421 90.83408 13.513619 90.282298 C 11.830627 89.720977 10.195296 89.111904 8.607626 88.455078 C 7.019955 87.798253 5.492673 87.100023 4.019401 86.341314 C 2.549318 85.592142 1.139624 84.801567 -0.212872 83.96005 C -1.562178 83.128071 -2.841557 82.251499 -4.051009 81.330334 C -5.257271 80.418707 -6.390417 79.472024 -7.453636 78.480749 C -8.513666 77.499011 -9.487851 76.488567 -10.38892 75.443069 C -11.289989 74.39757 -12.102024 73.332903 -12.831405 72.229991 C -13.557595 71.136617 -14.20429 70.027265 -14.752413 68.895555 C -15.310075 67.767035 -15.769164 66.616157 -16.136029 65.455649 C -16.515623 64.288792 -16.790265 63.118654 -16.982221 61.942076 C -17.16464 60.762308 -17.261184 59.585638 -17.265504 58.399339 C -17.257096 57.219387 -17.166003 56.032996 -16.976308 54.856051 C -16.79615 53.682296 -16.511042 52.505259 -16.146407 51.344048 C -15.769044 50.189186 -15.305807 49.037422 -14.750315 47.907832 C -14.198013 46.768704 -13.559805 45.664478 -12.826185 44.560161 C -12.098913 43.468571 -11.288925 42.402346 -10.386684 41.358295 C -9.484442 40.314244 -8.509022 39.298746 -7.447698 38.318151 C -6.389563 37.328018 -5.251871 36.385515 -4.044191 35.462027 C -2.84286 34.551267 -1.555623 33.675409 -0.214286 32.834485 C 1.13978 31.999908 2.551136 31.209803 4.016593 30.454631 C 5.494778 29.705808 7.030253 29.001455 8.613481 28.344764 C 10.196709 27.688072 11.82769 27.079041 13.506423 26.517671 C 15.188345 25.965839 16.91483 25.452129 18.673181 25.001998 C 20.431531 24.551866 22.228096 24.152585 24.053337 23.807344 C 25.878577 23.462103 27.722956 23.174091 29.59601 22.94012 C 31.462715 22.718876 33.345369 22.545323 35.24397 22.419462 C 37.136223 22.306329 39.047614 22.250425 40.946337 22.251781 C 42.854599 22.249947 44.762923 22.311723 46.655389 22.42122 C 48.551046 22.540255 50.434035 22.716551 52.304358 22.950106 C 54.171492 23.174124 56.019609 23.468129 57.851871 23.809856 C 59.671405 24.145234 61.462385 24.55379 63.224781 25.003719 C 64.987176 25.453649 66.705101 25.960868 68.388093 26.522189 C 70.067895 27.073972 71.703226 27.683045 73.290897 28.339871 C 74.878567 28.996696 76.409039 29.704464 77.879122 30.453635 C 79.349205 31.202806 80.762088 32.00292 82.111394 32.834898 C 83.46389 33.676416 84.743269 34.552988 85.949531 35.464615 C 87.158983 36.38578 88.292129 37.332463 89.352159 38.3142 C 90.412188 39.295937 91.389563 40.315919 92.290632 41.361418 C 93.188512 42.397379 94.003736 43.471584 94.729927 44.564958 C 95.456118 45.658331 96.102813 46.767684 96.654125 47.908932 C 97.202248 49.040642 97.670876 50.18833 98.037741 51.348838 C 98.414145 52.506156 98.688787 53.676294 98.880744 54.852872 C 99.063162 56.03264 99.162896 57.218848 99.154488 58.3988 Z M 99.154488 58.3988 " stroke="#3f120f" stroke-width="4" stroke-opacity="1" stroke-miterlimit="4"/></g><path fill="#f2e9df" d="M 134.886719 198.332031 C 135.347656 198.488281 135.796875 198.679688 136.230469 198.90625 C 136.664062 199.136719 137.085938 199.398438 137.488281 199.699219 C 137.890625 199.996094 138.277344 200.328125 138.644531 200.691406 C 139.011719 201.058594 139.363281 201.453125 139.691406 201.882812 C 140.023438 202.308594 140.332031 202.769531 140.621094 203.257812 C 140.910156 203.742188 141.175781 204.257812 141.417969 204.800781 C 141.660156 205.34375 141.882812 205.910156 142.078125 206.503906 C 142.277344 207.09375 142.449219 207.707031 142.597656 208.34375 C 142.746094 208.980469 142.871094 209.632812 142.96875 210.304688 C 143.066406 210.980469 143.140625 211.667969 143.1875 212.371094 C 143.234375 213.074219 143.253906 213.792969 143.25 214.519531 C 143.246094 215.25 143.214844 215.988281 143.160156 216.730469 C 143.105469 217.476562 143.023438 218.230469 142.917969 218.984375 C 142.8125 219.742188 142.679688 220.496094 142.523438 221.257812 C 142.367188 222.015625 142.183594 222.773438 141.980469 223.527344 C 141.777344 224.28125 141.546875 225.027344 141.296875 225.773438 C 141.042969 226.515625 140.769531 227.246094 140.476562 227.972656 C 140.179688 228.695312 139.863281 229.40625 139.527344 230.101562 C 139.191406 230.800781 138.835938 231.484375 138.460938 232.148438 C 138.085938 232.8125 137.695312 233.460938 137.289062 234.085938 C 136.878906 234.710938 136.453125 235.316406 136.015625 235.898438 C 135.578125 236.476562 135.125 237.035156 134.660156 237.566406 C 134.195312 238.09375 133.71875 238.597656 133.230469 239.074219 C 132.742188 239.546875 132.25 239.992188 131.746094 240.40625 C 131.242188 240.824219 130.730469 241.203125 130.214844 241.554688 C 129.699219 241.90625 129.179688 242.222656 128.65625 242.503906 C 128.132812 242.789062 127.609375 243.035156 127.082031 243.246094 C 126.558594 243.460938 126.035156 243.636719 125.511719 243.777344 C 124.988281 243.917969 124.472656 244.019531 123.957031 244.085938 C 123.441406 244.152344 122.933594 244.179688 122.433594 244.171875 C 121.933594 244.164062 121.441406 244.117188 120.957031 244.035156 C 120.472656 243.953125 120 243.835938 119.539062 243.679688 C 119.078125 243.523438 118.628906 243.328125 118.195312 243.101562 C 117.761719 242.875 117.34375 242.609375 116.9375 242.3125 C 116.535156 242.015625 116.148438 241.683594 115.78125 241.316406 C 115.414062 240.953125 115.0625 240.554688 114.734375 240.128906 C 114.402344 239.699219 114.09375 239.242188 113.804688 238.753906 C 113.519531 238.265625 113.25 237.75 113.007812 237.207031 C 112.765625 236.667969 112.542969 236.097656 112.347656 235.507812 C 112.148438 234.914062 111.976562 234.300781 111.828125 233.667969 C 111.679688 233.03125 111.558594 232.375 111.457031 231.703125 C 111.359375 231.03125 111.289062 230.34375 111.238281 229.636719 C 111.191406 228.933594 111.171875 228.21875 111.175781 227.488281 C 111.179688 226.761719 111.210938 226.023438 111.265625 225.277344 C 111.320312 224.53125 111.402344 223.78125 111.507812 223.023438 C 111.617188 222.269531 111.746094 221.511719 111.902344 220.753906 C 112.058594 219.996094 112.242188 219.238281 112.445312 218.484375 C 112.652344 217.730469 112.878906 216.980469 113.128906 216.238281 C 113.382812 215.496094 113.65625 214.761719 113.949219 214.039062 C 114.246094 213.316406 114.5625 212.605469 114.898438 211.90625 C 115.234375 211.207031 115.589844 210.527344 115.964844 209.863281 C 116.339844 209.195312 116.730469 208.550781 117.140625 207.925781 C 117.546875 207.296875 117.972656 206.695312 118.410156 206.113281 C 118.851562 205.53125 119.300781 204.976562 119.765625 204.445312 C 120.234375 203.914062 120.707031 203.410156 121.195312 202.9375 C 121.683594 202.460938 122.179688 202.015625 122.683594 201.601562 C 123.1875 201.1875 123.695312 200.804688 124.210938 200.453125 C 124.726562 200.105469 125.246094 199.789062 125.769531 199.503906 C 126.292969 199.222656 126.816406 198.972656 127.34375 198.761719 C 127.867188 198.550781 128.390625 198.375 128.914062 198.234375 C 129.4375 198.09375 129.953125 197.992188 130.46875 197.925781 C 130.984375 197.859375 131.492188 197.828125 131.992188 197.835938 C 132.492188 197.84375 132.988281 197.890625 133.46875 197.972656 C 133.953125 198.054688 134.425781 198.175781 134.886719 198.332031 Z M 134.886719 198.332031 " fill-opacity="1" fill-rule="nonzero"/><path fill="#1c385f" d="M 141.144531 225.722656 C 143.886719 217.519531 143.585938 209.410156 140.871094 204.085938 C 135.085938 204.589844 128.902344 210.507812 125.648438 219.078125 L 133.414062 222.804688 L 123.886719 225.554688 C 122.675781 232.898438 124.226562 239.539062 127.90625 242.84375 C 133.289062 240.210938 138.398438 233.925781 141.144531 225.722656 Z M 141.144531 225.722656 " fill-opacity="1" fill-rule="nonzero"/><g clip-path="url(#992cf7643e)"><path stroke-linecap="round" transform="matrix(0.124524, -0.367891, 0.367891, 0.124524, 88.695745, 255.585451)" fill="none" stroke-linejoin="round" d="M 177.758557 65.388101 C 177.757993 66.64121 177.662016 67.89476 177.467403 69.139225 C 177.263264 70.386914 176.973239 71.63182 176.571826 72.861339 C 176.17994 74.087634 175.689417 75.304843 175.10656 76.500217 C 174.514176 77.698814 173.842208 78.881878 173.065154 80.036804 C 172.300852 81.198031 171.431464 82.33112 170.479267 83.439149 C 169.536598 84.543953 168.498368 85.617394 167.374107 86.656248 C 166.249845 87.695103 165.052301 88.705672 163.7655 89.672127 C 162.491451 90.644884 161.13767 91.570303 159.707383 92.45791 C 158.277096 93.345517 156.789356 94.188864 155.231412 94.981647 C 153.663941 95.777655 152.048543 96.526178 150.372468 97.220913 C 148.696393 97.915649 146.959639 98.556597 145.184486 99.146835 C 143.399806 99.740298 141.573501 100.273524 139.718323 100.752816 C 137.853618 101.235332 135.947288 101.657612 134.021611 102.022733 C 132.086408 102.391079 130.138159 102.689514 128.15151 102.93724 C 126.174388 103.181741 124.174693 103.359556 122.168403 103.486515 C 120.162112 103.613473 118.152303 103.667297 116.126371 103.673488 C 114.106741 103.666929 112.099568 103.603063 110.085798 103.48834 C 108.078331 103.360866 106.08332 103.176086 104.110293 102.930776 C 102.127739 102.68869 100.167168 102.386073 98.238107 102.019701 C 96.309046 101.653329 94.405193 101.235953 92.545601 100.761124 C 90.682784 100.276768 88.854702 99.738183 87.074105 99.151672 C 85.303035 98.561936 83.566698 97.917972 81.887374 97.222856 C 80.217576 96.524515 78.595264 95.778248 77.029963 94.98083 C 75.474189 94.180187 73.981876 93.347446 72.556101 92.460329 C 71.1208 91.576436 69.774315 90.641245 68.49129 89.673956 C 67.208266 88.706667 66.007756 87.70083 64.889759 86.656446 C 63.762236 85.615287 62.729978 84.541882 61.780234 83.42993 C 60.824188 82.330729 59.963407 81.199282 59.188365 80.038815 C 58.413322 78.878347 57.739994 77.704687 57.152404 76.502007 C 56.564814 75.299326 56.078938 74.083453 55.68525 72.857612 C 55.291562 71.631771 54.999587 70.392738 54.799801 69.143736 C 54.600014 67.894735 54.49564 66.645292 54.496204 65.392184 C 54.496768 64.139075 54.602271 62.882301 54.796884 61.637836 C 54.991496 60.393371 55.294272 59.154767 55.682934 57.918946 C 56.07482 56.692651 56.565343 55.475442 57.157727 54.276844 C 57.740585 53.081471 58.422079 51.895183 59.189606 50.743482 C 59.963435 49.57903 60.823297 48.449165 61.775493 47.341136 C 62.730914 46.242634 63.765919 45.159666 64.89018 44.120812 C 66.004916 43.085183 67.211986 42.071389 68.48926 41.108158 C 69.772836 40.132177 71.126617 39.206758 72.547377 38.322375 C 73.977664 37.434768 75.478155 36.597724 77.032875 35.795413 C 78.590819 35.00263 80.209442 34.263634 81.891819 33.556147 C 83.567894 32.861412 85.295121 32.223688 87.079801 31.630226 C 88.854954 31.039987 90.681259 30.506761 92.545964 30.024245 C 94.410669 29.541728 96.307472 29.122673 98.242676 28.754328 C 100.171577 28.398733 102.126128 28.087547 104.10325 27.843046 C 106.080373 27.598545 108.080067 27.420729 110.086358 27.293771 C 112.095873 27.176339 114.111984 27.109764 116.12839 27.106797 C 118.14802 27.113356 120.164719 27.173998 122.168962 27.291945 C 124.17643 27.419419 126.171441 27.604199 128.153994 27.846285 C 130.136548 28.088371 132.087593 28.394212 134.016653 28.760584 C 135.955241 29.123732 137.849567 29.544332 139.712384 30.028688 C 141.581503 30.500293 143.400058 31.042102 145.180655 31.628613 C 146.964477 32.224651 148.688062 32.862314 150.367386 33.557429 C 152.049935 34.262072 153.669023 34.998812 155.224797 35.799455 C 156.790098 36.596874 158.285635 37.439141 159.71141 38.326259 C 161.137185 39.213376 162.489972 40.135815 163.772997 41.103105 C 165.046494 42.073618 166.247005 43.079455 167.374528 44.120614 C 168.492524 45.164998 169.534309 46.235179 170.484053 47.347131 C 171.430572 48.449556 172.291353 49.581003 173.066396 50.74147 C 173.841438 51.901938 174.514767 53.075598 175.102357 54.278278 C 175.689946 55.480959 176.185349 56.693608 176.579037 57.919449 C 176.972725 59.14529 177.267924 60.39385 177.464486 61.633324 C 177.664273 62.882326 177.759121 64.134993 177.758557 65.388101 Z M 177.758557 65.388101 " stroke="#3f120f" stroke-width="4" stroke-opacity="1" stroke-miterlimit="4"/></g><path fill="#f7b917" d="M 109.667969 229.988281 L 92.117188 237.898438 L 103.285156 243.46875 Z M 109.667969 229.988281 " fill-opacity="1" fill-rule="nonzero"/><path stroke-linecap="round" transform="matrix(0.388395, 0, 0, 0.388395, 81.941294, 195.610974)" fill="none" stroke-linejoin="round" d="M 71.387917 88.51131 L 26.199891 108.877602 L 54.954079 123.219495 " stroke="#3f120f" stroke-width="4" stroke-opacity="1" stroke-miterlimit="4"/><path fill="#c03427" d="M 123.226562 254.746094 C 111.460938 255.222656 102.527344 264.222656 100.082031 266.597656 C 101.257812 267.710938 102.582031 268.605469 104.054688 269.28125 C 105.527344 269.957031 107.070312 270.378906 108.683594 270.542969 C 119.644531 271.898438 122.488281 260.925781 123.226562 254.746094 Z M 123.226562 254.746094 " fill-opacity="1" fill-rule="nonzero"/><g clip-path="url(#7bfed709d2)"><path stroke-linecap="round" transform="matrix(0.388395, 0, 0, 0.388395, 81.941294, 195.610974)" fill="none" stroke-linejoin="round" d="M 107.001271 141.886082 L 30.715677 131.094462 C 30.715677 131.094462 26.531786 187.677554 68.893675 192.927532 C 107.86621 197.74504 107.001271 141.886082 107.001271 141.886082 Z M 107.001271 141.886082 " stroke="#3f120f" stroke-width="4" stroke-opacity="1" stroke-miterlimit="4"/></g><g fill="#f2e9df" fill-opacity="1"><g transform="translate(145.535151, 119.118179)"><g><path d="M 26.234375 -26.71875 C 27.691406 -26 28.421875 -25.207031 28.421875 -24.34375 C 28.421875 -23.945312 28.234375 -23.351562 27.859375 -22.5625 L 17.65625 -1.84375 C 17.375 -1.300781 16.957031 -0.863281 16.40625 -0.53125 C 15.851562 -0.195312 15.28125 -0.03125 14.6875 -0.03125 L 14.3125 -0.03125 C 13.695312 -0.03125 13.113281 -0.195312 12.5625 -0.53125 C 12.007812 -0.863281 11.597656 -1.300781 11.328125 -1.84375 L 1.109375 -22.5625 C 0.742188 -23.351562 0.5625 -23.945312 0.5625 -24.34375 C 0.5625 -25.207031 1.285156 -26 2.734375 -26.71875 C 3.546875 -27.132812 4.164062 -27.34375 4.59375 -27.34375 C 5.03125 -27.34375 5.359375 -27.289062 5.578125 -27.1875 C 5.804688 -27.09375 6.019531 -26.921875 6.21875 -26.671875 C 6.4375 -26.378906 6.640625 -26.050781 6.828125 -25.6875 C 7.015625 -25.332031 7.488281 -24.3125 8.25 -22.625 C 9.007812 -20.9375 9.828125 -19.140625 10.703125 -17.234375 C 11.585938 -15.335938 12.414062 -13.546875 13.1875 -11.859375 C 13.96875 -10.171875 14.40625 -9.226562 14.5 -9.03125 L 21.90625 -25.234375 C 22.101562 -25.703125 22.273438 -26.070312 22.421875 -26.34375 C 22.867188 -27.007812 23.410156 -27.34375 24.046875 -27.34375 C 24.691406 -27.34375 25.421875 -27.132812 26.234375 -26.71875 Z M 26.234375 -26.71875 "/></g></g></g><g fill="#f2e9df" fill-opacity="1"><g transform="translate(174.503064, 119.118179)"><g><path d="M 17.125 -25.203125 L 27.125 -4.546875 C 27.539062 -3.710938 27.75 -3.082031 27.75 -2.65625 C 27.75 -1.769531 27.035156 -0.972656 25.609375 -0.265625 C 24.765625 0.160156 24.101562 0.375 23.625 0.375 C 23.144531 0.375 22.75 0.257812 22.4375 0.03125 C 22.132812 -0.1875 21.914062 -0.414062 21.78125 -0.65625 C 21.644531 -0.90625 21.453125 -1.28125 21.203125 -1.78125 L 19.28125 -5.765625 L 9.03125 -5.765625 L 7.109375 -1.78125 C 6.859375 -1.28125 6.664062 -0.921875 6.53125 -0.703125 C 6.394531 -0.484375 6.171875 -0.253906 5.859375 -0.015625 C 5.554688 0.210938 5.160156 0.328125 4.671875 0.328125 C 4.191406 0.328125 3.535156 0.117188 2.703125 -0.296875 C 1.273438 -0.984375 0.5625 -1.769531 0.5625 -2.65625 C 0.5625 -3.082031 0.769531 -3.710938 1.1875 -4.546875 L 11.171875 -25.234375 C 11.441406 -25.796875 11.851562 -26.25 12.40625 -26.59375 C 12.96875 -26.945312 13.554688 -27.125 14.171875 -27.125 C 15.503906 -27.125 16.488281 -26.484375 17.125 -25.203125 Z M 14.140625 -16.3125 L 11.6875 -11.25 L 16.609375 -11.25 Z M 14.140625 -16.3125 "/></g></g></g><g fill="#f2e9df" fill-opacity="1"><g transform="translate(202.805056, 119.118179)"><g><path d="M 18.984375 -25.984375 C 19.222656 -26.421875 19.578125 -26.710938 20.046875 -26.859375 C 20.515625 -27.003906 21.097656 -27.078125 21.796875 -27.078125 C 22.503906 -27.078125 23.070312 -27.015625 23.5 -26.890625 C 23.9375 -26.773438 24.257812 -26.628906 24.46875 -26.453125 C 24.6875 -26.285156 24.84375 -26.023438 24.9375 -25.671875 C 25.082031 -25.285156 25.15625 -24.660156 25.15625 -23.796875 L 25.15625 -3.25 C 25.15625 -2.664062 25.132812 -2.234375 25.09375 -1.953125 C 25.0625 -1.679688 24.945312 -1.363281 24.75 -1 C 24.40625 -0.332031 23.441406 0 21.859375 0 C 20.898438 0 20.234375 -0.0703125 19.859375 -0.21875 C 19.492188 -0.363281 19.1875 -0.597656 18.9375 -0.921875 C 13.394531 -8.328125 9.742188 -13.160156 7.984375 -15.421875 L 7.984375 -3.25 C 7.984375 -2.664062 7.960938 -2.234375 7.921875 -1.953125 C 7.890625 -1.679688 7.773438 -1.363281 7.578125 -1 C 7.234375 -0.332031 6.273438 0 4.703125 0 C 3.171875 0 2.234375 -0.332031 1.890625 -1 C 1.691406 -1.363281 1.570312 -1.691406 1.53125 -1.984375 C 1.5 -2.285156 1.484375 -2.722656 1.484375 -3.296875 L 1.484375 -23.9375 C 1.484375 -24.875 1.597656 -25.554688 1.828125 -25.984375 C 2.066406 -26.421875 2.421875 -26.710938 2.890625 -26.859375 C 3.359375 -27.003906 3.960938 -27.078125 4.703125 -27.078125 C 5.441406 -27.078125 6.023438 -27.007812 6.453125 -26.875 C 6.890625 -26.738281 7.191406 -26.585938 7.359375 -26.421875 C 7.460938 -26.347656 7.75 -26.023438 8.21875 -25.453125 C 13.414062 -18.378906 16.890625 -13.707031 18.640625 -11.4375 L 18.640625 -23.9375 C 18.640625 -24.875 18.753906 -25.554688 18.984375 -25.984375 Z M 18.984375 -25.984375 "/></g></g></g><g fill="#f2e9df" fill-opacity="1"><g transform="translate(131.753902, 151.368177)"><g><path d="M 4.765625 -27.15625 L 11.625 -27.125 C 15.195312 -27.125 18.335938 -25.832031 21.046875 -23.25 C 23.765625 -20.675781 25.125 -17.507812 25.125 -13.75 C 25.125 -9.988281 23.796875 -6.757812 21.140625 -4.0625 C 18.492188 -1.375 15.28125 -0.03125 11.5 -0.03125 L 4.734375 -0.03125 C 3.234375 -0.03125 2.296875 -0.34375 1.921875 -0.96875 C 1.628906 -1.476562 1.484375 -2.265625 1.484375 -3.328125 L 1.484375 -23.90625 C 1.484375 -24.5 1.5 -24.929688 1.53125 -25.203125 C 1.570312 -25.472656 1.691406 -25.789062 1.890625 -26.15625 C 2.234375 -26.820312 3.191406 -27.15625 4.765625 -27.15625 Z M 11.625 -6.59375 C 13.394531 -6.59375 14.992188 -7.25 16.421875 -8.5625 C 17.859375 -9.882812 18.578125 -11.539062 18.578125 -13.53125 C 18.578125 -15.53125 17.878906 -17.203125 16.484375 -18.546875 C 15.085938 -19.898438 13.453125 -20.578125 11.578125 -20.578125 L 8.03125 -20.578125 L 8.03125 -6.59375 Z M 11.625 -6.59375 "/></g></g></g><g fill="#f2e9df" fill-opacity="1"><g transform="translate(157.799131, 151.368177)"><g><path d="M 22.234375 -4.59375 C 22.609375 -3.695312 22.796875 -3.050781 22.796875 -2.65625 C 22.796875 -1.726562 22.03125 -0.941406 20.5 -0.296875 C 19.707031 0.046875 19.070312 0.21875 18.59375 0.21875 C 18.113281 0.21875 17.71875 0.101562 17.40625 -0.125 C 17.101562 -0.363281 16.875 -0.601562 16.71875 -0.84375 C 16.476562 -1.3125 15.519531 -3.546875 13.84375 -7.546875 L 12.6875 -7.46875 L 8.03125 -7.46875 L 8.03125 -3.296875 C 8.03125 -2.722656 8.007812 -2.296875 7.96875 -2.015625 C 7.9375 -1.734375 7.820312 -1.40625 7.625 -1.03125 C 7.28125 -0.363281 6.316406 -0.03125 4.734375 -0.03125 C 3.003906 -0.03125 1.992188 -0.488281 1.703125 -1.40625 C 1.554688 -1.820312 1.484375 -2.460938 1.484375 -3.328125 L 1.484375 -23.859375 C 1.484375 -24.429688 1.5 -24.859375 1.53125 -25.140625 C 1.570312 -25.421875 1.691406 -25.75 1.890625 -26.125 C 2.234375 -26.789062 3.191406 -27.125 4.765625 -27.125 L 12.765625 -27.125 C 14.929688 -27.125 17.039062 -26.332031 19.09375 -24.75 C 20.082031 -23.988281 20.894531 -22.953125 21.53125 -21.640625 C 22.175781 -20.335938 22.5 -18.882812 22.5 -17.28125 C 22.5 -14.488281 21.570312 -12.191406 19.71875 -10.390625 C 20.257812 -9.085938 21.097656 -7.15625 22.234375 -4.59375 Z M 8.03125 -14.015625 L 12.765625 -14.015625 C 13.484375 -14.015625 14.195312 -14.285156 14.90625 -14.828125 C 15.625 -15.378906 15.984375 -16.195312 15.984375 -17.28125 C 15.984375 -18.363281 15.625 -19.179688 14.90625 -19.734375 C 14.195312 -20.296875 13.457031 -20.578125 12.6875 -20.578125 L 8.03125 -20.578125 Z M 8.03125 -14.015625 "/></g></g></g><g fill="#f2e9df" fill-opacity="1"><g transform="translate(181.143646, 151.368177)"><g><path d="M 1.484375 -23.859375 C 1.484375 -24.429688 1.5 -24.859375 1.53125 -25.140625 C 1.570312 -25.421875 1.691406 -25.75 1.890625 -26.125 C 2.234375 -26.789062 3.191406 -27.125 4.765625 -27.125 C 6.492188 -27.125 7.519531 -26.664062 7.84375 -25.75 C 7.96875 -25.332031 8.03125 -24.691406 8.03125 -23.828125 L 8.03125 -3.25 C 8.03125 -2.664062 8.007812 -2.234375 7.96875 -1.953125 C 7.9375 -1.679688 7.820312 -1.363281 7.625 -1 C 7.28125 -0.332031 6.316406 0 4.734375 0 C 3.003906 0 1.992188 -0.46875 1.703125 -1.40625 C 1.554688 -1.800781 1.484375 -2.429688 1.484375 -3.296875 Z M 1.484375 -23.859375 "/></g></g></g><g fill="#f2e9df" fill-opacity="1"><g transform="translate(190.651637, 151.368177)"><g><path d="M 26.234375 -26.71875 C 27.691406 -26 28.421875 -25.207031 28.421875 -24.34375 C 28.421875 -23.945312 28.234375 -23.351562 27.859375 -22.5625 L 17.65625 -1.84375 C 17.375 -1.300781 16.957031 -0.863281 16.40625 -0.53125 C 15.851562 -0.195312 15.28125 -0.03125 14.6875 -0.03125 L 14.3125 -0.03125 C 13.695312 -0.03125 13.113281 -0.195312 12.5625 -0.53125 C 12.007812 -0.863281 11.597656 -1.300781 11.328125 -1.84375 L 1.109375 -22.5625 C 0.742188 -23.351562 0.5625 -23.945312 0.5625 -24.34375 C 0.5625 -25.207031 1.285156 -26 2.734375 -26.71875 C 3.546875 -27.132812 4.164062 -27.34375 4.59375 -27.34375 C 5.03125 -27.34375 5.359375 -27.289062 5.578125 -27.1875 C 5.804688 -27.09375 6.019531 -26.921875 6.21875 -26.671875 C 6.4375 -26.378906 6.640625 -26.050781 6.828125 -25.6875 C 7.015625 -25.332031 7.488281 -24.3125 8.25 -22.625 C 9.007812 -20.9375 9.828125 -19.140625 10.703125 -17.234375 C 11.585938 -15.335938 12.414062 -13.546875 13.1875 -11.859375 C 13.96875 -10.171875 14.40625 -9.226562 14.5 -9.03125 L 21.90625 -25.234375 C 22.101562 -25.703125 22.273438 -26.070312 22.421875 -26.34375 C 22.867188 -27.007812 23.410156 -27.34375 24.046875 -27.34375 C 24.691406 -27.34375 25.421875 -27.132812 26.234375 -26.71875 Z M 26.234375 -26.71875 "/></g></g></g><g fill="#f2e9df" fill-opacity="1"><g transform="translate(219.61955, 151.368177)"><g><path d="M 8.03125 -6.546875 L 19.421875 -6.546875 C 19.992188 -6.546875 20.421875 -6.523438 20.703125 -6.484375 C 20.984375 -6.453125 21.3125 -6.335938 21.6875 -6.140625 C 22.351562 -5.796875 22.6875 -4.832031 22.6875 -3.25 C 22.6875 -1.53125 22.226562 -0.519531 21.3125 -0.21875 C 20.894531 -0.0703125 20.253906 0 19.390625 0 L 4.734375 0 C 3.003906 0 1.992188 -0.46875 1.703125 -1.40625 C 1.554688 -1.800781 1.484375 -2.429688 1.484375 -3.296875 L 1.484375 -23.859375 C 1.484375 -25.117188 1.71875 -25.976562 2.1875 -26.4375 C 2.65625 -26.894531 3.539062 -27.125 4.84375 -27.125 L 19.421875 -27.125 C 19.992188 -27.125 20.421875 -27.101562 20.703125 -27.0625 C 20.984375 -27.03125 21.3125 -26.914062 21.6875 -26.71875 C 22.351562 -26.375 22.6875 -25.410156 22.6875 -23.828125 C 22.6875 -22.097656 22.226562 -21.085938 21.3125 -20.796875 C 20.894531 -20.648438 20.253906 -20.578125 19.390625 -20.578125 L 8.03125 -20.578125 L 8.03125 -16.828125 L 15.359375 -16.828125 C 15.921875 -16.828125 16.34375 -16.804688 16.625 -16.765625 C 16.914062 -16.734375 17.242188 -16.617188 17.609375 -16.421875 C 18.273438 -16.078125 18.609375 -15.117188 18.609375 -13.546875 C 18.609375 -11.816406 18.140625 -10.804688 17.203125 -10.515625 C 16.785156 -10.359375 16.144531 -10.28125 15.28125 -10.28125 L 8.03125 -10.28125 Z M 8.03125 -6.546875 "/></g></g></g><path fill="#f2e9df" d="M 248.71875 122.117188 L 251.71875 122.117188 L 251.71875 125.117188 L 248.71875 125.117188 M 254.71875 122.117188 L 257.71875 122.117188 L 257.71875 125.117188 L 254.71875 125.117188 M 260.71875 122.117188 L 263.71875 122.117188 L 263.71875 125.117188 L 260.71875 125.117188 M 266.71875 122.117188 L 269.566406 122.117188 L 269.566406 125.117188 L 266.71875 125.117188 " fill-opacity="1" fill-rule="nonzero"/><path stroke-linecap="round" transform="matrix(0.75, 0, 0, 0.75, 248.719968, 122.118179)" fill="none" stroke-linejoin="round" d="M 19.795252 -4.001323 L 27.795253 1.998678 L 19.795252 7.998678 " stroke="#f2e9df" stroke-width="4" stroke-opacity="1" stroke-miterlimit="4"/><path fill="#f2e9df" d="M 105.488281 122.117188 L 108.488281 122.117188 L 108.488281 125.117188 L 105.488281 125.117188 M 111.488281 122.117188 L 114.488281 122.117188 L 114.488281 125.117188 L 111.488281 125.117188 M 117.488281 122.117188 L 120.488281 122.117188 L 120.488281 125.117188 L 117.488281 125.117188 M 123.488281 122.117188 L 126.488281 122.117188 L 126.488281 125.117188 L 123.488281 125.117188 " fill-opacity="1" fill-rule="nonzero"/></svg>