<svg xmlns="http://www.w3.org/2000/svg" xmlns:xlink="http://www.w3.org/1999/xlink" width="500" zoomAndPan="magnify" viewBox="0 0 375 374.999991" height="500" preserveAspectRatio="xMidYMid meet" version="1.0"><defs><clipPath id="d586c3b61a"><path d="M 0 80.058594 L 374.597656 80.058594 L 374.597656 294.9375 L 0 294.9375 Z M 0 80.058594 " clip-rule="nonzero"/></clipPath><clipPath id="b706ed311f"><path d="M 25.773438 137.171875 L 75 137.171875 L 75 207 L 25.773438 207 Z M 25.773438 137.171875 " clip-rule="nonzero"/></clipPath><clipPath id="3b33dce8f6"><path d="M 42 214 L 91 214 L 91 253.230469 L 42 253.230469 Z M 42 214 " clip-rule="nonzero"/></clipPath></defs><g clip-path="url(#d586c3b61a)"><path fill="#f2e9df" d="M 198.210938 294.730469 C 197.066406 294.734375 195.933594 294.636719 194.8125 294.433594 C 194.574219 294.40625 194.339844 294.363281 194.109375 294.304688 L 194.015625 294.304688 L 193.421875 294.167969 L 192.824219 293.988281 L 171.433594 288.511719 C 165.199219 286.902344 160.101562 282.246094 156.929688 275.421875 L 143.105469 278.867188 C 141.886719 279.171875 140.648438 279.320312 139.394531 279.320312 C 138.621094 279.320312 137.855469 279.265625 137.09375 279.148438 L 106.3125 274.519531 C 101.316406 279.683594 95.433594 282.515625 89.414062 282.515625 C 88.710938 282.511719 88.007812 282.472656 87.308594 282.394531 L 65.324219 279.957031 C 65.109375 279.957031 64.894531 279.957031 64.6875 279.910156 L 64.09375 279.820312 L 64.011719 279.820312 C 63.773438 279.792969 63.535156 279.753906 63.304688 279.699219 C 56.367188 278.402344 50.402344 273.316406 46.546875 265.519531 L 34.429688 263.699219 C 33.023438 263.492188 31.671875 263.09375 30.375 262.511719 C 29.078125 261.925781 27.882812 261.175781 26.796875 260.261719 C 25.707031 259.34375 24.761719 258.296875 23.964844 257.121094 C 23.167969 255.941406 22.546875 254.675781 22.097656 253.324219 L 14.820312 231.503906 C 13.738281 231.085938 12.695312 230.589844 11.6875 230.015625 C 10.679688 229.4375 9.722656 228.792969 8.8125 228.070312 C 7.902344 227.351562 7.050781 226.570312 6.257812 225.722656 C 5.464844 224.875 4.738281 223.972656 4.082031 223.015625 C 3.425781 222.058594 2.84375 221.058594 2.335938 220.015625 C 1.828125 218.972656 1.402344 217.894531 1.054688 216.789062 C 0.710938 215.679688 0.449219 214.550781 0.269531 213.40625 C 0.09375 212.257812 0.00390625 211.101562 0 209.941406 C -0.00390625 208.105469 0.207031 206.292969 0.636719 204.507812 C 1.066406 202.722656 1.699219 201.011719 2.539062 199.378906 C 3.378906 197.746094 4.402344 196.234375 5.605469 194.847656 C 6.808594 193.460938 8.160156 192.238281 9.65625 191.175781 C 9.902344 189.503906 10.40625 187.917969 11.171875 186.414062 L 47.019531 115.957031 C 47.96875 114.101562 49.238281 112.507812 50.832031 111.164062 C 52.421875 109.824219 54.210938 108.84375 56.195312 108.222656 C 56.566406 108.097656 56.816406 107.851562 56.945312 107.480469 L 60.617188 96.175781 C 60.851562 95.441406 61.144531 94.726562 61.488281 94.035156 C 61.832031 93.34375 62.226562 92.679688 62.671875 92.046875 C 63.113281 91.414062 63.605469 90.820312 64.136719 90.261719 C 64.671875 89.703125 65.246094 89.1875 65.859375 88.714844 C 66.46875 88.246094 67.113281 87.820312 67.789062 87.449219 C 68.464844 87.074219 69.164062 86.753906 69.890625 86.484375 C 70.613281 86.214844 71.355469 86.003906 72.113281 85.847656 C 72.867188 85.691406 73.632812 85.59375 74.402344 85.550781 L 182.355469 80.265625 C 182.609375 80.265625 182.890625 80.265625 183.175781 80.265625 C 184.246094 80.265625 185.308594 80.378906 186.355469 80.597656 C 187.402344 80.820312 188.417969 81.148438 189.398438 81.582031 C 190.378906 82.015625 191.300781 82.542969 192.171875 83.171875 C 193.042969 83.796875 193.839844 84.503906 194.5625 85.296875 L 200.160156 91.441406 C 200.378906 91.6875 200.652344 91.8125 200.980469 91.816406 L 331.0625 88.980469 L 331.375 88.980469 C 332.117188 88.980469 332.859375 89.03125 333.59375 89.140625 C 334.328125 89.246094 335.054688 89.40625 335.765625 89.617188 C 336.476562 89.828125 337.171875 90.09375 337.847656 90.402344 C 338.519531 90.714844 339.167969 91.074219 339.792969 91.480469 C 340.414062 91.886719 341.003906 92.335938 341.5625 92.828125 C 342.121094 93.320312 342.640625 93.851562 343.121094 94.417969 C 343.601562 94.984375 344.039062 95.582031 344.433594 96.214844 C 344.828125 96.84375 345.175781 97.5 345.476562 98.179688 L 373.292969 161.34375 C 373.941406 162.808594 374.347656 164.339844 374.515625 165.933594 C 374.683594 167.53125 374.605469 169.113281 374.277344 170.683594 L 365.214844 214.492188 C 364.917969 215.914062 364.429688 217.265625 363.75 218.550781 C 363.070312 219.832031 362.230469 220.996094 361.222656 222.042969 C 360.21875 223.089844 359.089844 223.980469 357.835938 224.707031 C 356.578125 225.4375 355.25 225.980469 353.84375 226.335938 L 341.601562 229.382812 C 337.679688 243.148438 328.101562 252.652344 317.988281 252.652344 C 317.082031 252.652344 316.1875 252.574219 315.296875 252.421875 C 315.070312 252.390625 314.847656 252.34375 314.625 252.289062 L 314.125 252.175781 L 313.667969 252.046875 L 298.382812 248.132812 C 296.652344 247.667969 295.039062 246.941406 293.542969 245.945312 C 292.046875 244.953125 290.75 243.75 289.648438 242.332031 L 230.480469 257.058594 C 230.195312 258.816406 229.828125 260.570312 229.382812 262.300781 C 224.558594 281.097656 211.449219 294.730469 198.210938 294.730469 Z M 198.210938 294.730469 " fill-opacity="1" fill-rule="nonzero"/></g><path fill="#3f120f" d="M 95.355469 209.222656 C 96.039062 209.300781 96.71875 209.429688 97.386719 209.613281 C 98.054688 209.792969 98.710938 210.03125 99.359375 210.320312 C 100.007812 210.609375 100.640625 210.949219 101.257812 211.339844 C 101.878906 211.730469 102.480469 212.171875 103.066406 212.664062 C 103.652344 213.15625 104.21875 213.695312 104.761719 214.28125 C 105.308594 214.867188 105.832031 215.496094 106.335938 216.171875 C 106.835938 216.84375 107.3125 217.5625 107.765625 218.316406 C 108.214844 219.074219 108.640625 219.871094 109.039062 220.703125 C 109.4375 221.535156 109.804688 222.398438 110.144531 223.296875 C 110.484375 224.199219 110.796875 225.125 111.074219 226.085938 C 111.355469 227.042969 111.601562 228.023438 111.816406 229.03125 C 112.03125 230.039062 112.214844 231.066406 112.363281 232.109375 C 112.515625 233.15625 112.632812 234.21875 112.714844 235.292969 C 112.796875 236.371094 112.84375 237.457031 112.859375 238.550781 C 112.875 239.644531 112.855469 240.746094 112.800781 241.847656 C 112.746094 242.953125 112.660156 244.054688 112.539062 245.15625 C 112.417969 246.257812 112.265625 247.351562 112.078125 248.441406 C 111.890625 249.53125 111.667969 250.609375 111.417969 251.675781 C 111.164062 252.738281 110.882812 253.789062 110.566406 254.820312 C 110.253906 255.851562 109.910156 256.863281 109.535156 257.851562 C 109.160156 258.839844 108.761719 259.804688 108.332031 260.738281 C 107.902344 261.675781 107.445312 262.582031 106.964844 263.453125 C 106.484375 264.328125 105.980469 265.167969 105.453125 265.96875 C 104.925781 266.773438 104.378906 267.539062 103.808594 268.265625 C 103.242188 268.988281 102.652344 269.671875 102.046875 270.3125 C 101.441406 270.953125 100.820312 271.550781 100.1875 272.097656 C 99.550781 272.648438 98.902344 273.148438 98.242188 273.601562 C 97.582031 274.054688 96.914062 274.457031 96.234375 274.808594 C 95.554688 275.160156 94.871094 275.460938 94.183594 275.707031 C 93.492188 275.957031 92.800781 276.148438 92.105469 276.292969 C 91.414062 276.433594 90.71875 276.519531 90.027344 276.550781 C 89.335938 276.585938 88.644531 276.5625 87.960938 276.488281 C 87.277344 276.414062 86.601562 276.285156 85.933594 276.101562 C 85.265625 275.917969 84.605469 275.683594 83.960938 275.394531 C 83.3125 275.105469 82.679688 274.765625 82.0625 274.371094 C 81.441406 273.980469 80.839844 273.539062 80.253906 273.046875 C 79.667969 272.558594 79.101562 272.019531 78.554688 271.433594 C 78.011719 270.847656 77.488281 270.21875 76.984375 269.542969 C 76.484375 268.867188 76.007812 268.152344 75.554688 267.394531 C 75.105469 266.636719 74.679688 265.84375 74.28125 265.011719 C 73.882812 264.179688 73.515625 263.3125 73.175781 262.414062 C 72.832031 261.515625 72.523438 260.585938 72.246094 259.628906 C 71.964844 258.671875 71.71875 257.6875 71.503906 256.683594 C 71.285156 255.675781 71.105469 254.648438 70.953125 253.601562 C 70.804688 252.554688 70.6875 251.496094 70.605469 250.417969 C 70.523438 249.34375 70.472656 248.257812 70.460938 247.160156 C 70.445312 246.066406 70.464844 244.96875 70.519531 243.863281 C 70.570312 242.761719 70.660156 241.65625 70.78125 240.554688 C 70.902344 239.453125 71.054688 238.359375 71.242188 237.269531 C 71.429688 236.183594 71.648438 235.105469 71.902344 234.039062 C 72.15625 232.972656 72.4375 231.925781 72.753906 230.894531 C 73.066406 229.859375 73.410156 228.851562 73.785156 227.859375 C 74.15625 226.871094 74.558594 225.910156 74.988281 224.972656 C 75.417969 224.039062 75.871094 223.132812 76.351562 222.257812 C 76.832031 221.386719 77.335938 220.546875 77.863281 219.742188 C 78.390625 218.9375 78.941406 218.175781 79.511719 217.449219 C 80.078125 216.722656 80.667969 216.039062 81.273438 215.398438 C 81.878906 214.757812 82.496094 214.164062 83.132812 213.613281 C 83.769531 213.066406 84.417969 212.5625 85.078125 212.113281 C 85.738281 211.660156 86.40625 211.257812 87.085938 210.90625 C 87.761719 210.550781 88.445312 210.253906 89.136719 210.003906 C 89.828125 209.757812 90.519531 209.5625 91.210938 209.421875 C 91.90625 209.28125 92.601562 209.195312 93.292969 209.160156 C 93.984375 209.128906 94.671875 209.148438 95.355469 209.222656 Z M 95.355469 209.222656 " fill-opacity="1" fill-rule="nonzero"/><path fill="#3f120f" d="M 72.761719 206.742188 C 73.445312 206.816406 74.121094 206.945312 74.789062 207.128906 C 75.460938 207.3125 76.117188 207.546875 76.765625 207.835938 C 77.410156 208.125 78.042969 208.464844 78.664062 208.855469 C 79.28125 209.25 79.886719 209.691406 80.472656 210.179688 C 81.054688 210.671875 81.621094 211.210938 82.167969 211.796875 C 82.714844 212.382812 83.238281 213.011719 83.738281 213.6875 C 84.242188 214.359375 84.71875 215.078125 85.167969 215.832031 C 85.621094 216.589844 86.046875 217.386719 86.441406 218.21875 C 86.839844 219.050781 87.210938 219.914062 87.550781 220.816406 C 87.890625 221.714844 88.199219 222.640625 88.480469 223.601562 C 88.757812 224.558594 89.007812 225.539062 89.222656 226.546875 C 89.4375 227.554688 89.621094 228.582031 89.769531 229.628906 C 89.917969 230.671875 90.035156 231.734375 90.117188 232.8125 C 90.203125 233.886719 90.25 234.972656 90.265625 236.066406 C 90.277344 237.164062 90.261719 238.261719 90.207031 239.363281 C 90.152344 240.46875 90.066406 241.570312 89.945312 242.671875 C 89.824219 243.773438 89.667969 244.871094 89.480469 245.957031 C 89.292969 247.046875 89.074219 248.125 88.820312 249.191406 C 88.570312 250.253906 88.285156 251.304688 87.972656 252.335938 C 87.65625 253.367188 87.3125 254.378906 86.941406 255.367188 C 86.566406 256.355469 86.164062 257.320312 85.734375 258.253906 C 85.308594 259.191406 84.851562 260.097656 84.371094 260.96875 C 83.890625 261.84375 83.386719 262.683594 82.859375 263.488281 C 82.332031 264.289062 81.785156 265.054688 81.214844 265.78125 C 80.644531 266.507812 80.058594 267.1875 79.453125 267.828125 C 78.847656 268.46875 78.226562 269.066406 77.589844 269.613281 C 76.953125 270.164062 76.308594 270.664062 75.648438 271.117188 C 74.988281 271.570312 74.316406 271.972656 73.640625 272.324219 C 72.960938 272.675781 72.277344 272.976562 71.585938 273.222656 C 70.898438 273.472656 70.207031 273.667969 69.511719 273.808594 C 68.816406 273.949219 68.125 274.035156 67.433594 274.066406 C 66.738281 274.101562 66.050781 274.078125 65.367188 274.003906 C 64.683594 273.929688 64.007812 273.800781 63.339844 273.617188 C 62.671875 273.433594 62.011719 273.199219 61.363281 272.910156 C 60.71875 272.621094 60.085938 272.28125 59.464844 271.890625 C 58.847656 271.496094 58.242188 271.054688 57.660156 270.5625 C 57.074219 270.074219 56.507812 269.535156 55.960938 268.949219 C 55.414062 268.363281 54.890625 267.734375 54.390625 267.058594 C 53.890625 266.382812 53.414062 265.667969 52.960938 264.910156 C 52.507812 264.152344 52.085938 263.359375 51.6875 262.527344 C 51.289062 261.695312 50.917969 260.828125 50.578125 259.929688 C 50.238281 259.03125 49.929688 258.101562 49.648438 257.144531 C 49.371094 256.1875 49.125 255.203125 48.90625 254.199219 C 48.691406 253.191406 48.507812 252.164062 48.359375 251.117188 C 48.210938 250.070312 48.09375 249.011719 48.011719 247.933594 C 47.929688 246.859375 47.878906 245.773438 47.863281 244.679688 C 47.851562 243.582031 47.871094 242.484375 47.921875 241.378906 C 47.976562 240.277344 48.0625 239.175781 48.183594 238.074219 C 48.304688 236.972656 48.460938 235.875 48.648438 234.785156 C 48.835938 233.699219 49.054688 232.621094 49.308594 231.554688 C 49.558594 230.488281 49.84375 229.441406 50.15625 228.410156 C 50.472656 227.375 50.816406 226.367188 51.1875 225.378906 C 51.5625 224.386719 51.964844 223.425781 52.394531 222.488281 C 52.824219 221.554688 53.277344 220.648438 53.757812 219.773438 C 54.238281 218.902344 54.742188 218.0625 55.269531 217.257812 C 55.796875 216.453125 56.34375 215.691406 56.914062 214.964844 C 57.484375 214.238281 58.070312 213.554688 58.675781 212.914062 C 59.28125 212.273438 59.902344 211.679688 60.539062 211.128906 C 61.175781 210.582031 61.824219 210.082031 62.484375 209.628906 C 63.144531 209.175781 63.8125 208.773438 64.488281 208.421875 C 65.167969 208.070312 65.851562 207.769531 66.542969 207.519531 C 67.230469 207.273438 67.921875 207.078125 68.617188 206.9375 C 69.3125 206.796875 70.003906 206.710938 70.699219 206.675781 C 71.390625 206.644531 72.078125 206.664062 72.761719 206.742188 Z M 72.761719 206.742188 " fill-opacity="1" fill-rule="nonzero"/><path fill="#3f120f" d="M 87.957031 276.46875 L 64.640625 273.882812 L 69.148438 254.015625 L 89.984375 265.039062 Z M 87.957031 276.46875 " fill-opacity="1" fill-rule="nonzero"/><path fill="#3f120f" d="M 311.867188 195.472656 C 312.34375 195.597656 312.808594 195.757812 313.265625 195.953125 C 313.71875 196.152344 314.164062 196.382812 314.589844 196.65625 C 315.019531 196.925781 315.433594 197.230469 315.832031 197.570312 C 316.234375 197.910156 316.613281 198.28125 316.980469 198.691406 C 317.34375 199.097656 317.691406 199.535156 318.019531 200.003906 C 318.347656 200.476562 318.652344 200.976562 318.941406 201.503906 C 319.226562 202.03125 319.492188 202.585938 319.738281 203.167969 C 319.980469 203.75 320.203125 204.355469 320.398438 204.988281 C 320.597656 205.617188 320.773438 206.265625 320.921875 206.9375 C 321.070312 207.609375 321.199219 208.296875 321.300781 209.003906 C 321.398438 209.710938 321.476562 210.433594 321.527344 211.167969 C 321.578125 211.902344 321.605469 212.648438 321.605469 213.40625 C 321.605469 214.160156 321.582031 214.925781 321.53125 215.695312 C 321.480469 216.464844 321.40625 217.238281 321.304688 218.015625 C 321.207031 218.792969 321.082031 219.570312 320.933594 220.347656 C 320.78125 221.125 320.609375 221.894531 320.414062 222.664062 C 320.214844 223.433594 319.996094 224.191406 319.753906 224.945312 C 319.511719 225.695312 319.246094 226.4375 318.960938 227.167969 C 318.675781 227.898438 318.367188 228.609375 318.042969 229.308594 C 317.714844 230.011719 317.367188 230.691406 317.003906 231.355469 C 316.640625 232.015625 316.257812 232.65625 315.859375 233.277344 C 315.460938 233.898438 315.050781 234.492188 314.621094 235.0625 C 314.191406 235.632812 313.75 236.175781 313.296875 236.691406 C 312.839844 237.207031 312.375 237.695312 311.898438 238.152344 C 311.421875 238.609375 310.9375 239.03125 310.445312 239.425781 C 309.953125 239.816406 309.453125 240.175781 308.945312 240.5 C 308.441406 240.824219 307.929688 241.117188 307.417969 241.371094 C 306.90625 241.625 306.390625 241.839844 305.875 242.023438 C 305.359375 242.203125 304.84375 242.347656 304.332031 242.453125 C 303.816406 242.558594 303.308594 242.625 302.800781 242.65625 C 302.296875 242.683594 301.796875 242.675781 301.300781 242.628906 C 300.808594 242.582031 300.324219 242.5 299.847656 242.375 C 299.371094 242.253906 298.902344 242.09375 298.449219 241.898438 C 297.992188 241.699219 297.550781 241.464844 297.121094 241.195312 C 296.691406 240.925781 296.277344 240.621094 295.878906 240.28125 C 295.480469 239.941406 295.097656 239.566406 294.734375 239.160156 C 294.367188 238.753906 294.023438 238.316406 293.695312 237.84375 C 293.367188 237.375 293.058594 236.875 292.773438 236.347656 C 292.484375 235.816406 292.21875 235.261719 291.976562 234.679688 C 291.730469 234.097656 291.511719 233.492188 291.3125 232.863281 C 291.117188 232.234375 290.941406 231.582031 290.792969 230.914062 C 290.640625 230.242188 290.515625 229.550781 290.414062 228.84375 C 290.3125 228.136719 290.238281 227.417969 290.183594 226.683594 C 290.132812 225.949219 290.109375 225.203125 290.109375 224.445312 C 290.105469 223.6875 290.132812 222.925781 290.183594 222.15625 C 290.230469 221.382812 290.308594 220.609375 290.40625 219.832031 C 290.507812 219.054688 290.632812 218.28125 290.78125 217.503906 C 290.929688 216.726562 291.101562 215.953125 291.300781 215.1875 C 291.496094 214.417969 291.714844 213.660156 291.960938 212.90625 C 292.203125 212.152344 292.464844 211.414062 292.753906 210.683594 C 293.039062 209.953125 293.34375 209.238281 293.671875 208.539062 C 294 207.839844 294.34375 207.160156 294.707031 206.496094 C 295.074219 205.835938 295.453125 205.191406 295.851562 204.574219 C 296.25 203.953125 296.664062 203.359375 297.09375 202.789062 C 297.519531 202.21875 297.960938 201.675781 298.417969 201.15625 C 298.871094 200.640625 299.335938 200.15625 299.8125 199.699219 C 300.289062 199.242188 300.773438 198.816406 301.269531 198.425781 C 301.761719 198.03125 302.261719 197.675781 302.765625 197.347656 C 303.273438 197.023438 303.78125 196.734375 304.296875 196.480469 C 304.808594 196.226562 305.324219 196.007812 305.839844 195.828125 C 306.355469 195.648438 306.871094 195.503906 307.382812 195.398438 C 307.894531 195.292969 308.40625 195.226562 308.910156 195.195312 C 309.417969 195.164062 309.917969 195.175781 310.410156 195.222656 C 310.90625 195.265625 311.390625 195.351562 311.867188 195.472656 Z M 311.867188 195.472656 " fill-opacity="1" fill-rule="nonzero"/><path fill="#3f120f" d="M 299.847656 242.375 L 316.109375 246.539062 L 318.101562 232.101562 L 301.375 234.207031 Z M 299.847656 242.375 " fill-opacity="1" fill-rule="nonzero"/><path fill="#3f120f" d="M 189.648438 217.171875 C 190.3125 217.34375 190.964844 217.566406 191.601562 217.84375 C 192.238281 218.117188 192.855469 218.445312 193.453125 218.824219 C 194.054688 219.199219 194.632812 219.625 195.191406 220.101562 C 195.75 220.578125 196.285156 221.097656 196.792969 221.667969 C 197.304688 222.238281 197.789062 222.851562 198.246094 223.507812 C 198.703125 224.164062 199.132812 224.863281 199.535156 225.601562 C 199.9375 226.339844 200.308594 227.113281 200.648438 227.929688 C 200.988281 228.742188 201.296875 229.589844 201.574219 230.46875 C 201.851562 231.347656 202.09375 232.257812 202.304688 233.195312 C 202.515625 234.132812 202.691406 235.097656 202.832031 236.085938 C 202.972656 237.070312 203.078125 238.078125 203.152344 239.105469 C 203.222656 240.132812 203.257812 241.175781 203.257812 242.234375 C 203.261719 243.289062 203.226562 244.359375 203.15625 245.433594 C 203.085938 246.511719 202.980469 247.59375 202.839844 248.679688 C 202.703125 249.765625 202.527344 250.851562 202.320312 251.933594 C 202.109375 253.019531 201.867188 254.101562 201.59375 255.171875 C 201.320312 256.246094 201.011719 257.308594 200.671875 258.359375 C 200.332031 259.410156 199.964844 260.445312 199.5625 261.464844 C 199.164062 262.484375 198.734375 263.484375 198.277344 264.460938 C 197.824219 265.4375 197.339844 266.390625 196.832031 267.316406 C 196.320312 268.242188 195.789062 269.140625 195.230469 270.003906 C 194.675781 270.871094 194.097656 271.703125 193.496094 272.5 C 192.898438 273.296875 192.28125 274.058594 191.644531 274.777344 C 191.011719 275.5 190.359375 276.179688 189.695312 276.816406 C 189.027344 277.453125 188.351562 278.046875 187.660156 278.597656 C 186.972656 279.144531 186.273438 279.648438 185.566406 280.101562 C 184.859375 280.554688 184.148438 280.960938 183.429688 281.3125 C 182.714844 281.667969 181.992188 281.972656 181.273438 282.226562 C 180.550781 282.480469 179.832031 282.679688 179.113281 282.828125 C 178.398438 282.972656 177.683594 283.070312 176.976562 283.109375 C 176.269531 283.152344 175.570312 283.140625 174.882812 283.074219 C 174.191406 283.011719 173.511719 282.890625 172.847656 282.722656 C 172.179688 282.550781 171.53125 282.328125 170.894531 282.050781 C 170.257812 281.773438 169.640625 281.449219 169.039062 281.070312 C 168.4375 280.695312 167.859375 280.269531 167.300781 279.792969 C 166.746094 279.316406 166.210938 278.796875 165.699219 278.226562 C 165.191406 277.65625 164.707031 277.042969 164.246094 276.386719 C 163.789062 275.730469 163.359375 275.03125 162.957031 274.292969 C 162.558594 273.554688 162.1875 272.78125 161.847656 271.964844 C 161.503906 271.152344 161.195312 270.304688 160.921875 269.425781 C 160.644531 268.546875 160.398438 267.636719 160.191406 266.699219 C 159.980469 265.761719 159.804688 264.796875 159.664062 263.808594 C 159.519531 262.824219 159.414062 261.816406 159.34375 260.789062 C 159.269531 259.761719 159.234375 258.71875 159.234375 257.660156 C 159.234375 256.605469 159.269531 255.535156 159.335938 254.460938 C 159.40625 253.382812 159.511719 252.300781 159.652344 251.214844 C 159.792969 250.128906 159.964844 249.042969 160.175781 247.957031 C 160.382812 246.875 160.625 245.792969 160.898438 244.722656 C 161.175781 243.648438 161.480469 242.585938 161.820312 241.535156 C 162.160156 240.484375 162.53125 239.445312 162.929688 238.429688 C 163.328125 237.410156 163.757812 236.410156 164.214844 235.433594 C 164.671875 234.457031 165.152344 233.503906 165.664062 232.578125 C 166.171875 231.652344 166.707031 230.753906 167.261719 229.890625 C 167.820312 229.023438 168.398438 228.191406 168.996094 227.394531 C 169.59375 226.597656 170.210938 225.835938 170.847656 225.117188 C 171.484375 224.394531 172.132812 223.714844 172.800781 223.078125 C 173.464844 222.441406 174.144531 221.847656 174.832031 221.296875 C 175.523438 220.75 176.21875 220.246094 176.925781 219.792969 C 177.632812 219.339844 178.347656 218.933594 179.0625 218.578125 C 179.78125 218.226562 180.5 217.921875 181.222656 217.667969 C 181.941406 217.414062 182.660156 217.214844 183.378906 217.066406 C 184.097656 216.921875 184.808594 216.824219 185.515625 216.785156 C 186.222656 216.742188 186.921875 216.753906 187.613281 216.820312 C 188.300781 216.882812 188.980469 217.003906 189.648438 217.171875 Z M 189.648438 217.171875 " fill-opacity="1" fill-rule="nonzero"/><path fill="#f7b917" d="M 35.46875 256.613281 L 138.105469 272.082031 C 139.191406 272.242188 140.265625 272.191406 141.332031 271.925781 L 352.125 219.4375 C 352.882812 219.246094 353.597656 218.957031 354.273438 218.566406 C 354.949219 218.175781 355.554688 217.699219 356.097656 217.136719 C 356.636719 216.574219 357.089844 215.949219 357.453125 215.257812 C 357.816406 214.566406 358.078125 213.839844 358.234375 213.078125 L 367.296875 169.265625 C 367.65625 167.535156 367.480469 165.859375 366.765625 164.238281 L 338.953125 101.085938 C 338.621094 100.335938 338.191406 99.652344 337.660156 99.035156 C 337.132812 98.414062 336.523438 97.886719 335.835938 97.445312 C 335.148438 97.003906 334.410156 96.675781 333.628906 96.453125 C 332.84375 96.230469 332.042969 96.125 331.226562 96.140625 L 201.167969 98.953125 C 199.980469 98.972656 198.839844 98.746094 197.75 98.277344 C 196.65625 97.804688 195.707031 97.132812 194.90625 96.253906 L 189.308594 90.101562 C 188.464844 89.179688 187.46875 88.480469 186.3125 88.007812 C 185.15625 87.535156 183.953125 87.332031 182.707031 87.402344 L 74.800781 92.695312 C 73.96875 92.746094 73.164062 92.917969 72.382812 93.210938 C 71.601562 93.503906 70.882812 93.902344 70.222656 94.414062 C 69.5625 94.921875 68.992188 95.515625 68.511719 96.199219 C 68.027344 96.878906 67.65625 97.613281 67.398438 98.40625 L 63.726562 109.710938 C 63.308594 110.988281 62.625 112.101562 61.667969 113.046875 C 60.710938 113.992188 59.589844 114.664062 58.304688 115.0625 C 57.234375 115.394531 56.273438 115.921875 55.417969 116.644531 C 54.5625 117.367188 53.882812 118.226562 53.378906 119.226562 L 17.523438 189.675781 C 16.941406 190.828125 16.648438 192.050781 16.636719 193.339844 L 16.425781 212.269531 C 16.410156 213.199219 16.550781 214.105469 16.847656 214.988281 L 28.855469 251.039062 C 29.097656 251.761719 29.433594 252.441406 29.863281 253.070312 C 30.292969 253.703125 30.800781 254.261719 31.382812 254.753906 C 31.964844 255.246094 32.605469 255.648438 33.296875 255.964844 C 33.992188 256.28125 34.714844 256.496094 35.46875 256.613281 Z M 35.46875 256.613281 " fill-opacity="1" fill-rule="nonzero"/><path fill="#c03427" d="M 156.660156 208.105469 L 367.296875 169.25 L 364.378906 183.347656 L 174.703125 220.679688 C 173.609375 220.886719 172.503906 220.96875 171.390625 220.933594 C 170.28125 220.898438 169.183594 220.738281 168.105469 220.460938 C 167.027344 220.183594 165.992188 219.792969 165 219.289062 C 164.007812 218.78125 163.082031 218.175781 162.222656 217.46875 L 155.652344 212.042969 C 155.3125 211.761719 155.078125 211.417969 154.945312 211 C 154.8125 210.585938 154.800781 210.164062 154.910156 209.742188 C 155.019531 209.320312 155.238281 208.960938 155.558594 208.664062 C 155.878906 208.367188 156.253906 208.179688 156.683594 208.105469 Z M 156.660156 208.105469 " fill-opacity="1" fill-rule="nonzero"/><path fill="#3f120f" d="M 19.453125 185.886719 L 120.160156 194.023438 C 120.910156 194.085938 121.648438 194.015625 122.375 193.8125 C 123.101562 193.609375 123.769531 193.289062 124.382812 192.851562 C 124.996094 192.414062 125.515625 191.882812 125.9375 191.261719 C 126.363281 190.636719 126.667969 189.960938 126.855469 189.230469 L 140.265625 136.289062 C 140.382812 135.824219 140.449219 135.355469 140.460938 134.882812 C 140.472656 134.40625 140.433594 133.933594 140.339844 133.46875 C 140.25 133 140.105469 132.550781 139.910156 132.113281 C 139.71875 131.679688 139.480469 131.269531 139.195312 130.890625 C 138.910156 130.507812 138.585938 130.164062 138.222656 129.855469 C 137.863281 129.546875 137.46875 129.28125 137.046875 129.058594 C 136.628906 128.839844 136.1875 128.667969 135.726562 128.542969 C 135.265625 128.421875 134.800781 128.351562 134.324219 128.335938 L 50.171875 125.503906 Z M 19.453125 185.886719 " fill-opacity="1" fill-rule="nonzero"/><path fill="#3f120f" d="M 163.164062 144.851562 C 163.148438 144.507812 163.019531 144.210938 162.785156 143.960938 C 162.546875 143.714844 162.257812 143.570312 161.914062 143.539062 C 161.570312 143.503906 161.261719 143.585938 160.980469 143.785156 C 160.699219 143.984375 160.515625 144.25 160.433594 144.585938 L 149.292969 190.800781 C 149.234375 191.042969 149.207031 191.292969 149.207031 191.542969 C 149.210938 191.796875 149.246094 192.042969 149.308594 192.285156 C 149.375 192.527344 149.464844 192.761719 149.589844 192.980469 C 149.710938 193.199219 149.855469 193.402344 150.027344 193.585938 C 150.199219 193.769531 150.390625 193.929688 150.601562 194.0625 C 150.8125 194.199219 151.039062 194.308594 151.277344 194.386719 C 151.515625 194.46875 151.761719 194.515625 152.011719 194.535156 C 152.261719 194.554688 152.511719 194.542969 152.757812 194.5 L 163.007812 192.714844 C 163.304688 192.664062 163.582031 192.5625 163.84375 192.410156 C 164.105469 192.257812 164.328125 192.0625 164.519531 191.828125 C 164.707031 191.59375 164.847656 191.332031 164.945312 191.046875 C 165.039062 190.757812 165.078125 190.464844 165.0625 190.164062 Z M 163.164062 144.851562 " fill-opacity="1" fill-rule="nonzero"/><path fill="#3f120f" d="M 306.414062 167.773438 L 347.378906 160.695312 C 347.621094 160.652344 347.859375 160.582031 348.089844 160.484375 C 348.316406 160.390625 348.535156 160.269531 348.734375 160.121094 C 348.9375 159.976562 349.117188 159.8125 349.28125 159.625 C 349.445312 159.4375 349.585938 159.230469 349.703125 159.011719 C 349.820312 158.792969 349.910156 158.5625 349.976562 158.324219 C 350.039062 158.082031 350.074219 157.839844 350.085938 157.589844 C 350.09375 157.339844 350.074219 157.09375 350.027344 156.851562 C 349.976562 156.605469 349.902344 156.371094 349.800781 156.144531 L 333.117188 118.667969 C 332.980469 118.359375 332.800781 118.078125 332.578125 117.828125 C 332.359375 117.574219 332.101562 117.363281 331.8125 117.191406 C 331.523438 117.015625 331.21875 116.890625 330.890625 116.816406 C 330.5625 116.738281 330.230469 116.714844 329.894531 116.742188 L 300.921875 118.847656 C 300.480469 118.878906 300.0625 118.996094 299.664062 119.199219 C 299.269531 119.402344 298.933594 119.671875 298.648438 120.015625 C 298.363281 120.355469 298.15625 120.738281 298.03125 121.164062 C 297.902344 121.589844 297.859375 122.023438 297.910156 122.464844 L 302.613281 164.9375 C 302.664062 165.382812 302.800781 165.804688 303.023438 166.195312 C 303.246094 166.585938 303.535156 166.917969 303.894531 167.1875 C 304.253906 167.457031 304.652344 167.648438 305.089844 167.753906 C 305.527344 167.859375 305.96875 167.875 306.414062 167.796875 Z M 306.414062 167.773438 " fill-opacity="1" fill-rule="nonzero"/><path fill="#3f120f" d="M 287.199219 119.816406 L 238.699219 123.34375 C 238.269531 123.375 237.859375 123.488281 237.46875 123.679688 C 237.082031 123.875 236.742188 124.132812 236.457031 124.457031 C 236.167969 124.78125 235.953125 125.148438 235.8125 125.558594 C 235.667969 125.96875 235.605469 126.390625 235.628906 126.824219 L 238.003906 175.816406 C 238.015625 176.050781 238.050781 176.28125 238.113281 176.507812 C 238.171875 176.738281 238.257812 176.957031 238.363281 177.164062 C 238.46875 177.375 238.597656 177.570312 238.746094 177.753906 C 238.894531 177.9375 239.058594 178.101562 239.242188 178.25 C 239.425781 178.394531 239.625 178.523438 239.835938 178.628906 C 240.042969 178.734375 240.261719 178.816406 240.492188 178.875 C 240.71875 178.933594 240.949219 178.96875 241.183594 178.976562 C 241.421875 178.988281 241.652344 178.972656 241.886719 178.933594 L 292.859375 170.121094 C 293.273438 170.050781 293.664062 169.90625 294.027344 169.683594 C 294.386719 169.460938 294.695312 169.183594 294.949219 168.84375 C 295.203125 168.503906 295.386719 168.128906 295.496094 167.722656 C 295.609375 167.3125 295.640625 166.898438 295.589844 166.476562 L 290.753906 122.765625 C 290.707031 122.339844 290.578125 121.933594 290.375 121.554688 C 290.171875 121.175781 289.902344 120.847656 289.570312 120.574219 C 289.242188 120.300781 288.871094 120.097656 288.460938 119.964844 C 288.050781 119.832031 287.628906 119.785156 287.199219 119.816406 Z M 287.199219 119.816406 " fill-opacity="1" fill-rule="nonzero"/><path fill="#3f120f" d="M 170.214844 185.628906 C 170.230469 185.984375 170.28125 186.328125 170.371094 186.671875 C 170.460938 187.011719 170.582031 187.339844 170.742188 187.65625 C 170.898438 187.96875 171.089844 188.265625 171.3125 188.539062 C 171.53125 188.8125 171.78125 189.0625 172.054688 189.285156 C 172.328125 189.503906 172.625 189.695312 172.9375 189.855469 C 173.253906 190.011719 173.582031 190.136719 173.921875 190.226562 C 174.261719 190.3125 174.609375 190.363281 174.960938 190.378906 C 175.3125 190.394531 175.664062 190.371094 176.007812 190.3125 L 227.25 181.460938 C 227.777344 181.367188 228.269531 181.183594 228.726562 180.914062 C 229.1875 180.640625 229.582031 180.296875 229.917969 179.878906 C 230.253906 179.460938 230.5 179 230.667969 178.492188 C 230.832031 177.984375 230.902344 177.460938 230.878906 176.929688 L 228.542969 128.585938 C 228.53125 128.292969 228.488281 128.003906 228.417969 127.71875 C 228.34375 127.4375 228.246094 127.164062 228.121094 126.898438 C 227.992188 126.636719 227.84375 126.386719 227.667969 126.152344 C 227.492188 125.917969 227.292969 125.707031 227.074219 125.511719 C 226.855469 125.316406 226.621094 125.148438 226.367188 125 C 226.113281 124.851562 225.851562 124.734375 225.574219 124.640625 C 225.296875 124.546875 225.011719 124.480469 224.722656 124.445312 C 224.433594 124.40625 224.140625 124.398438 223.851562 124.421875 L 172.617188 128.148438 C 172.296875 128.171875 171.984375 128.226562 171.675781 128.308594 C 171.367188 128.394531 171.070312 128.507812 170.785156 128.648438 C 170.5 128.789062 170.230469 128.957031 169.976562 129.148438 C 169.722656 129.34375 169.488281 129.558594 169.273438 129.796875 C 169.0625 130.035156 168.875 130.292969 168.710938 130.566406 C 168.550781 130.839844 168.414062 131.128906 168.308594 131.429688 C 168.199219 131.730469 168.121094 132.039062 168.074219 132.355469 C 168.027344 132.671875 168.007812 132.988281 168.023438 133.308594 Z M 170.214844 185.628906 " fill-opacity="1" fill-rule="nonzero"/><path fill="#3f120f" d="M 172.847656 282.722656 L 195.578125 288.539062 L 198.363281 268.355469 L 174.988281 271.300781 Z M 172.847656 282.722656 " fill-opacity="1" fill-rule="nonzero"/><path stroke-linecap="round" transform="matrix(0.594225, 0, 0, 0.594852, 0.0000045, 80.264424)" fill="none" stroke-linejoin="round" d="M 59.68908 296.458599 L 232.412734 322.462986 C 234.240219 322.732223 236.047983 322.646855 237.8426 322.200315 L 592.578528 233.962702 C 593.853824 233.64093 595.056809 233.15499 596.194057 232.498313 C 597.331305 231.841637 598.350226 231.040492 599.263969 230.094878 C 600.171138 229.149263 600.933686 228.098581 601.545039 226.936264 C 602.156392 225.773947 602.596829 224.552528 602.859776 223.272009 L 618.110733 149.61918 C 618.715512 146.710103 618.419696 143.892961 617.216711 141.167754 L 570.412052 35.002874 C 569.853289 33.742055 569.130183 32.592871 568.236161 31.555323 C 567.348714 30.511207 566.323218 29.624694 565.166249 28.88265 C 564.00928 28.140605 562.766853 27.588997 561.452115 27.214691 C 560.130804 26.840386 558.783198 26.663083 557.409297 26.68935 L 338.538353 31.417421 C 336.539952 31.450254 334.620435 31.069382 332.786376 30.28137 C 330.945744 29.486792 329.348338 28.357308 328.000732 26.879786 L 318.580637 16.537133 C 317.16072 14.987376 315.484429 13.811925 313.538618 13.017347 C 311.592806 12.222768 309.56811 11.881297 307.471104 11.999498 L 125.879545 20.897464 C 124.479349 20.982832 123.12517 21.27177 121.810432 21.764277 C 120.495694 22.256784 119.286136 22.926594 118.175183 23.78684 C 117.064229 24.64052 116.104471 25.638668 115.295907 26.787852 C 114.48077 27.930469 113.85627 29.16502 113.422406 30.498074 L 107.243139 49.50229 C 106.539755 51.649622 105.389359 53.52115 103.778806 55.110307 C 102.168252 56.699464 100.281604 57.828947 98.11886 58.498757 C 96.31767 59.056932 94.700543 59.943445 93.260905 61.158297 C 91.821267 62.373148 90.677445 63.817836 89.82944 65.498928 L 29.489557 183.930524 C 28.510078 185.867719 28.017051 187.923117 27.99733 190.090149 L 27.642351 221.912689 C 27.616056 223.475579 27.852709 224.999068 28.352309 226.483157 L 48.559826 287.087826 C 48.967395 288.302677 49.532732 289.445294 50.255838 290.502543 C 50.978943 291.566359 51.833523 292.505406 52.813002 293.332819 C 53.792482 294.160231 54.870567 294.836608 56.034109 295.368516 C 57.204226 295.900424 58.420358 296.261596 59.68908 296.458599 Z M 59.68908 296.458599 " stroke="#3f120f" stroke-width="4" stroke-opacity="1" stroke-miterlimit="4"/><path stroke-linecap="round" transform="matrix(0.594225, 0, 0, 0.594852, 0.0000045, 80.264424)" fill-opacity="1" fill="#f2e9df" fill-rule="nonzero" stroke-linejoin="round" d="M 65.519941 218.038298 C 65.519941 218.918245 65.473925 219.791624 65.388467 220.665004 C 65.30301 221.538384 65.178109 222.39863 65.007194 223.258876 C 64.836278 224.119122 64.619346 224.966235 64.369546 225.80678 C 64.113172 226.647326 63.817356 227.468172 63.482098 228.282451 C 63.14684 229.090163 62.77214 229.884741 62.357997 230.653053 C 61.943855 231.427931 61.496844 232.176542 61.010391 232.905453 C 60.523938 233.634364 60.004617 234.337007 59.445853 235.013384 C 58.88709 235.696328 58.302032 236.33987 57.684105 236.963713 C 57.059605 237.580989 56.415383 238.171998 55.738293 238.723606 C 55.061204 239.281781 54.357819 239.800555 53.62814 240.293063 C 52.89846 240.779003 52.14906 241.225543 51.373365 241.639249 C 50.604243 242.052955 49.808827 242.427261 49.000263 242.762166 C 48.1917 243.097071 47.363415 243.392575 46.528556 243.648679 C 45.687124 243.904783 44.839119 244.11492 43.977966 244.285655 C 43.123386 244.456391 42.255659 244.587727 41.381359 244.673094 C 40.513632 244.758462 39.639331 244.797863 38.758457 244.797863 C 37.884157 244.797863 37.009856 244.758462 36.135556 244.673094 C 35.267829 244.587727 34.400102 244.456391 33.538949 244.285655 C 32.677796 244.11492 31.82979 243.904783 30.994932 243.648679 C 30.1535 243.392575 29.331789 243.097071 28.516651 242.762166 C 27.708088 242.427261 26.919245 242.052955 26.14355 241.639249 C 25.374428 241.225543 24.618454 240.779003 23.895348 240.293063 C 23.165669 239.800555 22.462285 239.281781 21.785195 238.723606 C 21.108105 238.171998 20.45731 237.580989 19.839383 236.963713 C 19.214883 236.33987 18.629824 235.696328 18.071061 235.013384 C 17.518871 234.337007 16.99955 233.634364 16.513097 232.905453 C 16.02007 232.176542 15.573059 231.427931 15.158917 230.653053 C 14.744775 229.884741 14.370075 229.090163 14.034816 228.282451 C 13.699558 227.468172 13.403742 226.647326 13.153942 225.80678 C 12.897568 224.966235 12.68721 224.119122 12.516294 223.258876 C 12.345379 222.39863 12.213905 221.538384 12.128447 220.665004 C 12.042989 219.791624 11.996973 218.918245 11.996973 218.038298 C 11.996973 217.164918 12.042989 216.291539 12.128447 215.418159 C 12.213905 214.544779 12.345379 213.677967 12.516294 212.81772 C 12.68721 211.957474 12.897568 211.110362 13.153942 210.269816 C 13.403742 209.435837 13.699558 208.608424 14.034816 207.800712 C 14.370075 206.986434 14.744775 206.198422 15.158917 205.423544 C 15.573059 204.655232 16.02007 203.900054 16.513097 203.171143 C 16.99955 202.442233 17.518871 201.739589 18.071061 201.063212 C 18.629824 200.386835 19.214883 199.736726 19.839383 199.11945 C 20.45731 198.495607 21.108105 197.911165 21.785195 197.35299 C 22.462285 196.801382 23.165669 196.276041 23.895348 195.7901 C 24.618454 195.30416 25.374428 194.851053 26.14355 194.437347 C 26.919245 194.023641 27.708088 193.649335 28.516651 193.31443 C 29.331789 192.979525 30.1535 192.684021 30.994932 192.434484 C 31.82979 192.17838 32.677796 191.968243 33.538949 191.790941 C 34.400102 191.620205 35.267829 191.495436 36.135556 191.410068 C 37.009856 191.324701 37.884157 191.278733 38.758457 191.278733 C 39.639331 191.278733 40.513632 191.324701 41.381359 191.410068 C 42.255659 191.495436 43.123386 191.620205 43.977966 191.790941 C 44.839119 191.968243 45.687124 192.17838 46.528556 192.434484 C 47.363415 192.684021 48.1917 192.979525 49.000263 193.31443 C 49.808827 193.649335 50.604243 194.023641 51.373365 194.437347 C 52.14906 194.851053 52.89846 195.30416 53.62814 195.7901 C 54.357819 196.276041 55.061204 196.801382 55.738293 197.35299 C 56.415383 197.911165 57.059605 198.495607 57.684105 199.11945 C 58.302032 199.736726 58.88709 200.386835 59.445853 201.063212 C 60.004617 201.739589 60.523938 202.442233 61.010391 203.171143 C 61.496844 203.900054 61.943855 204.655232 62.357997 205.423544 C 62.77214 206.198422 63.14684 206.986434 63.482098 207.800712 C 63.817356 208.608424 64.113172 209.435837 64.369546 210.269816 C 64.619346 211.110362 64.836278 211.957474 65.007194 212.81772 C 65.178109 213.677967 65.30301 214.544779 65.388467 215.418159 C 65.473925 216.291539 65.519941 217.164918 65.519941 218.038298 Z M 65.519941 218.038298 " stroke="#3f120f" stroke-width="4" stroke-opacity="1" stroke-miterlimit="4"/><path fill="#3f120f" d="M 211.664062 222.828125 C 212.328125 222.996094 212.980469 223.222656 213.617188 223.496094 C 214.253906 223.773438 214.871094 224.097656 215.46875 224.476562 C 216.070312 224.851562 216.648438 225.28125 217.207031 225.753906 C 217.765625 226.230469 218.300781 226.753906 218.808594 227.320312 C 219.320312 227.890625 219.804688 228.503906 220.261719 229.160156 C 220.71875 229.816406 221.148438 230.515625 221.550781 231.253906 C 221.953125 231.992188 222.324219 232.769531 222.664062 233.582031 C 223.003906 234.394531 223.3125 235.242188 223.589844 236.121094 C 223.867188 237 224.109375 237.910156 224.320312 238.847656 C 224.53125 239.785156 224.707031 240.75 224.847656 241.738281 C 224.988281 242.726562 225.09375 243.730469 225.167969 244.757812 C 225.238281 245.785156 225.273438 246.828125 225.273438 247.886719 C 225.277344 248.945312 225.242188 250.011719 225.171875 251.085938 C 225.101562 252.164062 224.996094 253.246094 224.855469 254.332031 C 224.71875 255.417969 224.542969 256.503906 224.335938 257.589844 C 224.125 258.671875 223.882812 259.753906 223.609375 260.828125 C 223.335938 261.898438 223.027344 262.960938 222.6875 264.011719 C 222.347656 265.066406 221.980469 266.101562 221.578125 267.121094 C 221.179688 268.140625 220.75 269.136719 220.296875 270.113281 C 219.839844 271.09375 219.355469 272.042969 218.847656 272.96875 C 218.335938 273.898438 217.804688 274.792969 217.246094 275.660156 C 216.691406 276.523438 216.113281 277.355469 215.515625 278.152344 C 214.914062 278.949219 214.296875 279.710938 213.664062 280.429688 C 213.027344 281.152344 212.375 281.832031 211.710938 282.46875 C 211.042969 283.109375 210.367188 283.703125 209.675781 284.25 C 208.988281 284.796875 208.289062 285.300781 207.582031 285.753906 C 206.875 286.207031 206.164062 286.613281 205.445312 286.96875 C 204.730469 287.324219 204.007812 287.625 203.289062 287.878906 C 202.566406 288.132812 201.847656 288.332031 201.132812 288.480469 C 200.414062 288.628906 199.699219 288.722656 198.992188 288.765625 C 198.285156 288.804688 197.585938 288.792969 196.898438 288.726562 C 196.207031 288.664062 195.527344 288.546875 194.863281 288.375 C 194.195312 288.203125 193.546875 287.980469 192.910156 287.703125 C 192.273438 287.429688 191.65625 287.101562 191.054688 286.726562 C 190.453125 286.347656 189.875 285.921875 189.316406 285.445312 C 188.761719 284.96875 188.226562 284.449219 187.714844 283.878906 C 187.207031 283.308594 186.722656 282.699219 186.261719 282.039062 C 185.804688 281.382812 185.375 280.6875 184.972656 279.945312 C 184.574219 279.207031 184.203125 278.433594 183.863281 277.621094 C 183.519531 276.804688 183.210938 275.960938 182.9375 275.078125 C 182.660156 274.199219 182.414062 273.289062 182.207031 272.351562 C 181.996094 271.414062 181.820312 270.449219 181.679688 269.464844 C 181.535156 268.476562 181.429688 267.46875 181.359375 266.441406 C 181.289062 265.414062 181.25 264.371094 181.25 263.3125 C 181.25 262.257812 181.285156 261.191406 181.355469 260.113281 C 181.421875 259.035156 181.527344 257.953125 181.667969 256.867188 C 181.808594 255.78125 181.980469 254.695312 182.191406 253.613281 C 182.398438 252.527344 182.640625 251.449219 182.914062 250.375 C 183.191406 249.300781 183.5 248.238281 183.835938 247.1875 C 184.175781 246.136719 184.546875 245.101562 184.945312 244.082031 C 185.34375 243.0625 185.773438 242.0625 186.230469 241.085938 C 186.6875 240.109375 187.171875 239.15625 187.679688 238.230469 C 188.1875 237.304688 188.722656 236.40625 189.277344 235.542969 C 189.835938 234.675781 190.414062 233.84375 191.011719 233.046875 C 191.609375 232.25 192.226562 231.492188 192.863281 230.769531 C 193.5 230.046875 194.148438 229.367188 194.816406 228.730469 C 195.480469 228.09375 196.160156 227.5 196.847656 226.949219 C 197.539062 226.402344 198.234375 225.902344 198.941406 225.445312 C 199.648438 224.992188 200.363281 224.589844 201.078125 224.234375 C 201.796875 223.878906 202.515625 223.574219 203.238281 223.320312 C 203.957031 223.070312 204.675781 222.867188 205.394531 222.722656 C 206.113281 222.574219 206.824219 222.476562 207.53125 222.4375 C 208.238281 222.394531 208.9375 222.40625 209.628906 222.472656 C 210.316406 222.539062 210.996094 222.65625 211.664062 222.828125 Z M 211.664062 222.828125 " fill-opacity="1" fill-rule="nonzero"/><path fill="#f2e9df" d="M 205.195312 239.433594 C 205.816406 239.59375 206.402344 239.847656 206.957031 240.195312 C 207.515625 240.546875 208.03125 240.984375 208.503906 241.511719 C 208.976562 242.039062 209.402344 242.648438 209.773438 243.332031 C 210.144531 244.015625 210.460938 244.769531 210.71875 245.585938 C 210.972656 246.398438 211.167969 247.265625 211.300781 248.183594 C 211.429688 249.097656 211.496094 250.046875 211.496094 251.027344 C 211.5 252.007812 211.433594 253 211.304688 254.007812 C 211.175781 255.015625 210.984375 256.015625 210.726562 257.011719 C 210.472656 258.007812 210.160156 258.976562 209.789062 259.921875 C 209.417969 260.867188 208.996094 261.769531 208.523438 262.628906 C 208.050781 263.488281 207.539062 264.285156 206.980469 265.027344 C 206.425781 265.765625 205.839844 266.429688 205.222656 267.023438 C 204.605469 267.613281 203.96875 268.121094 203.3125 268.542969 C 202.65625 268.960938 201.992188 269.289062 201.324219 269.523438 C 200.65625 269.757812 199.992188 269.894531 199.335938 269.933594 C 198.679688 269.972656 198.042969 269.910156 197.425781 269.753906 C 196.808594 269.59375 196.21875 269.339844 195.664062 268.988281 C 195.105469 268.640625 194.589844 268.199219 194.117188 267.671875 C 193.644531 267.144531 193.222656 266.539062 192.847656 265.855469 C 192.476562 265.167969 192.160156 264.417969 191.90625 263.601562 C 191.648438 262.785156 191.453125 261.921875 191.324219 261.003906 C 191.191406 260.089844 191.125 259.140625 191.125 258.160156 C 191.125 257.179688 191.1875 256.1875 191.316406 255.179688 C 191.445312 254.171875 191.640625 253.171875 191.894531 252.175781 C 192.148438 251.179688 192.460938 250.210938 192.832031 249.265625 C 193.203125 248.320312 193.625 247.417969 194.097656 246.558594 C 194.570312 245.699219 195.085938 244.898438 195.640625 244.160156 C 196.195312 243.421875 196.78125 242.753906 197.398438 242.164062 C 198.015625 241.570312 198.652344 241.066406 199.308594 240.644531 C 199.964844 240.222656 200.628906 239.894531 201.296875 239.664062 C 201.964844 239.429688 202.628906 239.292969 203.285156 239.253906 C 203.941406 239.214844 204.578125 239.273438 205.195312 239.433594 Z M 205.195312 239.433594 " fill-opacity="1" fill-rule="nonzero"/><path fill="#3f120f" d="M 327.617188 199.519531 C 328.09375 199.640625 328.558594 199.800781 329.015625 200 C 329.46875 200.195312 329.910156 200.429688 330.339844 200.699219 C 330.769531 200.96875 331.183594 201.273438 331.582031 201.613281 C 331.984375 201.957031 332.363281 202.328125 332.730469 202.734375 C 333.09375 203.144531 333.441406 203.582031 333.769531 204.050781 C 334.097656 204.519531 334.402344 205.019531 334.691406 205.550781 C 334.976562 206.078125 335.242188 206.632812 335.488281 207.214844 C 335.730469 207.796875 335.953125 208.402344 336.148438 209.03125 C 336.347656 209.660156 336.519531 210.3125 336.671875 210.984375 C 336.820312 211.65625 336.949219 212.34375 337.046875 213.050781 C 337.148438 213.757812 337.226562 214.476562 337.277344 215.214844 C 337.328125 215.949219 337.355469 216.695312 337.355469 217.449219 C 337.355469 218.207031 337.332031 218.96875 337.28125 219.742188 C 337.230469 220.511719 337.15625 221.285156 337.054688 222.0625 C 336.957031 222.839844 336.832031 223.617188 336.683594 224.394531 C 336.53125 225.167969 336.359375 225.941406 336.164062 226.710938 C 335.964844 227.476562 335.746094 228.238281 335.503906 228.988281 C 335.261719 229.742188 334.996094 230.484375 334.710938 231.210938 C 334.425781 231.941406 334.117188 232.65625 333.792969 233.355469 C 333.464844 234.054688 333.117188 234.738281 332.753906 235.398438 C 332.390625 236.0625 332.007812 236.703125 331.609375 237.324219 C 331.210938 237.941406 330.796875 238.539062 330.371094 239.109375 C 329.941406 239.679688 329.5 240.222656 329.046875 240.738281 C 328.589844 241.253906 328.125 241.742188 327.648438 242.195312 C 327.171875 242.652344 326.6875 243.078125 326.195312 243.46875 C 325.699219 243.863281 325.203125 244.222656 324.695312 244.546875 C 324.191406 244.871094 323.679688 245.160156 323.167969 245.414062 C 322.652344 245.667969 322.140625 245.886719 321.625 246.066406 C 321.109375 246.25 320.59375 246.390625 320.082031 246.496094 C 319.566406 246.601562 319.058594 246.671875 318.550781 246.699219 C 318.046875 246.730469 317.546875 246.722656 317.050781 246.675781 C 316.558594 246.628906 316.074219 246.542969 315.597656 246.421875 C 315.117188 246.300781 314.652344 246.140625 314.199219 245.941406 C 313.742188 245.746094 313.300781 245.511719 312.871094 245.242188 C 312.441406 244.972656 312.027344 244.667969 311.628906 244.328125 C 311.230469 243.988281 310.847656 243.613281 310.484375 243.207031 C 310.117188 242.800781 309.769531 242.359375 309.445312 241.890625 C 309.117188 241.421875 308.808594 240.921875 308.523438 240.390625 C 308.234375 239.863281 307.96875 239.308594 307.726562 238.726562 C 307.480469 238.144531 307.261719 237.539062 307.0625 236.910156 C 306.867188 236.28125 306.691406 235.628906 306.539062 234.957031 C 306.390625 234.285156 306.265625 233.597656 306.164062 232.890625 C 306.0625 232.183594 305.988281 231.464844 305.933594 230.726562 C 305.882812 229.992188 305.859375 229.246094 305.859375 228.492188 C 305.855469 227.734375 305.882812 226.972656 305.933594 226.199219 C 305.980469 225.429688 306.058594 224.65625 306.15625 223.878906 C 306.257812 223.101562 306.382812 222.324219 306.53125 221.546875 C 306.679688 220.773438 306.851562 220 307.050781 219.230469 C 307.246094 218.464844 307.464844 217.703125 307.707031 216.953125 C 307.953125 216.199219 308.214844 215.457031 308.503906 214.730469 C 308.789062 214 309.09375 213.285156 309.421875 212.585938 C 309.746094 211.886719 310.09375 211.207031 310.457031 210.542969 C 310.820312 209.878906 311.203125 209.238281 311.601562 208.617188 C 312 208 312.414062 207.402344 312.84375 206.832031 C 313.269531 206.261719 313.710938 205.71875 314.167969 205.203125 C 314.621094 204.6875 315.085938 204.203125 315.5625 203.746094 C 316.039062 203.289062 316.523438 202.863281 317.019531 202.472656 C 317.511719 202.078125 318.011719 201.71875 318.515625 201.394531 C 319.023438 201.070312 319.53125 200.78125 320.046875 200.527344 C 320.558594 200.273438 321.074219 200.054688 321.589844 199.875 C 322.105469 199.695312 322.617188 199.550781 323.132812 199.445312 C 323.644531 199.339844 324.15625 199.269531 324.660156 199.242188 C 325.167969 199.210938 325.667969 199.21875 326.160156 199.265625 C 326.65625 199.3125 327.140625 199.398438 327.617188 199.519531 Z M 327.617188 199.519531 " fill-opacity="1" fill-rule="nonzero"/><path fill="#f2e9df" d="M 322.988281 211.398438 C 323.429688 211.511719 323.851562 211.695312 324.25 211.945312 C 324.644531 212.195312 325.015625 212.507812 325.351562 212.886719 C 325.691406 213.265625 325.996094 213.699219 326.261719 214.1875 C 326.527344 214.679688 326.75 215.214844 326.933594 215.800781 C 327.117188 216.382812 327.257812 217.003906 327.351562 217.660156 C 327.445312 218.316406 327.492188 218.992188 327.492188 219.695312 C 327.492188 220.394531 327.445312 221.109375 327.355469 221.828125 C 327.261719 222.550781 327.125 223.265625 326.941406 223.976562 C 326.757812 224.691406 326.535156 225.386719 326.269531 226.0625 C 326.003906 226.738281 325.703125 227.382812 325.363281 228 C 325.027344 228.613281 324.660156 229.183594 324.261719 229.714844 C 323.863281 230.242188 323.445312 230.71875 323.003906 231.144531 C 322.5625 231.566406 322.105469 231.929688 321.636719 232.230469 C 321.167969 232.53125 320.695312 232.765625 320.214844 232.933594 C 319.738281 233.101562 319.261719 233.199219 318.792969 233.226562 C 318.324219 233.253906 317.867188 233.210938 317.425781 233.097656 C 316.984375 232.984375 316.5625 232.804688 316.164062 232.550781 C 315.769531 232.300781 315.398438 231.988281 315.0625 231.609375 C 314.722656 231.234375 314.417969 230.800781 314.152344 230.308594 C 313.886719 229.820312 313.664062 229.28125 313.480469 228.699219 C 313.296875 228.113281 313.15625 227.492188 313.0625 226.839844 C 312.96875 226.183594 312.921875 225.503906 312.921875 224.800781 C 312.921875 224.101562 312.964844 223.390625 313.058594 222.667969 C 313.152344 221.949219 313.289062 221.230469 313.472656 220.519531 C 313.65625 219.804688 313.878906 219.113281 314.144531 218.433594 C 314.410156 217.757812 314.710938 217.113281 315.050781 216.5 C 315.386719 215.882812 315.753906 215.3125 316.152344 214.78125 C 316.550781 214.253906 316.96875 213.777344 317.410156 213.355469 C 317.851562 212.929688 318.308594 212.566406 318.777344 212.265625 C 319.246094 211.964844 319.71875 211.730469 320.199219 211.5625 C 320.675781 211.394531 321.152344 211.296875 321.621094 211.269531 C 322.089844 211.242188 322.546875 211.285156 322.988281 211.398438 Z M 322.988281 211.398438 " fill-opacity="1" fill-rule="nonzero"/><path stroke-linecap="round" transform="matrix(0.594225, 0, 0, 0.594852, 0.0000045, 80.264424)" fill-opacity="1" fill="#f2e9df" fill-rule="nonzero" stroke-linejoin="round" d="M 218.831494 232.839785 C 218.831494 233.798533 218.785478 234.750713 218.686873 235.702894 C 218.594841 236.655075 218.456794 237.600689 218.266157 238.539737 C 218.082094 239.478784 217.852014 240.411264 217.569346 241.324045 C 217.293251 242.243392 216.97114 243.143038 216.603014 244.022985 C 216.241461 244.909498 215.827319 245.776311 215.380308 246.616857 C 214.926723 247.463969 214.433697 248.284815 213.901228 249.079393 C 213.368759 249.873972 212.803422 250.642283 212.192069 251.384328 C 211.58729 252.126372 210.943068 252.829016 210.265978 253.511959 C 209.588889 254.188336 208.885504 254.825312 208.142677 255.436021 C 207.406424 256.040164 206.637303 256.611472 205.841886 257.14338 C 205.04647 257.675288 204.224759 258.167795 203.376753 258.620902 C 202.535321 259.067442 201.667595 259.481148 200.78672 259.84232 C 199.899272 260.210059 198.998677 260.531831 198.084935 260.814201 C 197.171192 261.090005 196.244302 261.319842 195.304264 261.510278 C 194.364227 261.694148 193.417616 261.838617 192.464431 261.930551 C 191.511246 262.022486 190.558062 262.068453 189.598303 262.068453 C 188.645118 262.068453 187.68536 262.022486 186.732175 261.930551 C 185.77899 261.838617 184.838953 261.694148 183.898916 261.510278 C 182.958878 261.319842 182.031988 261.090005 181.118246 260.814201 C 180.197929 260.531831 179.297334 260.210059 178.41646 259.84232 C 177.529012 259.481148 176.667859 259.067442 175.819853 258.620902 C 174.978421 258.167795 174.15671 257.675288 173.361294 257.14338 C 172.565878 256.611472 171.796756 256.040164 171.053929 255.436021 C 170.317676 254.825312 169.607718 254.188336 168.930628 253.511959 C 168.253538 252.829016 167.609317 252.126372 167.004537 251.384328 C 166.399758 250.642283 165.827847 249.873972 165.295379 249.079393 C 164.76291 248.284815 164.269883 247.463969 163.822872 246.616857 C 163.369288 245.776311 162.961719 244.909498 162.593593 244.022985 C 162.225466 243.143038 161.903355 242.243392 161.627261 241.324045 C 161.351166 240.411264 161.121087 239.478784 160.93045 238.539737 C 160.746386 237.600689 160.601765 236.655075 160.509734 235.702894 C 160.417702 234.750713 160.371686 233.798533 160.371686 232.839785 C 160.371686 231.881037 160.417702 230.928857 160.509734 229.976676 C 160.601765 229.024495 160.746386 228.078881 160.93045 227.139834 C 161.121087 226.200786 161.351166 225.268306 161.627261 224.355525 C 161.903355 223.436178 162.225466 222.536532 162.593593 221.656585 C 162.961719 220.770072 163.369288 219.903259 163.822872 219.062713 C 164.269883 218.215601 164.76291 217.394755 165.295379 216.600177 C 165.827847 215.805598 166.399758 215.037287 167.004537 214.295242 C 167.609317 213.559765 168.253538 212.850554 168.930628 212.174177 C 169.607718 211.491234 170.317676 210.854258 171.053929 210.243549 C 171.796756 209.639406 172.565878 209.068098 173.361294 208.53619 C 174.15671 208.004282 174.978421 207.511775 175.819853 207.058668 C 176.667859 206.612128 177.529012 206.198422 178.41646 205.83725 C 179.297334 205.469511 180.197929 205.14774 181.118246 204.865369 C 182.031988 204.589565 182.958878 204.359728 183.898916 204.169292 C 184.838953 203.985422 185.77899 203.84752 186.732175 203.749019 C 187.68536 203.657084 188.645118 203.611117 189.598303 203.611117 C 190.558062 203.611117 191.511246 203.657084 192.464431 203.749019 C 193.417616 203.84752 194.364227 203.985422 195.304264 204.169292 C 196.244302 204.359728 197.171192 204.589565 198.084935 204.865369 C 198.998677 205.14774 199.899272 205.469511 200.78672 205.83725 C 201.667595 206.198422 202.535321 206.612128 203.376753 207.058668 C 204.224759 207.511775 205.04647 208.004282 205.841886 208.53619 C 206.637303 209.068098 207.406424 209.639406 208.142677 210.243549 C 208.885504 210.854258 209.588889 211.491234 210.265978 212.174177 C 210.943068 212.850554 211.58729 213.559765 212.192069 214.295242 C 212.803422 215.037287 213.368759 215.805598 213.901228 216.600177 C 214.433697 217.394755 214.926723 218.215601 215.380308 219.062713 C 215.827319 219.903259 216.241461 220.770072 216.603014 221.656585 C 216.97114 222.536532 217.293251 223.436178 217.569346 224.355525 C 217.852014 225.268306 218.082094 226.200786 218.266157 227.139834 C 218.456794 228.078881 218.594841 229.024495 218.686873 229.976676 C 218.785478 230.928857 218.831494 231.881037 218.831494 232.839785 Z M 218.831494 232.839785 " stroke="#3f120f" stroke-width="4" stroke-opacity="1" stroke-miterlimit="4"/><path stroke-linecap="round" transform="matrix(0.594225, 0, 0, 0.594852, 0.0000045, 80.264424)" fill="none" stroke-linejoin="round" d="M 218.831494 265.430637 L 231.17688 308.600546 " stroke="#ed8f27" stroke-width="5" stroke-opacity="1" stroke-miterlimit="4"/><path stroke-linecap="round" transform="matrix(0.594225, 0, 0, 0.594852, 0.0000045, 80.264424)" fill="none" stroke-linejoin="round" d="M 535.321705 39.363206 L 270.691319 60.357151 C 269.941919 60.416252 269.192518 60.409685 268.449691 60.324318 C 267.700291 60.245516 266.970612 60.101048 266.247506 59.884344 C 265.530974 59.674208 264.834163 59.391837 264.163647 59.050365 C 263.499704 58.708894 262.86863 58.314888 262.270425 57.855214 C 261.678793 57.395541 261.126603 56.8899 260.627003 56.331725 C 260.127402 55.77355 259.680392 55.169407 259.28597 54.532431 C 258.898123 53.888888 258.562865 53.219078 258.299917 52.516435 C 258.030396 51.820358 257.826612 51.098014 257.688564 50.362536 C 257.471632 49.154251 257.142948 47.9788 256.722232 46.829617 C 256.294942 45.680433 255.775621 44.577217 255.157694 43.519967 C 254.539768 42.462718 253.829809 41.471137 253.040967 40.53209 C 252.252124 39.599609 251.384397 38.739363 250.44436 37.957918 C 249.504322 37.169906 248.505122 36.473829 247.440184 35.86312 C 246.381821 35.252411 245.270867 34.740203 244.120472 34.326497 C 242.970077 33.906224 241.793386 33.59102 240.583828 33.380883 C 239.380843 33.16418 238.164711 33.059112 236.942005 33.059112 L 128.31181 33.059112 " stroke="#ed8f27" stroke-width="5" stroke-opacity="1" stroke-miterlimit="4"/><path fill="#3f120f" d="M 89.445312 221.738281 L 44.054688 215.3125 C 44.054688 215.3125 41.558594 248.988281 66.765625 252.109375 C 89.960938 254.980469 89.445312 221.738281 89.445312 221.738281 Z M 89.445312 221.738281 " fill-opacity="1" fill-rule="nonzero"/><path fill="#f2e9df" d="M 61.128906 139.203125 C 61.796875 139.425781 62.445312 139.703125 63.074219 140.03125 C 63.703125 140.359375 64.3125 140.738281 64.894531 141.164062 C 65.480469 141.59375 66.042969 142.070312 66.574219 142.597656 C 67.109375 143.125 67.617188 143.695312 68.097656 144.316406 C 68.578125 144.933594 69.027344 145.59375 69.445312 146.296875 C 69.867188 147.003906 70.253906 147.746094 70.609375 148.53125 C 70.964844 149.3125 71.289062 150.132812 71.574219 150.988281 C 71.863281 151.84375 72.117188 152.730469 72.335938 153.648438 C 72.554688 154.566406 72.734375 155.515625 72.882812 156.488281 C 73.027344 157.460938 73.136719 158.457031 73.207031 159.476562 C 73.28125 160.496094 73.316406 161.53125 73.3125 162.585938 C 73.308594 163.640625 73.269531 164.707031 73.195312 165.785156 C 73.117188 166.863281 73.003906 167.953125 72.851562 169.046875 C 72.703125 170.140625 72.515625 171.238281 72.292969 172.335938 C 72.070312 173.433594 71.8125 174.53125 71.519531 175.625 C 71.230469 176.714844 70.902344 177.800781 70.542969 178.875 C 70.183594 179.953125 69.792969 181.015625 69.367188 182.0625 C 68.945312 183.113281 68.492188 184.140625 68.007812 185.152344 C 67.523438 186.164062 67.015625 187.152344 66.476562 188.117188 C 65.9375 189.082031 65.375 190.019531 64.785156 190.929688 C 64.199219 191.835938 63.585938 192.710938 62.957031 193.554688 C 62.324219 194.398438 61.671875 195.207031 61 195.976562 C 60.332031 196.746094 59.644531 197.476562 58.941406 198.167969 C 58.242188 198.859375 57.527344 199.503906 56.800781 200.105469 C 56.074219 200.710938 55.335938 201.265625 54.59375 201.777344 C 53.847656 202.285156 53.097656 202.746094 52.34375 203.15625 C 51.585938 203.570312 50.828125 203.929688 50.070312 204.242188 C 49.3125 204.550781 48.554688 204.808594 47.800781 205.015625 C 47.046875 205.21875 46.296875 205.371094 45.550781 205.46875 C 44.808594 205.570312 44.074219 205.613281 43.347656 205.605469 C 42.621094 205.59375 41.910156 205.53125 41.210938 205.414062 C 40.507812 205.296875 39.824219 205.128906 39.15625 204.902344 C 38.488281 204.679688 37.839844 204.40625 37.210938 204.078125 C 36.582031 203.75 35.972656 203.371094 35.386719 202.941406 C 34.800781 202.511719 34.242188 202.035156 33.707031 201.507812 C 33.171875 200.984375 32.664062 200.410156 32.1875 199.792969 C 31.707031 199.175781 31.257812 198.511719 30.835938 197.808594 C 30.417969 197.105469 30.03125 196.363281 29.671875 195.578125 C 29.316406 194.792969 28.996094 193.976562 28.707031 193.121094 C 28.417969 192.265625 28.167969 191.378906 27.949219 190.457031 C 27.730469 189.539062 27.546875 188.59375 27.402344 187.621094 C 27.257812 186.648438 27.148438 185.652344 27.074219 184.632812 C 27.003906 183.613281 26.96875 182.578125 26.972656 181.523438 C 26.972656 180.46875 27.011719 179.402344 27.089844 178.324219 C 27.167969 177.242188 27.28125 176.15625 27.429688 175.0625 C 27.582031 173.96875 27.765625 172.871094 27.988281 171.773438 C 28.210938 170.671875 28.46875 169.578125 28.761719 168.484375 C 29.054688 167.390625 29.382812 166.308594 29.742188 165.230469 C 30.101562 164.15625 30.492188 163.09375 30.914062 162.042969 C 31.339844 160.996094 31.792969 159.964844 32.277344 158.953125 C 32.757812 157.941406 33.269531 156.953125 33.808594 155.988281 C 34.347656 155.023438 34.910156 154.089844 35.496094 153.179688 C 36.085938 152.269531 36.695312 151.394531 37.328125 150.550781 C 37.960938 149.707031 38.613281 148.902344 39.28125 148.128906 C 39.953125 147.359375 40.636719 146.628906 41.339844 145.941406 C 42.042969 145.25 42.757812 144.605469 43.484375 144 C 44.210938 143.398438 44.945312 142.84375 45.691406 142.332031 C 46.4375 141.824219 47.1875 141.363281 47.941406 140.949219 C 48.695312 140.539062 49.453125 140.175781 50.214844 139.867188 C 50.972656 139.554688 51.730469 139.296875 52.484375 139.09375 C 53.238281 138.886719 53.988281 138.734375 54.730469 138.636719 C 55.476562 138.539062 56.210938 138.496094 56.9375 138.503906 C 57.660156 138.511719 58.375 138.574219 59.074219 138.691406 C 59.773438 138.808594 60.457031 138.980469 61.128906 139.203125 Z M 61.128906 139.203125 " fill-opacity="1" fill-rule="nonzero"/><path fill="#1c385f" d="M 70.546875 178.882812 C 74.515625 166.980469 74.082031 155.300781 70.152344 147.566406 C 61.773438 148.296875 52.832031 156.859375 48.136719 169.265625 L 59.394531 174.664062 L 45.589844 178.636719 C 43.839844 189.261719 46.078125 198.871094 51.410156 203.632812 C 59.179688 199.847656 66.570312 190.753906 70.546875 178.882812 Z M 70.546875 178.882812 " fill-opacity="1" fill-rule="nonzero"/><g clip-path="url(#b706ed311f)"><path stroke-linecap="round" transform="matrix(0.188717, -0.564343, 0.564343, 0.188717, 9.456226, 184.14264)" fill="none" stroke-linejoin="round" d="M 99.161486 58.402781 C 99.162623 59.586022 99.066192 60.767281 98.87842 61.944476 C 98.690647 63.121671 98.411533 64.294803 98.043138 65.449337 C 97.6706 66.612178 97.210864 67.762649 96.65354 68.890378 C 96.098298 70.024333 95.460001 71.137609 94.726199 72.23437 C 93.998623 73.32905 93.18591 74.396824 92.288061 75.437695 C 91.386069 76.486872 90.409309 77.498757 89.347413 78.483736 C 88.291743 79.466634 87.157162 80.420546 85.945732 81.330938 C 84.736384 82.247556 83.458495 83.124798 82.112065 83.962665 C 80.765634 84.800531 79.34858 85.592797 77.877518 86.347749 C 76.404374 87.096475 74.87514 87.801662 73.287734 88.457084 C 71.70241 89.118732 70.071365 89.726451 68.388374 90.282324 C 66.705382 90.838196 64.984978 91.344284 63.227159 91.800587 C 61.467259 92.250665 59.669946 92.650957 57.845589 92.991076 C 56.023313 93.33742 54.173993 93.62359 52.305937 93.85373 C 50.437881 94.08387 48.551088 94.257979 46.651784 94.373977 C 44.760788 94.494118 42.855198 94.549921 40.951631 94.549674 C 39.041838 94.551509 37.140293 94.495212 35.244914 94.374557 C 33.34539 94.262209 31.466566 94.087566 29.595989 93.854791 C 27.725412 93.622015 25.879698 93.339395 24.054682 92.994479 C 22.229667 92.649564 20.435739 92.252721 18.670818 91.797727 C 16.914204 91.346876 15.192822 90.835792 13.512917 90.28315 C 11.830931 89.724283 10.194565 89.115551 8.610046 88.454873 C 7.027609 87.800421 5.497019 87.094022 4.020357 86.341902 C 2.545777 85.596008 1.137577 84.800229 -0.208387 83.962873 C -1.560577 83.127599 -2.838079 82.246585 -4.049182 81.336444 C -5.256142 80.417996 -6.390476 79.46834 -7.445959 78.485395 C -8.509749 77.498306 -9.486382 76.482071 -10.388307 75.440854 C -11.284007 74.397555 -12.098773 73.327192 -12.830526 72.235991 C -13.556053 71.142708 -14.198565 70.028586 -14.751837 68.891545 C -15.309253 67.76281 -15.769122 66.6153 -16.143894 65.453176 C -16.51244 64.28897 -16.791726 63.122603 -16.977609 61.945767 C -17.165573 60.762706 -17.262196 59.583708 -17.257107 58.398385 C -17.258244 57.215143 -17.168039 56.035966 -16.980266 54.858771 C -16.792494 53.681576 -16.513379 52.508445 -16.140841 51.345603 C -15.768303 50.182762 -15.306484 49.038517 -14.751242 47.904562 C -14.202226 46.772689 -13.557704 45.657331 -12.828046 44.568877 C -12.100469 43.474198 -11.281531 42.404341 -10.385764 41.357245 C -9.487915 40.316375 -8.511155 39.304491 -7.451341 38.313285 C -6.389445 37.328306 -5.259008 36.382702 -4.04966 35.466084 C -2.840312 34.549466 -1.560341 33.678449 -0.207685 32.838501 C 1.138745 32.000634 2.547492 31.204225 4.020635 30.455499 C 5.493779 29.706772 7.023013 29.001585 8.608338 28.339937 C 10.195744 27.684515 11.826789 27.076796 13.50978 26.520923 C 15.19069 25.958825 16.911094 25.452737 18.670994 25.00266 C 20.43712 24.550501 22.228208 24.15229 24.050483 23.805946 C 25.874841 23.465827 27.722079 23.173431 29.590135 22.943292 C 31.464417 22.71107 33.344984 22.539042 35.244288 22.423045 C 37.143592 22.307048 39.042955 22.253326 40.952748 22.251491 C 42.856315 22.251738 44.757861 22.308036 46.657384 22.420383 C 48.552763 22.541038 50.437813 22.713599 52.30839 22.946375 C 54.176885 23.172925 56.024682 23.46177 57.849697 23.806686 C 59.674713 24.151602 61.462415 24.550526 63.225254 24.999295 C 64.990175 25.454289 66.709476 25.959148 68.391462 26.518015 C 70.073449 27.076882 71.703589 27.687696 73.292251 28.340067 C 74.87677 29.000745 76.405278 29.700918 77.875714 30.45512 C 79.352376 31.20724 80.760576 32.003018 82.112766 32.838292 C 83.45873 33.675648 84.734151 34.550437 85.947336 35.466803 C 87.154295 36.385251 88.288629 37.334907 89.350338 38.31577 C 90.405821 39.298716 91.388679 40.312869 92.286461 41.362393 C 93.188386 42.40361 94.003153 43.473973 94.72868 44.567256 C 95.460432 45.658458 96.102944 46.772579 96.654135 47.903395 C 97.207407 49.040437 97.667275 50.187948 98.042047 51.350071 C 98.414737 52.505969 98.696106 53.678562 98.881988 54.855398 C 99.067871 56.032234 99.158268 57.213314 99.161486 58.402781 Z M 99.161486 58.402781 " stroke="#3f120f" stroke-width="4" stroke-opacity="1" stroke-miterlimit="4"/></g><path fill="#f2e9df" d="M 106.890625 141.472656 C 107.597656 141.714844 108.285156 142.007812 108.949219 142.355469 C 109.617188 142.707031 110.257812 143.109375 110.875 143.566406 C 111.492188 144.023438 112.085938 144.53125 112.648438 145.089844 C 113.214844 145.648438 113.75 146.257812 114.253906 146.914062 C 114.757812 147.570312 115.234375 148.269531 115.675781 149.019531 C 116.117188 149.765625 116.523438 150.554688 116.898438 151.386719 C 117.273438 152.21875 117.609375 153.085938 117.910156 153.992188 C 118.214844 154.898438 118.476562 155.839844 118.707031 156.8125 C 118.933594 157.785156 119.121094 158.789062 119.273438 159.820312 C 119.421875 160.851562 119.535156 161.90625 119.605469 162.984375 C 119.679688 164.0625 119.710938 165.160156 119.707031 166.277344 C 119.699219 167.394531 119.652344 168.523438 119.566406 169.664062 C 119.484375 170.808594 119.359375 171.957031 119.195312 173.117188 C 119.03125 174.273438 118.828125 175.433594 118.589844 176.597656 C 118.351562 177.761719 118.074219 178.917969 117.757812 180.074219 C 117.445312 181.230469 117.097656 182.378906 116.710938 183.515625 C 116.324219 184.652344 115.90625 185.777344 115.453125 186.882812 C 115 187.992188 114.519531 189.082031 114.003906 190.152344 C 113.488281 191.222656 112.941406 192.265625 112.367188 193.285156 C 111.792969 194.304688 111.195312 195.292969 110.570312 196.253906 C 109.941406 197.210938 109.292969 198.136719 108.621094 199.027344 C 107.949219 199.917969 107.253906 200.769531 106.542969 201.582031 C 105.828125 202.394531 105.101562 203.167969 104.355469 203.894531 C 103.609375 204.621094 102.847656 205.304688 102.078125 205.9375 C 101.304688 206.574219 100.523438 207.160156 99.734375 207.699219 C 98.941406 208.234375 98.148438 208.71875 97.34375 209.152344 C 96.542969 209.585938 95.742188 209.964844 94.9375 210.289062 C 94.132812 210.617188 93.328125 210.886719 92.527344 211.101562 C 91.726562 211.3125 90.933594 211.472656 90.144531 211.574219 C 89.359375 211.675781 88.578125 211.71875 87.8125 211.707031 C 87.042969 211.695312 86.289062 211.625 85.546875 211.496094 C 84.808594 211.371094 84.082031 211.1875 83.375 210.949219 C 82.667969 210.710938 81.984375 210.414062 81.316406 210.066406 C 80.652344 209.714844 80.011719 209.3125 79.394531 208.855469 C 78.773438 208.402344 78.183594 207.894531 77.621094 207.332031 C 77.054688 206.773438 76.519531 206.167969 76.015625 205.511719 C 75.507812 204.855469 75.035156 204.152344 74.59375 203.40625 C 74.152344 202.65625 73.746094 201.867188 73.371094 201.039062 C 72.996094 200.207031 72.660156 199.335938 72.355469 198.429688 C 72.054688 197.523438 71.789062 196.585938 71.5625 195.609375 C 71.335938 194.636719 71.148438 193.632812 70.996094 192.605469 C 70.84375 191.574219 70.734375 190.515625 70.660156 189.4375 C 70.589844 188.359375 70.554688 187.261719 70.5625 186.144531 C 70.570312 185.03125 70.617188 183.902344 70.699219 182.757812 C 70.785156 181.617188 70.910156 180.464844 71.074219 179.308594 C 71.238281 178.148438 71.4375 176.988281 71.679688 175.824219 C 71.917969 174.664062 72.195312 173.503906 72.507812 172.347656 C 72.824219 171.191406 73.171875 170.046875 73.558594 168.910156 C 73.941406 167.769531 74.363281 166.648438 74.8125 165.539062 C 75.265625 164.429688 75.75 163.339844 76.265625 162.273438 C 76.78125 161.203125 77.328125 160.160156 77.898438 159.140625 C 78.472656 158.121094 79.074219 157.128906 79.699219 156.171875 C 80.324219 155.210938 80.976562 154.285156 81.648438 153.394531 C 82.320312 152.503906 83.015625 151.652344 83.726562 150.839844 C 84.4375 150.027344 85.167969 149.257812 85.914062 148.527344 C 86.660156 147.800781 87.417969 147.121094 88.191406 146.484375 C 88.964844 145.847656 89.746094 145.261719 90.535156 144.726562 C 91.324219 144.1875 92.121094 143.703125 92.921875 143.269531 C 93.726562 142.835938 94.527344 142.457031 95.332031 142.132812 C 96.136719 141.808594 96.941406 141.539062 97.742188 141.324219 C 98.539062 141.109375 99.335938 140.953125 100.121094 140.851562 C 100.910156 140.75 101.6875 140.703125 102.457031 140.714844 C 103.226562 140.730469 103.980469 140.800781 104.722656 140.925781 C 105.460938 141.050781 106.1875 141.234375 106.890625 141.472656 Z M 106.890625 141.472656 " fill-opacity="1" fill-rule="nonzero"/><path fill="#1c385f" d="M 116.476562 183.441406 C 120.679688 170.871094 120.222656 158.449219 116.0625 150.289062 C 107.195312 151.0625 97.722656 160.125 92.734375 173.257812 L 104.636719 178.972656 L 90.039062 183.183594 C 88.183594 194.429688 90.558594 204.605469 96.199219 209.671875 C 104.445312 205.636719 112.269531 196.007812 116.476562 183.441406 Z M 116.476562 183.441406 " fill-opacity="1" fill-rule="nonzero"/><path stroke-linecap="round" transform="matrix(0.190784, -0.563648, 0.563648, 0.190784, 36.121584, 229.192749)" fill="none" stroke-linejoin="round" d="M 177.761377 65.386534 C 177.756807 66.642465 177.660882 67.894667 177.465277 69.139027 C 177.26556 70.39171 176.970276 71.628227 176.575314 72.856902 C 176.180352 74.085577 175.69193 75.304305 175.105837 76.50065 C 174.521848 77.703213 173.84019 78.883394 173.067079 80.039086 C 172.293969 81.194779 171.437728 82.330097 170.481713 83.436814 C 169.531916 84.541427 168.49478 85.613229 167.37241 86.65844 C 166.250039 87.70365 165.050661 88.705623 163.770162 89.672682 C 162.491768 90.645958 161.134261 91.569779 159.710173 92.460693 C 158.283981 93.34539 156.786999 94.184745 155.22755 94.982871 C 153.665996 95.774779 152.048193 96.523354 150.369931 97.21616 C 148.693774 97.915183 146.963376 98.556333 145.182946 99.152045 C 143.400412 99.741538 141.578178 100.275167 139.716244 100.75293 C 137.850196 101.239016 135.954779 101.658809 134.019662 102.022738 C 132.090763 102.384561 130.134599 102.68631 128.153276 102.934202 C 126.171952 103.182095 124.182019 103.363598 122.171038 103.482923 C 120.162162 103.608466 118.14678 103.673838 116.129006 103.670716 C 114.111231 103.667595 112.095273 103.608417 110.091463 103.482754 C 108.081435 103.359196 106.087764 103.181589 104.10624 102.937497 C 102.124717 102.693406 100.169882 102.384838 98.237622 102.020118 C 96.305362 101.655397 94.410217 101.236532 92.543865 100.759408 C 90.681627 100.273962 88.858608 99.74059 87.078923 99.150967 C 85.299238 98.561345 83.569104 97.913369 81.892731 97.219475 C 80.214253 96.519363 78.591641 95.779551 77.03312 94.983393 C 75.474599 94.187235 73.976057 93.343054 72.554138 92.459078 C 71.123897 91.570987 69.77028 90.643101 68.487068 89.677523 C 67.207969 88.703622 66.009703 87.702361 64.885957 86.655086 C 63.764315 85.614029 62.729724 84.543506 61.780079 83.437301 C 60.824216 82.3332 59.961622 81.19753 59.188183 80.038612 C 58.420963 78.87759 57.738784 77.701643 57.15198 76.500344 C 56.567279 75.305264 56.077952 74.084831 55.684095 72.859805 C 55.288133 71.628561 54.993858 70.390619 54.799166 69.139761 C 54.600361 67.897226 54.501138 66.641774 54.49949 65.387948 C 54.497842 64.134121 54.60209 62.886032 54.79559 61.635454 C 54.997412 60.388989 55.292695 59.152472 55.687657 57.923797 C 56.074297 56.691008 56.564824 55.478498 57.157135 54.280049 C 57.741123 53.077486 58.416564 51.89941 59.189674 50.743718 C 59.96068 49.581807 60.825243 48.450602 61.77504 47.34599 C 62.731055 46.239272 63.768192 45.16747 64.884344 44.124364 C 66.006714 43.079153 67.21231 42.075076 68.490705 41.1018 C 69.771204 40.134741 71.120388 39.206807 72.552798 38.320006 C 73.978991 37.435309 75.475973 36.595954 77.029204 35.799932 C 78.588653 35.001806 80.214779 34.257345 81.890936 33.558321 C 83.569198 32.865516 85.297491 32.218148 87.080025 31.628654 C 88.856341 31.041265 90.678576 30.507637 92.544623 30.021551 C 94.406558 29.543788 96.308193 29.12189 98.237092 28.760066 C 100.172209 28.396138 102.126268 28.088171 104.109696 27.846497 C 106.084801 27.600709 108.080953 27.417101 110.089829 27.291558 C 112.100809 27.172233 114.109973 27.108966 116.127748 27.112087 C 118.149636 27.106886 120.16148 27.174387 122.169404 27.291727 C 124.179432 27.415285 126.175208 27.59911 128.150513 27.845306 C 130.132037 28.089398 132.086872 28.397965 134.017027 28.756468 C 135.949287 29.121189 137.852755 29.544167 139.712889 30.023395 C 141.57924 30.500519 143.404363 31.04011 145.184048 31.629732 C 146.963734 32.219354 148.693867 32.86733 150.37024 33.561224 C 152.046614 34.255118 153.665113 35.003253 155.229852 35.797306 C 156.788372 36.593464 158.278592 37.433531 159.708833 38.321622 C 161.139075 39.209712 162.492692 40.137598 163.769686 41.105281 C 165.052898 42.070859 166.253268 43.078338 167.37491 44.119395 C 168.498657 45.16667 169.533248 46.237193 170.482893 47.343398 C 171.432538 48.449603 172.295132 49.585274 173.06857 50.744191 C 173.839904 51.896891 174.517969 53.081161 175.10267 54.276241 C 175.689475 55.47754 176.182915 56.68965 176.578877 57.920894 C 176.968621 59.154243 177.262896 60.392185 177.463805 61.640938 C 177.662611 62.883473 177.761833 64.138925 177.761377 65.386534 Z M 177.761377 65.386534 " stroke="#3f120f" stroke-width="4" stroke-opacity="1" stroke-miterlimit="4"/><path fill="#f7b917" d="M 68.253906 189.972656 L 41.363281 202.097656 L 58.472656 210.628906 Z M 68.253906 189.972656 " fill-opacity="1" fill-rule="nonzero"/><path stroke-linecap="round" transform="matrix(0.595061, 0, 0, 0.595061, 25.773055, 137.305625)" fill="none" stroke-linejoin="round" d="M 71.389087 88.506966 L 26.199381 108.883033 L 54.951692 123.219802 " stroke="#3f120f" stroke-width="4" stroke-opacity="1" stroke-miterlimit="4"/><path fill="#c03427" d="M 89.027344 227.910156 C 70.996094 228.636719 57.3125 242.421875 53.566406 246.066406 C 55.371094 247.773438 57.398438 249.144531 59.65625 250.179688 C 61.910156 251.214844 64.273438 251.855469 66.742188 252.109375 C 83.535156 254.1875 87.898438 237.378906 89.027344 227.910156 Z M 89.027344 227.910156 " fill-opacity="1" fill-rule="nonzero"/><g clip-path="url(#3b33dce8f6)"><path stroke-linecap="round" transform="matrix(0.595061, 0, 0, 0.595061, 25.773055, 137.305625)" fill="none" stroke-linejoin="round" d="M 107.001253 141.889111 L 30.72229 131.090583 C 30.72229 131.090583 26.527604 187.682746 68.88803 192.927746 C 107.867761 197.75262 107.001253 141.889111 107.001253 141.889111 Z M 107.001253 141.889111 " stroke="#3f120f" stroke-width="4" stroke-opacity="1" stroke-miterlimit="4"/></g></svg>